<mxfile host="app.diagrams.net" modified="2020-12-16T18:46:25.675Z" agent="5.0 (X11)" etag="aCgKm3XVM6u2m8eR2wgp" version="14.0.1" type="github">
  <diagram id="ip1gu2oFggU7UtpsSIyP" name="Page-1">
    <mxGraphModel dx="2012" dy="1839" grid="1" gridSize="10" guides="1" tooltips="1" connect="1" arrows="1" fold="1" page="1" pageScale="1" pageWidth="827" pageHeight="1169" math="0" shadow="0">
      <root>
        <mxCell id="0" />
        <mxCell id="1" parent="0" />
        <mxCell id="VdjnM8DqXwYymBI1JdbW-38" value="opt[content.startsWith(prefix)]" style="shape=umlFrame;whiteSpace=wrap;html=1;width=170;height=30;" vertex="1" parent="1">
          <mxGeometry x="580" y="1340" width="820" height="380" as="geometry" />
        </mxCell>
        <mxCell id="4rB04aQ20s9kYNR3CybH-4" value="" style="rounded=0;whiteSpace=wrap;html=1;fillColor=#fff2cc;strokeColor=#d6b656;" parent="1" vertex="1">
          <mxGeometry x="630" y="-320" width="180" height="440" as="geometry" />
        </mxCell>
        <mxCell id="4rB04aQ20s9kYNR3CybH-5" value="" style="group;" parent="1" vertex="1" connectable="0">
          <mxGeometry x="90" y="-320" width="540" height="440" as="geometry" />
        </mxCell>
        <mxCell id="4rB04aQ20s9kYNR3CybH-1" value="" style="rounded=0;whiteSpace=wrap;html=1;fillColor=#dae8fc;strokeColor=#6c8ebf;" parent="4rB04aQ20s9kYNR3CybH-5" vertex="1">
          <mxGeometry width="122.5" height="440" as="geometry" />
        </mxCell>
        <mxCell id="4rB04aQ20s9kYNR3CybH-2" value="" style="rounded=0;whiteSpace=wrap;html=1;fillColor=#d5e8d4;strokeColor=#82b366;" parent="4rB04aQ20s9kYNR3CybH-5" vertex="1">
          <mxGeometry x="122.5" width="207.5" height="440" as="geometry" />
        </mxCell>
        <mxCell id="4rB04aQ20s9kYNR3CybH-3" value="" style="rounded=0;whiteSpace=wrap;html=1;fillColor=#f8cecc;strokeColor=#b85450;" parent="4rB04aQ20s9kYNR3CybH-5" vertex="1">
          <mxGeometry x="330" width="210" height="440" as="geometry" />
        </mxCell>
        <mxCell id="FuaRYOpQIYqmy_VIn2jc-53" value="&lt;div&gt;API class or component&lt;/div&gt;" style="whiteSpace=wrap;html=1;aspect=fixed;" parent="4rB04aQ20s9kYNR3CybH-5" vertex="1">
          <mxGeometry x="186.25" y="6.285714285714286" width="50.285714285714285" height="50.285714285714285" as="geometry" />
        </mxCell>
        <mxCell id="FuaRYOpQIYqmy_VIn2jc-31" value="&lt;div&gt;oncommand&lt;/div&gt;" style="rounded=0;whiteSpace=wrap;html=1;" parent="4rB04aQ20s9kYNR3CybH-5" vertex="1">
          <mxGeometry x="180" y="210.0014285714286" width="120" height="50.285714285714285" as="geometry" />
        </mxCell>
        <mxCell id="4rB04aQ20s9kYNR3CybH-100" style="edgeStyle=orthogonalEdgeStyle;rounded=0;orthogonalLoop=1;jettySize=auto;html=1;exitX=0.5;exitY=1;exitDx=0;exitDy=0;entryX=0.5;entryY=0;entryDx=0;entryDy=0;" parent="4rB04aQ20s9kYNR3CybH-5" source="4rB04aQ20s9kYNR3CybH-98" target="FuaRYOpQIYqmy_VIn2jc-31" edge="1">
          <mxGeometry relative="1" as="geometry" />
        </mxCell>
        <mxCell id="4rB04aQ20s9kYNR3CybH-98" value="&lt;div&gt;onmessage&lt;/div&gt;" style="rounded=0;whiteSpace=wrap;html=1;" parent="4rB04aQ20s9kYNR3CybH-5" vertex="1">
          <mxGeometry x="166.25" y="80.00142857142859" width="120" height="50.285714285714285" as="geometry" />
        </mxCell>
        <mxCell id="4rB04aQ20s9kYNR3CybH-102" value="pong!" style="text;html=1;strokeColor=none;fillColor=none;align=center;verticalAlign=middle;whiteSpace=wrap;rounded=0;glass=0;" parent="4rB04aQ20s9kYNR3CybH-5" vertex="1">
          <mxGeometry x="206" y="380" width="40" height="20" as="geometry" />
        </mxCell>
        <mxCell id="4rB04aQ20s9kYNR3CybH-106" value="message.channel.send(&quot;pong!&quot;)" style="text;html=1;strokeColor=none;fillColor=none;align=center;verticalAlign=middle;whiteSpace=wrap;rounded=0;glass=0;rotation=90;" parent="4rB04aQ20s9kYNR3CybH-5" vertex="1">
          <mxGeometry x="140" y="170" width="40" height="20" as="geometry" />
        </mxCell>
        <mxCell id="FuaRYOpQIYqmy_VIn2jc-17" value="" style="rounded=0;whiteSpace=wrap;html=1;" parent="1" vertex="1">
          <mxGeometry x="100" y="-190" width="100" height="190" as="geometry" />
        </mxCell>
        <mxCell id="FuaRYOpQIYqmy_VIn2jc-2" value="&lt;h1&gt;Nota:&lt;br&gt;&lt;/h1&gt;&lt;p&gt;Las flechas indican la dirección en la que los mensajes se dirigen.&lt;br&gt;Considérese mensaje cualquier valor o dato emitido.&lt;br&gt;&lt;/p&gt;" style="text;html=1;strokeColor=none;fillColor=none;spacing=5;spacingTop=-20;whiteSpace=wrap;overflow=hidden;rounded=0;" parent="1" vertex="1">
          <mxGeometry x="40" y="40" width="190" height="120" as="geometry" />
        </mxCell>
        <mxCell id="FuaRYOpQIYqmy_VIn2jc-16" style="edgeStyle=orthogonalEdgeStyle;rounded=0;orthogonalLoop=1;jettySize=auto;html=1;exitX=1;exitY=0.5;exitDx=0;exitDy=0;" parent="1" source="FuaRYOpQIYqmy_VIn2jc-5" target="FuaRYOpQIYqmy_VIn2jc-9" edge="1">
          <mxGeometry relative="1" as="geometry" />
        </mxCell>
        <mxCell id="FuaRYOpQIYqmy_VIn2jc-23" style="edgeStyle=orthogonalEdgeStyle;rounded=0;orthogonalLoop=1;jettySize=auto;html=1;exitX=0;exitY=0.75;exitDx=0;exitDy=0;entryX=1;entryY=0.75;entryDx=0;entryDy=0;" parent="1" source="FuaRYOpQIYqmy_VIn2jc-5" target="FuaRYOpQIYqmy_VIn2jc-12" edge="1">
          <mxGeometry relative="1" as="geometry" />
        </mxCell>
        <mxCell id="FuaRYOpQIYqmy_VIn2jc-5" value="" style="shape=image;verticalLabelPosition=bottom;verticalAlign=top;imageAspect=0;image=https://cdn4.iconfinder.com/data/icons/logos-and-brands/512/91_Discord_logo_logos-512.png" parent="1" vertex="1">
          <mxGeometry x="-50" y="-180" width="80" height="80" as="geometry" />
        </mxCell>
        <mxCell id="FuaRYOpQIYqmy_VIn2jc-24" style="edgeStyle=orthogonalEdgeStyle;rounded=0;orthogonalLoop=1;jettySize=auto;html=1;exitX=0;exitY=0.75;exitDx=0;exitDy=0;entryX=1;entryY=0.75;entryDx=0;entryDy=0;" parent="1" source="FuaRYOpQIYqmy_VIn2jc-9" target="FuaRYOpQIYqmy_VIn2jc-5" edge="1">
          <mxGeometry relative="1" as="geometry" />
        </mxCell>
        <mxCell id="FuaRYOpQIYqmy_VIn2jc-30" style="edgeStyle=orthogonalEdgeStyle;rounded=0;orthogonalLoop=1;jettySize=auto;html=1;exitX=0.5;exitY=1;exitDx=0;exitDy=0;entryX=0.5;entryY=0;entryDx=0;entryDy=0;" parent="1" source="FuaRYOpQIYqmy_VIn2jc-9" target="FuaRYOpQIYqmy_VIn2jc-28" edge="1">
          <mxGeometry relative="1" as="geometry" />
        </mxCell>
        <mxCell id="FuaRYOpQIYqmy_VIn2jc-9" value="" style="shape=image;verticalLabelPosition=bottom;verticalAlign=top;imageAspect=0;image=https://discord.js.org/static/logo-square.png" parent="1" vertex="1">
          <mxGeometry x="110" y="-180" width="80" height="80" as="geometry" />
        </mxCell>
        <mxCell id="FuaRYOpQIYqmy_VIn2jc-22" style="edgeStyle=orthogonalEdgeStyle;rounded=0;orthogonalLoop=1;jettySize=auto;html=1;exitX=1;exitY=0.5;exitDx=0;exitDy=0;entryX=0;entryY=0.5;entryDx=0;entryDy=0;" parent="1" source="FuaRYOpQIYqmy_VIn2jc-12" target="FuaRYOpQIYqmy_VIn2jc-5" edge="1">
          <mxGeometry relative="1" as="geometry" />
        </mxCell>
        <mxCell id="FuaRYOpQIYqmy_VIn2jc-12" value="" style="shape=image;verticalLabelPosition=bottom;verticalAlign=top;imageAspect=0;image=https://cdn3.iconfinder.com/data/icons/popular-services-brands-vol-2/512/discord-512.png" parent="1" vertex="1">
          <mxGeometry x="20" y="240" width="80" height="80" as="geometry" />
        </mxCell>
        <mxCell id="FuaRYOpQIYqmy_VIn2jc-18" value="" style="endArrow=none;dashed=1;html=1;dashPattern=1 3;strokeWidth=2;" parent="1" edge="1">
          <mxGeometry width="50" height="50" relative="1" as="geometry">
            <mxPoint x="70" y="60" as="sourcePoint" />
            <mxPoint x="70" y="-220" as="targetPoint" />
          </mxGeometry>
        </mxCell>
        <mxCell id="FuaRYOpQIYqmy_VIn2jc-19" value="" style="endArrow=none;dashed=1;html=1;dashPattern=1 3;strokeWidth=2;" parent="1" edge="1">
          <mxGeometry width="50" height="50" relative="1" as="geometry">
            <mxPoint x="120" y="480" as="sourcePoint" />
            <mxPoint x="120" y="200" as="targetPoint" />
          </mxGeometry>
        </mxCell>
        <mxCell id="FuaRYOpQIYqmy_VIn2jc-20" value="Discord User" style="text;html=1;strokeColor=none;fillColor=none;align=center;verticalAlign=middle;whiteSpace=wrap;rounded=0;" parent="1" vertex="1">
          <mxGeometry x="20" y="210" width="80" height="20" as="geometry" />
        </mxCell>
        <mxCell id="FuaRYOpQIYqmy_VIn2jc-25" value="&lt;div&gt;Discord Platform&lt;/div&gt;" style="text;html=1;strokeColor=none;fillColor=none;align=center;verticalAlign=middle;whiteSpace=wrap;rounded=0;" parent="1" vertex="1">
          <mxGeometry x="-30" y="-210" width="40" height="20" as="geometry" />
        </mxCell>
        <mxCell id="FuaRYOpQIYqmy_VIn2jc-26" value="&lt;div&gt;Discord.js as a event broker&lt;/div&gt;" style="text;html=1;strokeColor=none;fillColor=none;align=center;verticalAlign=middle;whiteSpace=wrap;rounded=0;" parent="1" vertex="1">
          <mxGeometry x="100" y="-220" width="100" height="30" as="geometry" />
        </mxCell>
        <mxCell id="4rB04aQ20s9kYNR3CybH-99" style="edgeStyle=orthogonalEdgeStyle;rounded=0;orthogonalLoop=1;jettySize=auto;html=1;entryX=0;entryY=0.5;entryDx=0;entryDy=0;" parent="1" source="FuaRYOpQIYqmy_VIn2jc-28" target="4rB04aQ20s9kYNR3CybH-98" edge="1">
          <mxGeometry relative="1" as="geometry" />
        </mxCell>
        <mxCell id="FuaRYOpQIYqmy_VIn2jc-28" value="&lt;div&gt;any&lt;/div&gt;&lt;div&gt;event&lt;/div&gt;" style="ellipse;whiteSpace=wrap;html=1;aspect=fixed;" parent="1" vertex="1">
          <mxGeometry x="110" y="-90" width="80" height="80" as="geometry" />
        </mxCell>
        <mxCell id="FuaRYOpQIYqmy_VIn2jc-44" style="edgeStyle=orthogonalEdgeStyle;rounded=0;orthogonalLoop=1;jettySize=auto;html=1;exitX=1;exitY=0.5;exitDx=0;exitDy=0;entryX=0;entryY=0.5;entryDx=0;entryDy=0;" parent="1" source="FuaRYOpQIYqmy_VIn2jc-34" target="FuaRYOpQIYqmy_VIn2jc-42" edge="1">
          <mxGeometry relative="1" as="geometry">
            <mxPoint x="670" y="60" as="targetPoint" />
          </mxGeometry>
        </mxCell>
        <mxCell id="4rB04aQ20s9kYNR3CybH-101" style="edgeStyle=orthogonalEdgeStyle;rounded=0;orthogonalLoop=1;jettySize=auto;html=1;exitX=0;exitY=0.75;exitDx=0;exitDy=0;entryX=0.25;entryY=1;entryDx=0;entryDy=0;" parent="1" source="FuaRYOpQIYqmy_VIn2jc-34" target="4rB04aQ20s9kYNR3CybH-98" edge="1">
          <mxGeometry relative="1" as="geometry" />
        </mxCell>
        <mxCell id="FuaRYOpQIYqmy_VIn2jc-34" value="ping" style="rounded=0;whiteSpace=wrap;html=1;" parent="1" vertex="1">
          <mxGeometry x="470" y="20" width="120" height="80" as="geometry" />
        </mxCell>
        <mxCell id="4rB04aQ20s9kYNR3CybH-32" style="edgeStyle=orthogonalEdgeStyle;rounded=0;orthogonalLoop=1;jettySize=auto;html=1;exitX=0;exitY=0.75;exitDx=0;exitDy=0;entryX=1;entryY=0.75;entryDx=0;entryDy=0;" parent="1" source="FuaRYOpQIYqmy_VIn2jc-42" target="FuaRYOpQIYqmy_VIn2jc-34" edge="1">
          <mxGeometry relative="1" as="geometry" />
        </mxCell>
        <mxCell id="FuaRYOpQIYqmy_VIn2jc-42" value="any class&lt;br&gt;&lt;div&gt;(bussines rule)&lt;/div&gt;" style="rounded=0;whiteSpace=wrap;html=1;" parent="1" vertex="1">
          <mxGeometry x="670" y="20" width="120" height="80" as="geometry" />
        </mxCell>
        <mxCell id="4rB04aQ20s9kYNR3CybH-23" style="edgeStyle=orthogonalEdgeStyle;rounded=0;orthogonalLoop=1;jettySize=auto;html=1;exitX=1;exitY=0.25;exitDx=0;exitDy=0;entryX=1;entryY=0.25;entryDx=0;entryDy=0;" parent="1" source="FuaRYOpQIYqmy_VIn2jc-34" target="FuaRYOpQIYqmy_VIn2jc-53" edge="1">
          <mxGeometry relative="1" as="geometry">
            <mxPoint x="760" y="-110" as="sourcePoint" />
          </mxGeometry>
        </mxCell>
        <mxCell id="FuaRYOpQIYqmy_VIn2jc-57" style="edgeStyle=orthogonalEdgeStyle;rounded=0;orthogonalLoop=1;jettySize=auto;html=1;exitX=1;exitY=0.5;exitDx=0;exitDy=0;" parent="1" source="FuaRYOpQIYqmy_VIn2jc-52" target="FuaRYOpQIYqmy_VIn2jc-56" edge="1">
          <mxGeometry relative="1" as="geometry" />
        </mxCell>
        <mxCell id="FuaRYOpQIYqmy_VIn2jc-52" value="API" style="whiteSpace=wrap;html=1;aspect=fixed;" parent="1" vertex="1">
          <mxGeometry x="270" y="-520" width="120" height="120" as="geometry" />
        </mxCell>
        <mxCell id="FuaRYOpQIYqmy_VIn2jc-62" style="edgeStyle=orthogonalEdgeStyle;rounded=0;orthogonalLoop=1;jettySize=auto;html=1;exitX=0;exitY=0;exitDx=0;exitDy=52.5;exitPerimeter=0;entryX=1;entryY=0.603;entryDx=0;entryDy=0;entryPerimeter=0;" parent="1" source="FuaRYOpQIYqmy_VIn2jc-56" target="FuaRYOpQIYqmy_VIn2jc-52" edge="1">
          <mxGeometry relative="1" as="geometry" />
        </mxCell>
        <mxCell id="FuaRYOpQIYqmy_VIn2jc-56" value="" style="shape=cylinder3;whiteSpace=wrap;html=1;boundedLbl=1;backgroundOutline=1;size=15;" parent="1" vertex="1">
          <mxGeometry x="430" y="-500" width="60" height="80" as="geometry" />
        </mxCell>
        <mxCell id="4rB04aQ20s9kYNR3CybH-24" style="edgeStyle=orthogonalEdgeStyle;rounded=0;orthogonalLoop=1;jettySize=auto;html=1;exitX=0.5;exitY=0;exitDx=0;exitDy=0;entryX=0.383;entryY=1.025;entryDx=0;entryDy=0;entryPerimeter=0;" parent="1" source="FuaRYOpQIYqmy_VIn2jc-53" target="FuaRYOpQIYqmy_VIn2jc-52" edge="1">
          <mxGeometry relative="1" as="geometry" />
        </mxCell>
        <mxCell id="4rB04aQ20s9kYNR3CybH-31" style="edgeStyle=orthogonalEdgeStyle;rounded=0;orthogonalLoop=1;jettySize=auto;html=1;exitX=0.75;exitY=1;exitDx=0;exitDy=0;entryX=0;entryY=0.25;entryDx=0;entryDy=0;" parent="1" source="FuaRYOpQIYqmy_VIn2jc-31" target="FuaRYOpQIYqmy_VIn2jc-34" edge="1">
          <mxGeometry relative="1" as="geometry" />
        </mxCell>
        <mxCell id="4rB04aQ20s9kYNR3CybH-35" value="" style="shape=image;verticalLabelPosition=bottom;verticalAlign=top;imageAspect=0;image=data:image/png,iVBORw0KGgoAAAANSUhEUgAAAg0AAAINCAYAAAC9GEyUAAABhGlDQ1BJQ0MgcHJvZmlsZQAAKJF9kT1Iw0AYht+mSkUqgmYQcchQnSyIijhqFYpQIdQKrTqYXPoHTQxJiouj4Fpw8Gex6uDirKuDqyAI/oA4OTopukiJ3yWFFjHecdzDe9/7cfceINQrTLc7xgDdcKx0MiFlcytS5BVRmiIk9CnMNmdlOYXA8XWPEN/v4rxXcN2fo0fL2wwIScQzzLQc4nXiqU3H5LxPLLKSohGfE49adEHiR66rPr9xLnos8J6ilUnPEYvEUrGN1TZmJUsnniSOabpB/YWszxrnLc56pcqa9+QvjOaN5SWu0xpCEgtYhEwZqaiijAocxGk3SLGRpvNEgH/Q88vkUslVBiPHPDagQ/H84H/wO1u7MDHud4omgM4X1/0YBiK7QKPmut/Hrts4AcLPwJXR8m/UgelP0mstLXYE9G4DF9ctTd0DLneAgSdTsRRPCtMSCgXg/Yy+KQf03wLdq35uzXOcPgAZyip1AxwcAiNF6r0W8O6u9tz+rWnm9wNVPXKbfX+XTwAAAAZiS0dEAHQApAChirGbsgAAAAlwSFlzAAAuIwAALiMBeKU/dgAAAAd0SU1FB+QMDBQhKRslJ64AAAAZdEVYdENvbW1lbnQAQ3JlYXRlZCB3aXRoIEdJTVBXgQ4XAAAgAElEQVR42uydd3wT9f/HXxmXcUmTNE3SvRdtKWVYyi5DhoIKigNEBAVERQUn+hPFrSCignzRrxMVBAUFEZW9KatA6S7du01H2mZekvv9kTRtaIvyFWmBz/Px6IPmcj2Su+Tuee/P+/3+cEAgEHocLMty/mKV1ud5ADxycnL6HzlyZMqxY8eGpqam+peWlspFIhGl0Wjg4+Pj+tFoNPDy8oJcLodYLAaXy4VOp0N5eTmKioqg1WphsVggEAggFApBURRomoanpye8vLyg0Wjg7e0NHx8fqFQqmM1mZGRk4PTp08jMzERVVRXkcjkiIyMRFBQEsVgMDocDhmEYgUCg8/b2Lvfx8TkSEBDws0QiSQXQDMDW+rZdb47DYcmngEDoefDJLiAQeowcuETAYDAITSaT0GKxUAzDcK1WK4dhGI7FYoHRaORotVpOeno679ixY/SRI0d8a2pqhgKIBqAEQLdusLS0tCe9Xdr5+qIBDPXy8kJYWFhlVFSUPioqyhodHW2LioqyREZGmlmWNQOwO0WiU4EgYkEgXH04ZBcQCFc9asBx/nBzc3OFO3bsEKWkpFB5eXn8kpISQUNDg9Rms6kBeAGQAqCcEYX2cJ3LJQB8nBfisHbSQPXAXcEAMACoB1AAIAdAFYAmAFYAJgAtAOp8fX1rIyMj9eHh4ZawsDDW39+fVSqVdoVCYVcqlYyPj49ZpVKZORyOjUQoCAQiDQTCdSEGLMtyS0pKhNnZ2cLz588LsrOzuTU1NTytVisoKiqSVFZWtsqBDIAIgBCAHID6bwgAz/k3Uue6sh4sDBeLQ5NTHlqcsmC7SCpqAeicy+zOn9Z1WgDUicXimoSEhOZBgwaZx44daxkxYoRJKpWaneuxRCIIBCINBEJPkwQOAJ7ZbBbm5eUJdTqdoL6+nnv+/Hne7t27BSdOnJDo9fr2UQORM0rQlRwIAYid64rR9RBi++VUu793CQOXR4HDp8DhC8DjC8ETikEJJaDEcghkKtBKf4i8/CGQeoEvloHL5cJus4HR18Okq4G+tgiG2mIY6stgrCsHa7W0nTi4PIi9/EHRCjCmZpi0ZbDbmMsRh1ZBaP0ja7t/jU4xMDof27qIVtQCaIAjL6KJz+fXDRgwoDo5OVk3bNgw45AhQ4xeXl5uEkFEgkAg0kAgXHVJMBqNwjNnzogPHjwo3r17t/zw4cPeZrP574oBz3nR70wO+O0u/m4RA77YAwKxHAKpJ4QKb0g0YVBGD4EsMI4SSr3AF9EUlxKBwxeAy73y6Uo2ixFWUzM4LMD3ULr/H3Yb9HWl0FcVwKKrBmNsgs1uA+w2sHY77OYWWIxNYPSNrXLBWFrq0ZB7gjG3aLuSiouFAp2IRbMzUtEqEpXOfxsA1ERHR1cNHjy4OTEx0ZyYmGhJSEgwCgQCV74EEQgCgUgDgXClZYFXV1cn/PXXX+mDBw+Kjx8/Ls/JyfF25h2onELge5ligM7kgMPlQeodQSlCE6CMGARFxAB4+ESCknqBw+ny60pdw/uXMdQWgTE2gcPhgMOnwOOLYLOaYKotZRoKT6OxIBW6kvNoqSkEWLYzsbC2E4kGAHqnUNReHI0QCATa/v37V4wYMaJxwoQJLcnJyWYul2slkQgCgUgDgfBPRIEDgJeZmUm/9dZbyh9//DGQYRhfpySonJKgdgqBBIDnX4kBh8uDV8QgeEbcBHloP0i8Qym+UArWGdanpEqIPP3A4wsochRcYtAW6bBaYGnWwtxUi5aKXNTlHoU24wCjK02/WCSMl4hG1AIoB1ABoMrb27vylltuaRk4cKCpT58+5qioKJNarW4d0gCRCQKBSAOBcElRaG5uFm3dulW6bt06r927dweyLBsBIBRAABzDDRdLghidDCeIFD6QBcRQsuAEqHsNhyouGZRYdl1ECHqSWDD6BtTnHoeu5BwM2jLGrKtCS00RWiqyGRtjvjga0QSgEY4kyxo4qjcanEKhA1BLUVStXC5vEYlElvDwcOudd95pue+++8wajYYkWRKINJBdQLgB5aD955/DsiwvIyNDuGfPHukff/yh3Ldvn6/ZbA4A4OeUBV84yhpbKxz4uKhKQeIdTql6DYNnWH/IQ/tC5tcLlMSTiEE3RidsVgsaC0+jLvMgU5t5ADWZBxlnMqfBGXnoKi+itXLD7FzWwuPx6oYOHVp9880364YNG2ZMSkoy0jRNJIJApIFAuI6jCNyamhphenq6KD8/X5CXl8dPS0sTnjhxQtLQ0NAqBn4AguAYevBy/utxcTRB6KGm1L1Hwjv+Zqjjx4BWBRE56OEiYTXrUZu+D9Vnfmdq0/ehufpCV3kRrZUbZrhXa7QmWWr5fH5t//79q5OTk3WjRo0yJicnG2maNoEkWBKINBAI17Qo8LKzs0Xff/+99Oeff1ZkZGT4wZGTIHVGC1orHHwAaJy/K9pFFWgAlNBDTal6DYFXzAio40ZCFtibukRiIuEakAhGX4+GgjNoLDjFNBSdRUNhKgzVhReLBNB1kqVLIoRCYc2YMWMqbr/99oa77rqrRaVSmQDYiDwQiDQQCNeAKDQ0NIg2bNgg/frrr5UnT570hSMfwQ+AvzN60KEvgkCiFCtCE0RSn0ha7OlLCeQaiJQBlCwgBhJ1CIkkXOcS0SoSjYXn0Fh4hmksSkVD/im0VBcAnSdZtkqEzikRJQDKBQJB2eTJk4sfe+yx+uTkZAOcQxhEIAhEGgiE7peE1s8xr7CwUHTgwAHpb7/9pvz111/b5yW0H25ojSLwAUAe2JvvP3gq5TvgNqpd9KC9IBBZuMFFQl9TgIqTv6LyxM+MNvdo++fbS0RrgmUdHNUZeQAu9OnTp2ThwoX106dPbxYKhST6QCDSQCB0UzSBW1BQINq7d69479694oMHDyrKy8tbcxK6EgURAJoSyxEweCoVPHo2lOEDOxMDIgqETkXCUF+OipTNKD/2I+ouHGcukozWBMt6OKoyKgEUAijTaDQljz32WPH8+fPrvb29SfSBQKSBQLgKosA7fPiwaNOmTdLt27crCgsL/eDIQ2jfYMkXneQl0OogyrfvrfDuP5FS9x4JHl9IJIHwjzBoS5jy41tQeeIXaPOOASzLXBSBaIZj2MIVfRAIBBemTp1a+sADD9QlJye3iMXi1nk3SAUGgUgDgXAFZIFXXl4u+uqrr6RfffWVZ0FBgT865idc3DtBBA6HVvUaTvkOmASfvuMoD/9YIgiEf08g6stRlfobo03fi9rsIzDrqplOog91cOQ9lAAopSiqIiEhoSoxMbEpMTFRn5iYaIyNjTVzuVwiEQQiDQTC5UYVjh49Sn/00UfKLVu2BFut1gA4hhy6yk8QA6A8fKOpkFGzEDBsGiX29COiQOgeiagtZmrT96Is5Sem+vxuxhmFaB990MExfOGqwABQK5PJqkeMGKG7++679dOnTzfw+Xwzh8Oxkz1KINJAIHQSVbDZbKKff/7ZY8WKFcqUlJQgABEAIp1RhQ75CQAovkAM/8H3IHjULEoVPZSIAqEnwRi0JSje/zWKD3zDGLSl7aMPnZVxljv/rYmJiSn64IMPSiZMmKADYCVRBwKRBgIRBWdUITc3l964caPyiy++CC4uLg6CYwiifTdGZXtRAABFUDwVMmYOAoZNg4BWEFEg9GzsNqY28xDKT25h6nKOoqk0g2EdU35eXMbZ6BSHAgCpkyZNyl25cmVNRESEHqT6gkCkgXCDCgPXarWKVq1a5fHFF1+oMjIyAp0RhfZRhQ7dGPkSBRU09D4EJ8+EZ9hNRBII12T0AXD0hCg7uokp2PUpdKUZrcsNToFoHcbIBpAhEAiynnzyycKXX365Vi6XG4g8EIg0EG6k6AK/sLBQPmPGjOCjR4+GOyMKrRNCdYgq8IRSym/ArQgYfC80fcdRF1U+EAjXvEBosw7iwh+rUXlyG8Oy9tblTXDkO5Q5ow45Xl5eOS+99FLhY489VisSiYg8EIg0EK5rWeCZzWbJhx9+qHn99dejDAZDfwBRcAxBtJZNiuHIU6C8+99KBQ6aCu9+t1A8AU12IuG6R19bxBT8sRqF+76C1djcGnkwom1GzgIAOT4+PjlPPfVU4axZs7Q+Pj6k7wOBSAPh+pIFi8VCf/PNN+o33ngjtLS0NAZAHIBeaBuCkAGgvPvcTAUOnwG/m24DX+RBhh8IN2b4wdiEkgPfMgV/fNI6sdbF8lAMIJvH410YMWJE6d133103bdq0ZoVCQbpOEog0EK5JUeAA4J04cYLesGGDasOGDaHV1dXRAKIBhMExFKEBQHO4PCpo+AwqavLz8PCJJKJAILR9l1Cbtpsp3PMZKk5vZ1i7rVUe6gFUw9HzoRBAGU3TJXPnzi1+4YUX6nx9fcnQBYFIA+HaiCpYrVbRxo0bPVasWOF15syZQDjKJnsBCEbbbJJiLo9PByc/SEXd8TwkmlAiCwTCJbDoapiy45tRlrKZ0WYfMoBlL+46WQwgVyQS5c2bN69g8eLFRB4IRBoIPVcWzGYz/eWXX3q99957F5dNBgHwhjNngcMX0KEjZ1NRdzwHWhVEZIFAuDwYQ20xivd/zRTs+owxN9dePOdFAYAcsVic/eSTT+a/9NJLWplMZiBNoghEGgg9Qhaamprozz77TP3BBx+EVFZWRsKR3BiMi8omeZSIDh0zh4q47RnQSn8iCwTCP5QHm8WAor1fMdmb32LMLVrGGXmoh6NJVD6ADLVanf7mm28WzJkzR8flchkSdSAQaSB0iyyUl5fTH330kfqzzz4L0el0vdCWr+BWNsmXKKiwMXOoqFsXQiDXEFkgEK6wPFgMjcj+6Q3k//EJw7J2Qzt5KACQAeBM3759sz/++OPq4cOHtzaTItUWBCINhH9VFDgAeKdOnaI//PBD1aZNm0IZhonuRBY8AFDquJFU6MjZlO/AyeAJxEQWCIR/mcbC08zZ/z6O+sLU1oqLBgAVAPIApAPIve2220pnzZpVN3LkyBalUumaZZMIBIFIA+GKRRXMZrNw06ZNsjVr1rSfE6J9cqMSgAdf7EGHjppNhY57FFLvcIC0diYQri52Gwr3/JfJ2LiUsejrW+WhBu7VFhUcDqcsPj6+/I477qh/5JFHmvz9/cnkWAQiDYR/JAxcm80m/s9//uP11ltvhVRVVbXOMtkhuVEo09BRtz9HhYyeDUosI6JAIHQzjL6Byf31A+TvXMM4G0U1wb3aosopECVisTj/tddeK37mmWd0XC6XTI5FINJAuOzoAv/kyZOKRx55JPTMmTOxcDRjCoajXNKV3Mjh8uiICQuomLtfIc2YCIQeiNXUzFSc3IbylJ+Y6nM7GbuNaa22aIJjSu5KALkAUvv375/79ttv14wfP55MjkUg0kD4e9EFs9lML1261Hv58uW9bDbbTe2EwROAFM45Ibz7jKX6zFwOD/9YIgsEwjUQfDDWlSFj0ytMycHvgLYuk26TYwHIGjBgQOEzzzxTe++99xq4XC6RBwKRBkLn0YVDhw4p5s2bF5adnd0HQF+nMPg5hYHicHmUf9IUKnLS02SWSQLhGpWHmvN7kfr5fBhqihi0za5Zg3aTYwHIjouLK1ixYkXd+PHjSZMoApEGQluiY1lZmWTx4sWa9evXx7As2w9AH7QNR8h4QikVNnYeFTHhcYi9AoksEAjXOFazHtlb3mLyf18FG2PucnIsANn33HNP/urVq7VqtZo0iSLSQLiBhYGr1+vpZcuWqd5///1wg8HQmrvQq110gfYbOJlKmPUhxJ5+RBYIhOsMY10pcrcuZ4r2f9VeHjo0idJoNOe/+uqrwltvvbURAEmWJNJAuJGiC3a7nf/1118rXn755bDKysreTlmIQruJpDy8I+i4+9+FX+LtRBYIhOscU2MVcrd/wBTuXAsbY2ovD7VwzGuRAeDUggULspcvX14tEolI1IFIA+F6lwUAvF27dkmeffZZTVpaWgyAfk5hCIOz14LEO5zuNXkxFTh8Org8iggDgXADYagvR/ZPrzNF+78GWPbiJlEZAFITEhLSNm7cmB8dHa3jcDg2steINBCuQ1nIysqin3nmGfXvv/8eCiAGFw1FCKRedPz0t6nA5AfA5fKJLBAINzC6kjSkf/8iU522qzVZsgmOfIcCAKclEsnxVatWZc2ePbsBAJnTgkgD4ToRBm5zczP96quvqlatWhVutVrbzxHhGorwCruJSnzmR4pMJEUgENpTm76PyVj/YvvW1K1VFqcBnBg7dmzmypUrq+Pi4khvByINhGs8usDfsmWL4oknngitqKiId0YWwgH4O2VBDIAOTn6Q6vfwKnApEREGAoHQ2fkE5cd+ZNI3LWEM1YUMHEmSFQCyAKTxeLysOXPmFL7xxhu1arWalGcSaSBca9GFhoYGes6cOd5btmzpBaB9g6bWbo40X+xB9ZmxHCGjHyKyQCAQ/hKb1cwU/LkW2VveYhhDow4X9XaQy+XZS5cuzV+wYEEtn883kkRJIg2Eni8MvPPnz8vvuOOO8MLCwj4A+sO9QRMtlKqoqNufRcjoWRQlUZKdRiAQLgtLs5bJ2PgKU7jn8/a9HVrLM9MSEhLOf/PNNwUJCQlNJFGSSAOhZ8oCBwD/008/VSxatCjOaDQmARgAR+6CBoAMAKXpPZq6acE3lEjuTXYagUD4JzDanMM4/Z+5jL46v315Zj6AVJFIlPLFF19kTp8+nVRYXEfwyS64LoSBe/LkSXrRokXeR44ciQMwyCkMrkRHDpdHxUx5Eb3u/D8KXB7ZaQQC4Z9CqaKHYcx7p5C+/kV5wc61FAARHPPTSEwmk3jGjBlUVVVVJsuy9SANoUikgdAjhIG3ZMkS2dtvvx1mt9v7om04IgiOvguUzD+GSlzwDSUP6Ut2GIFA+FeiDrXp+3H680cYQ3Vha1+HQjgqLFIWLFiQsXLlymo+n08aQhFpIHSnMDzzzDPyDz74IAbAYKcwRKFtOIIOGzcffWYso7iUiOwwAoHwr2I165mczW8ib8fHBruNaa2wOAcgNTk5OW3Dhg35vr6+ZLiCSAOhO4Rh2bJlihdeeCEOwDAASQAinMJA88UeVP+5a6mAwXeTnUUgEK5q1EFfU4DMja8YSo9uMjjFoQDAabVaffzLL7/MmDRpEpm/gkgD4SrJAgcA/6OPPlIuWrQolmXZVmGIgrM6witqMHXTo19QEp8IssMIBEK3yUN9zlEm9b+PGprKs9o3hEp5+OGHM1esWFEll8vJcAWRBsK/KAzcuro6euHChT7fffddLIChAPoCiASgFEiUdOzdryJs7DyS7EggEHqEONisZibjhyXMhd8+rAdQAiAbwGlfX9+0FStWFEybNo1EHYg0EP6N6MKGDRsUTz31VFhtbW0fOKojegMI4nC4srBx8+mYqUsgkHqRRk0EAqFHiQMAlKf8ZDi15iGDjTFVwDFrZhqAM0OGDMl6+eWXayZMmKDncDikkySRBsI/jS5UVlbS8+bN896+fXtrd8c+cHR39KPVQfKkBd9RnlGDiCwQCIQeLQ912YeYI+9NNlhNza2zZmbDMXNmVt++fQs//vjj2uHDh5M21EQaCP9rdGH9+vWKBQsWhDU0NPSBYyjC1d3RwyeSHvbyn5TYK4AIA4FAuDbEIe8YjrwzyWA1Nref/KoAQA6Hw8l+/PHH81esWFErEAhIG2oiDYS/G13Q6/X0Y4895r1u3bqLowsaADJFUDw9ePGvEHv6EWEgEAjXlDg05J/EkWWTGUtTbadtqAcOHHh+y5YtBf7+/qQNNZEGwl8IAy8tLU127733hmVnZ7dv1uSaOyJ45CwqYdZK8IUSIgwEAuGaxFBbzKSsvAeNhWdap9x2a0Pt5+eXsnnz5sxBgwaRvg5EGghdCcN3330nnzt3bozJZOrQrIlWBlB9H1pF+QyYSGSBQCBc89gZE9K+e54p2LkWTnFo7SZ5AcApgUBw+J133slctGhRPYfDIRUWRBoI7YXh/fffVzz33HMXN2vy5HB58ogJC6iYu18BX+RBhIFAIFxXVJzcxqR+Og8WfT3TThxcbajHjh2bsW7dumofHx/S14FIww0vCxwA/OXLlyuff/752HbCEAXAUxUznO47+yNKFtibyAKBQLhuMdSX4/SaWUxtxoHWqENrX4cMAKmBgYFnd+3aVRAdHU3yHIg03LDCwLXZbPTixYu933///fazU0byhFJl/PS36NCx88HhcHqsMFgNOvBpOTmYBALhn2O3IXf7SiZz0yuw26ytwxUVAHIBpIaEhBw7dOhQVkBAAMlzINJwwwkDr6KiQj5jxozwffv29YEjfyEBQJCHXy9Z0jMbaZlfDAD0OGGwtNShcOdaFB/eAM/geCQ+tYEcUAKBcMVoLDyNkx/PZJqr8lqHK2rgyHM4HhIScvjnn3/O6Nu3byMRh6sPn+yCqy4LHAD8zZs3Kx555JG4urq6JGd0IQyAn3ff8XTSU+vpnpq7UHJ4Pc6vew7m5loAgKmpBna7FVwu+SgRCIQrgyJ0AEa9k0Kd+XQeSlM203Akg1MAeEVFRbykpCTe8uXLM1mWrQdpQU0iDdexMHC1Wi39xBNP+Pzwww+xaBuOCACgCRoxg+4/71OKy6OoHvjace7LJ1Cw+zN36xR5YPTbxyD1jSIHmEAgXHFyfnmXydj4CtCW55AHZ4Lk/PnzM1avXl3N4/FIgiSRhusvurBx40bFE0880X7uiF4AggAow8bMpRIeXk311PyFs188gYLdn7oey4MTEHPXEvj0HQcuJSIH+fr83KK5LAO6knSYGyphZYzgU2JwRRIIJJ7gCcTgcLgAywI8Pmgvf8j8Y0AmSyNcacpTfmJOrZkNG2M2AGiCI0HyHIDU22677eyGDRsKJBIJSZAk0nB9RBcqKyvp+fPne2/btq3D3BEA6MhJi+j4+98DemD+AgBosw7i4Os3ux7H3f0Koie/SC4OPQw7Y4KpsRr66gK0VF+AvqYQhtpiGOvKYGnSwsZaQYk8IPL0hUjuDUosA48SOv7WZoXNYoLVqIO5pR6m+nK01BTDZm65rNfAF3lA7hftSI7lciCg5RB6BULs6Q+Rwhu0JhjywHjwRVJywAiXdx7KOYKU96cylpa6DgmS/fr1O7Zjx44sHx8fkiBJpOGaFgbetm3bZLNmzQpraGjo2N2Rw6ETZn5AhU94vEeXUx5bPgWVqb85Iwx9MObdU67nWipz0Zh/Gg2FqbCZDZCH9kNQ8gPg8YXkA/BPJcBuRWNhKhryTqKlIgcttYUwN1bDamyC1WyAzWKCnTHBbmPA2q+d8ySHw4XUNwpSTQg4fAosy4KSKODhHQYP/1goIpNAK/3JB4DQAX3VBRxdfifTXJHdIUEyOjr64MGDBzM1Gg0RByIN16Yw/Pzzz/K77747xmazdejuyBNK6YFPrIPvgEk9vv/C/pcGob4wFQDA5VHwT5oCDocLbdZhGOrLOqyvihqKQc/9BIHUi3wQ/iYtlbloyDsBY2MFTA1V0JWmoyH/NKym5htyf9CaEGjiRkHTewzU8aMg9FCTD8l1zKE3bgbLOnIZxXLNJSuyrKYWpK17lina92X7RlC5AI7Hx8cf2LNnT7parSbiQKTh2hKGkydPypOTk2ONRuMItOvuCEBOq4Opwc9ugTwo/ppo2HTqPw+h5OB3l/U3oWPmoN+cNeTD8BeRhIqUzcj/cw3qco9d3YuypwAeKiGEcgpcHgd2hoWhwQxdlQmMsYedazkcKEP6QZMwDur4MfCKTCJ5NH+TjB+WwGYxAAB4AjHi7nuz0/UaC0+j5NB612NNn3Hw6Tu+03UvbF/pdrMQd98b4Anof/Q6t0wXOnJjANCqQExYlf+Xf1NxfAtz+rP5DGNoZJwRh1w4SjIPrF+/PmPw4MGkJPNfgNTJXXlh4FZUVMgmT54c4xSGIc4IgycAWhUznEpauIESyjTXzHuKnvIiKk5svay73qJ9XyFm6isQKXzIh6JVEhgTWqrz0VyRi8aCVJQe2whDTdEV275ITkHuJ4ZUJYRYygcl4UEgpiCQcCGSUhDJ+fDwFkHhL4aA7vqrr681o6HMAH29BRaDDXaGdd0FcjjO+wwuB1wuB+CwYO0sGJMdFr0NhkYz9HUW6LUWNDeYYGm2As7Ttt3Gwm5n/5cvFeoLU1FfmIrsX94Fhy+AzD8GYi9/CD1UEEgUEEgUoCReEMrVEHn5QxYQB0osu+E/c435p1CdvqedzM8FrQ7usF7JofW48Puqts9AZV6n0mCzWpCx6VXYGJPjAu8dij4zV3TLe/NLupOSBcbh2PI7qeaqPNcJtaioiDt8+HDekiVLMu12O5mzgkhDjxYGjtlspu+8886wioqKwWhrB60BQIWOmUP1mfUhxeMLetxrN2hLUJGyGcaGCtgZM3wT74AmbiTA5cHDJxIjlu5Fysp7YKgudNy1CGkoghOgjBoEVfQw0KoA5G5dhtKUzY59YbeB0dffsNJg0lWjPjcFjYWpaCpNh640E4aaQrDsP6sK43AAmQ8Nr1AaXsESeAZLoAwWwzOQhlByZb7OErUQEvW/k5NiMVhhbGSgLdSj7EwjCo7WQVdpuLzvmdUCXfE56IrPdbkOl0fBN/F2hI2dD3Vs8g17TlLFJbtJgzbnCII6kYba9L1uj2uyDsNmteDic5Wu6IxLGABAEzuyW9+f1C+aGvnmIebIW7fS9YWpGuc1jbLZbMKlS5d65ObmZnzzzTfVLMuSkkwiDT1zfz7yyCPex48fb016bJ1wikqY+QEVNv7RHjccYTU1I+eXZbiw40PYGLNref6utaA1IRjy3M+QBcRBEZyACR/mwFhXCpvFCKl3eIfqCVXvMS5p4PL4EHiobpgDb2nWovL0b9Bm7kdd7jG0VBf8420KpXz4xsmhifSAKkwCzyAangE0+ELuNbufBDQfApoPuZ8Y4UNVSF4QgaYqE2ovNFkZ0TsAACAASURBVKOx3IQWrQmGRgaWZiv0DRbUl+hhNV3+ud5uY1CeshnlKZvhERiL8HGPIWj4/eALJTfUCUkTOxIZ7R7X5xxD0LDp7p9dXQ10pRnuEQVzCxryT0IVPdRteV2O+zCaqgcIGSVRUkNe+o3Z//JQ2vm9iwEgASBfv369uq6uLm3Tpk35LMuSPAciDT0qysBbtmyZ8ptvvolDu6RHSiynBy7cQHn3ubnHCYPNYsCRdyZ1OZ5uqCnCwaVjMGTxVigjkgAAYq/ATtdtqchBxg9LXI9DRj2Ea2kI5n/CbkNNxn4U7fkvKk5tg91mvexN8CguFL4i0EohaKUAMm8RlCESePeSwjOQbhsOuI6R+Ygg8+k8R4G1sdDmt6D8vA7l6U2ozGxES435srbfXJqJs18sQMb6/0PQiPsRMvphyIPib4jzkjx8APgiD9fQYl3O4Q7r1GTs7/Rv6zL2dZCG+pwjbo/VcZ1HGox1ZWgqSYe+thC0VxCkAb0gVYf8rTJtDq8tuqGvuoD63BRwBSIoIwdB7BXQuYxKvahBz27GvpeH084y4TAAIgDqP//8U9WvXz/Jt99+m8WybAMAhgxXEGnodmH47LPPPBcvXhwLYCgcc0j40coAesiLv1KygLiel/Bot+HkqpkuYeCLPBA8cib4QilKj26AobbEcReir8eRtydh5NtH4eET2al45G17Hznb3neFLT18IhE79ZXrzxEYk6OqIe8k6rIPoib9AMwt2suPIMgoxI33RczNGqjCpeDwSD5y1xcQDtRRHlBHeaDvXY5lpiYrmqqNsLRYUZuvR1laI8pSG2DWX1raGKMO+X+uQf6fa6AI7YfAwffAp/8t8PCPvW73H5dHQd1rKCrP/gEA0JVmgNE3gJJ4utapzWyTBnlgnCvqUJ2+H9F3vuy2vdqco67fPXwiIfb0c3teV3Iepz+ZhcaS8x0FJjgBAx75FIrQ/pe+KImksOhqcPjdSWgsOuv2XMDgu3HTo190mggrC4jDoKc3USnvT6FtjJmCo++NGIC8oKBAPmzYMMWUKVMyn3rqqWqWZfUAbEQe/ofvJNkF/0gWOCzL8l9++WXl22+/HQtgBIDhAKJECl+vka8fpGh1cI+skKg4vgUpH97nuIhJVRj5xkFIfCIcomBoxIH/G4rmqjy3yEH/eWvb7jguHEfJoe9Rfmyzax4KAJD6RmH4kl0Qe/pe08fWUF8OXXEamkvPo6kkHbqS82gqz77sfghCKR8KfxqKQDHU4VL4xcrhHecBHo9LvkBX8rtoY1GZ1YTClHoUpdShNv/vJ+0KJEooQhOgjBwM737joYwYdF1FePJ+/QDn1y92PR78/Fb49rvF9Xjnwl6u4bTe095G+oaXHBcHvgC3f1HjqoxorsrDrkVxrr8LGzMXfed84npccng9UtfOhd3GdH3B4XCR9NR6+CXd6ba8ffVEa0v6lsrcTrehjh2BYS/v6vIY1abvx9H3JzM2s4EBwMDReroCQBaANACZN998c/66detqfX19jSTXgUQarpYwcA0GAz1z5kzvzZs3xzkjDAMAhPEooWzgwvU9VhgAoPL0r67fg0fPdgmD3W5Fzs/vuglD+ITHET9jmdvfN5dlo2DnWrdlfgOnoN+c1ddsTb2lpQ75v69G8f5vOu0/cckvkoALvz4K+MbIoQqTQBEohtxbBIGUfMWuVkTCr7ccfr3lGDonFPpaMwqP16HwRD1KT9fDYuha9iz6etSk70NN+j5k//w2aE0Igofdj4Dh0zuNrl1rqHuPdHtcn3PEJQ2G2mK3/JuAYdOQvfkNWC1GsFYLtNlH4d3H0Q22Ptt9aKJ9PoOlpQ5nv17YJgwcDnwTxsPnpttRc+5PVJzeDtZuA8vacfbrRdDEj3F0De2EVlmg1cFQBPdBc1m22/moNvMgqlN3wGfAxC7f75Bnf6GOvDsRdhvTGnEQAZAC8AUQunv37rTBgwefP3DgQAHLsqT9NJGGf10YeKWlpbI77rgj7MyZM61JjwkAgniUSDb4mZ9oVfTQHt2DoTbroOt3Ls/xUi3NWpz4eAZqnJnUPEqE/nPWIHDEDIdQ2BjXusEjH0RD4WkU7FwLqW8UYqcuQcCQe6/J42mzGHBhx8fI3bYCjFH39788Qh4iR6gRNUqDoAEK8ASkrXZPQaIWovckP/Se5Ae71Y6q7GaUnm5AeZoOVdm6S0qEoaYIWVveQtaWt6CKGoKwsY/Ad9Bd6IlVT38HRXACKFoBxtAIANBmtw0x1Gbsc/1OqwJBK/2hCL8J2qxDrudbpUHbbmgCgKO6yknW5jdh1Te6Hsff/x4iJy4E4OjZUrz/a5z+dB4AwNRYicI9XyDytqe7fM0BSXdiwIJ14PEFYFkWqZ/OQ/GBb1zP5/62sktpaBWHvg+tolL/O791kdwpDzIAagA+xcXFqltuuUV06NChLJIkSaThXxWGlJQU+eTJk2Oqq6vbd3r0o2iFfMhzmymvXsN7fNMmscwbBm0pAKA8ZTN8b5qE4x9Og6G22Gn5QRi0aJPb+OPp1TMRPHouNPGjHSeGB95HwJB7oIoedq0eS5QeXo/MH5ZcVmTBN06B2HE+iBqjvmJljoR/Dy6f64pCtB73hjIjKs41ofRMPQpTtF1KhDb3KLS5RyH87nlEjJuP0LGPXHtVQVwe1LHDUXHKEV1sLDgJm9UMHl/oVmrpFT3EEUGIHtomDe2er2snDTL/GAjkbYnO1Wd+b4v6cLgIHHqf20vwS7wDZz5/3BWJaCo9f8mXHHP3Ky5J43A4iJ/2FkoPr3f9fX3uMcBuu2RiZcjoh1B+Yguqz+2kLhKH1qiDJCsrSzBw4EDs3bs3wxlxIEMVRBqurDD88MMP8tmzZ8eaTKb2nR41tNKfHrL4V0oW2LtHCUNj8TmUHvwW4PIRf/+7ruVS/2jUFTjmkGiuzMG+l4e6xhQ1vUch8cnv3IYZqk7/htKUzahJP4BRbx8DrQ4Gjy+4ZoWh6uyfyNy4pEOiVafnXC4H/n0UCB+mQvgIFTzUpBvhtQyHw4EykIYykEbvST6wMSyKjmuR9mslik/Udfo3Zl01Mn58DTlblyE4+UGEjZ9/TSVQqmNHuaTBxpjRWJgKr8jBbpUT6thRjn/jRiH7F8e5orHwDCyGRrA2xi3HoH2UwW5joHfebAAAVyDCGWdUwe17RIlcF/3myrxLOA4FqV+M2zKBXAOZfy9XgqXdxsCoq/nL3Km4e19D9bmdQNtkgLTz99YfFBQUmO688079iRMncliWNZHkSCINV0wYli1bJl+8eHFvlmWT0da4yVPmH0MPffE3SuwV0GOEwWrQIX3Dy67prPkSBeLue8M1vODTfyKKD33f/g0CACImLkTv6W+Dy237aOiKzuLU2jmOk2eLFtrMAwhKnnnNHcOWihyUp/yEkiMb0VyRfcl1BRIeQgaqEDZYhdBBnhB6UORLcJ3CozgIH6ZG+DA16or1OPV9CbL3VKGzPlxWixH5u9Y6+pioAuHhFw2JTwQUwQnw7ndrj00AVsW591PQFZyFSO4NU2NVmzT0dkiDMmoQeJQQNsYMlrWjMe9kh+TG9vkMxtpitwRhm9ngqtboCktz11VHIrmm0yRHocIHaFeVYawr+cv9rQgdAP/EO1B+cmvrovbyADhmG45PTU0t+/nnn6umTp1qBkCkgUjDPxeG559/Xr58+fLeANoLg0bmH0ONeHUPJfBQ9ZirirmpBgdfHeWWPGTVN0KbeRCa+DEAAP9BU6HauRbadrkNAokSQcPvdxOGurxjOPbeFFj09QAAr+hhCBzxwDVz7HRFZ1B+4hdUnPgFTeVZl1zXw1uI8KEahA1RIiBBAS6fVDjcaHgFSzD+pRgMmhWC1E2lyPi9ElZL5xFrg7bUMcSXttsZweAiaMQMxEx9BbQqqEe9L1lgbwilKleJsK4kDQKJwvU8rQ6CRBPqkCiBGMqoQajNOAAAaMg/0aEHiSp2RNv58aILPI8SQeh56U6wXfVbAADGpO90efvmcwD+9ky6/R7+BA0laa5utheJgxJAIICI5cuXZ0+dOrWBZVkLiTYQafhHwrBkyZJOhUEgU9NDFv+KniQMVlMzjr17u5sw0JoQhIycBY8A95BfwqyV2Ls40dXa2KKvx4FXkxE45F54+EahofA0yo795Fpf4h2OxAVf9/hyNF1JGkqP/ICy45vbnyg6hcvlIPYWH8RN8INvbzJXAcGB3E+MUQujMPihMGT8WYnMHZWoK9L/xbnCjuID61B6eAMCBk9F8KiHoO417G81NPq34XA4UMeNQNnxLQCAxqKz4Ik92qIMzqGJVjSxI13SoCs5D5vV0nb3HhTvltchVYeAwxeAda5D+4Rh7LKz//NrZQyNsDOmDr0YTBflHYlVgX9rewK5BslL9uDo8intW4+3nrNlcFRUxJw4ceLCd999VzNjxoxauGZMIRBpuExh+PLLL+VvvvlmB2Hg8AX0kKd/BK0Koq7Sa4GdMf7lbHLnvn7aNY01APSa8iKi73ypUyuXB8Uj6anvcWLVTFf40WY2oGjfVx3vVPxjMPT//uix4Veb1YyyQ+tx4c81l5yTwCULPA4ikzVIeiAEyhCafNgJnSKS8THg7kAMuDsQTVUmVGY0oeJ8I3L31cDY1Hk/AruNQcnhDSg5vAEihS+CRsxA+LhHL3l3fTVQx410SUNTaQYEUqXbc+7rjgJ+fM2xblmWmzSoLu4CyeVB5hvpagrVUp4DfW0RJOqQ//m1Vp39E36Jd7geNxafcysN5QmlEEi9/vb2xF4BGPHqHhxaOurixlMUHJMJRgFIfPLJJ+uGDx9+lmVZMkNmV+dOsgu6FobMzEz5ggULOggDOBw68bGvoIweclWEofrMH9i9KA5/PBmNGkdST+cXTosR5c6TAgAEDp+O2Hteu2QYzy/pLgx54VfwhNIuLq4UIiYuxMjXD/ZYYSg5vB67nuqF05898pfCoInwwPDHIjDnxyG4ZUksEQbC30bmI0L0GA1GLYzCnB8HY/TCKEi8Lh0iNzVWInfbcvzxZCROfzoPxrrSbnv9Xu3yGmyMyW1o8mIRUEQkus4JLVV50NcUtItKjOyw7cBh97edO+02nF49C8aGyg7r6YrO4vz3L8Bqarnkaz3//WLonBd3Y0MFUtfOdXvet/+Ey37/lFiGYS/9Ds+wAe2FgYKjqsIXQL+GhoYhU6ZMidHr9TKWZcn1sbOoFdkFnQtDQ0ODfOjQob2zsrLchQGg+81Zg9Axc66KMJh01dj5TLyrBloZMRAj3zjc6bqVp7fj2PttndYSF6zrUPrU9cmtCmXHfkTZ0Y0w6apBq4Lh4ReFqElPuxo/9TT0NYVI++qpv0y6Ekr5iJ/kh9jxvkQSCFcUq9mOc7+U4/SmUhjq/3pODB4lRNRtzyLqjuf+Mmr4b7Dj0SC35EfA0YFx3AfpHdY98t5tqD7750VXDA4mfV4NAa3oEF3Z/9Igt7t4nlAKZXh/iGRqGOurYNAWwVBfDgCY9EWN2zbad4R0v9DLO+2dMuadE5CH9P2f9oHNasaF7R8gb/tHrblaDAADHJ0jMwHsv/XWWw9s3bo1i8/n60l+gztkeKITYaipqZGPGzeugzBwuDy6/9y1CB754FXLYeDxBbC3s3KR0v9SL/6ii2rBX3x5LIDdBp5ADJHCBxG3PIGIW57o6ccHNef3oHjv5yg/ufWSbZ35FBf97gnCTdMCST8Fwr9zAhVyMeDeQPS7yx95B7TI+KMKpafrOrv+Oe/wzcja8haKD32HhJkfwPem267q61XHJaP0yEa3ZZouJp3SxI7qIA3KkH4dhAFwRCRvemIdjn98P5pLMx3v1dyC2syDl/0avfvcjObqfBiqCzsVhoiJC/9nYXCcU4WInvwiwsc9hswfX8OFP1ZTcCRFMgBCATTt2LGjYfbs2fXr1q0rcS4ntO4/sgvchaGsrEw+YsSIDsIgUvjQQ17YBr+bbruqSY88gRhCDy/U552AX/9b0fehj8EXStBclQfhRWN6LOxurZ1N2jKEjnkYHF7nF8zSg9+iYNen8Lvp9mvi+FSc3IaTH01H3m8rHZUQXZyZuTwO4m71w8TX4xAxXA2+gEQZCf8uHC4HqjAJYsZ5I+5WX4g9BGgsNXTZNIox6FB2bBN0xefgFT0EFH11knCZlgZUpv7mtizqtmcgC4jt5NwjROGez92WBQyb5uoQeTFCmQahox8GXyiFsbbY2YHS/TuqDO2PiEmLoOo1FJx2CaJZm990/T74mZ8QOXEhWirzYKgtct0Y0J5+iLv/HfSavPiK7AsuJYJ33/GQByeg8tQ2O2u38gAInDfT9rS0tCaWZev3799veu2110i0ofWzTnZBmzDU19fLhw0bFpuVlTWqvTAoguLpwYu3Q+zpS3Xj63NVLeRuex8ZP7yMmx7/2m34wWa14PdHg2FpaWtQE3X7c+g97a2OdzwWA/a+kIjmqjz0nfURwsY/2mOPTdXZP5Hz42uuZlRdQasF6D3WF/GT/UgDJkK3Y7PZkX9Ai9M/lKA6r+sJtPgiD8RMXYKw8Y/+7TLCa+L9W83QV12A1dQCodwbQpkafKHkMrdhQXN5FoQydYcZNa8k2qwDOPru7YzVYmQA6ADkAjjK4XB2bd269dxtt91G2kwTaXC7IHONRqN87NixsUeOHEkGMKRVGDx8IunkNw5CIPXq9rJKq6kFZz6di9KUzY6TjUCMEa8fhCI4wbVO4a5PceZL9yGGvrM/Qti4R92+iCnv39naKQ20MgDjV+f3uFJKfU0Bzvz3UdSk7+tyHQ+VELG3+CFimBdUkdLranZCwvVD+blGpG4uQ8Hh2i6HLmilPyImPY2Q0Q9d9sWV8M+pObcTR5dPYew2pjW/IQ/AYU9Pz32pqakZISEhOtJmmkgDWJblWK1WyZQpU6K3b98+Co6prWMAaIRSFZ385iFIvcN7RB8GY0MF9r6YBLOuuu1E4x2K0W8ebSs/stuw56VBHaoIAofei+Dk2bCaWpC7bRnqL5xok4oeFmkw1pUhf+d/kP/7KtgYU6friGUUkmaGoM8dfqQJE+GaoanShDOby5D+WzkYU+fXH6FUhYiJTyBs/OOgxKR3yFWVuxM/48RH0xnWbjMAqHFGHPYnJSUdOHToUBZFUTd8YiSRBpalHn/88aA1a9aMBDAGjtkqNeBw6GEv7qA08WO6XRiqzv4JeXAfiD19oc05jMNvjHPr0ObdZyyGvrDN1URGV5KGQ2+Mdxum6Aq/gZMx8MnvXe2luxNdyXlkbFyCqjO/d5mvAAC9J/pixPwIMu004ZrF1MLg/LYKnPmpDIYGS6frCCRKRN3+LCJuWdCh0RHh36Pi5Dbm+MfTwVotOqc4nAOw57nnntu/bNmyEg6Hc0MnRt7QiZAsy/I2btzo9cILL/RzRhgSAPgDoHtNXkyFjH6Y6ubXh9yt7yL1s0cg1YTAMzwRtCoIAokSVe3KDPXVBbBZLa4W0SK5N3z6TUDZ8S2wmQ1dbj9w+HQkPv51twuDzWpBzuY3cWrNLDRX5HS5nqc/jYlL49DvrkDwSHIj4RqGL+DBP16BhCkBkHgKUZPXDMbkPmRuY4yoSd+D8qM/wjMyEeJLVU4Rrhge/tE8VdQQe/mJn3mszeJKjDx27FjToEGDtN9++635Rk6MvGEjDSzL8vbt26eYOHFiH6PROBbACABhAOTquGRq6Eu/U+3nYLj6F1IzTq56ABUnfgEAaHqPxrD/axOF02vnoPjAOre/SXpqPfwHTXU9bqnIwblvnkZ12i73L4VfL/Se8R58+93S7cdBm3MYZ75Y4CrT6gzaU4CkGSGIv92XDEVcY6RtLUfOnhrX4yEPh8I/oa1k7+T6YhSl1LseJz8RAU2kxw23nyxGG059V4zTP5bCxnQctuDyKCTM/hChY+aSD9VVojbzAHP4nYkMa7XUASgAcFSj0ew8e/Zsmq+vb+ONmt9wQ8Z3W6e4njVrVpzZbB4BYACAIAC0h18vKmnhD90qDI6ThACNF061/wCD0deDkjhav/Z9aBWaS9LdWkafWjsPHgExkAXEAQCkftEY+uJvaK7KQ9XpHRBI5BB7+kHVe1S3RxeMdaU4//0LbnNbXIzIg4+bpoUgYYofKNHVCYqZmxlk7axGdV4LWqpNsJht8FCLIPMWIbCfAkEDPcHjEXH5u+gqTCg/39h23BvdI7u6MqPb8+Zm6w25nwRiHobMDUPcRF8cXJOP/CO1bs/bbQzOfP446i+cRMKslSRR8iqgjk2m+j+8Gqc/nSdzXh/MNTU1umnTpun37NmTxbLsDZnfcMMNT7Asy/v999/l99xzTyzDMCMBDATQC4CCVvrTI17ZTYkUPt0fAuJwYGqqQV3O0dYXDg//GFelBJdHwbvveJQe2gCbxTEEwdosqE3bg8AR94PXbgxUKPWCV9QgKEL6QuIT7lYf3Q37Hxd2fIyUlfdAV9R5y2cul4O+dwVg0hu9ETTAE7yrEF2wW+049J8C/P56BgpS6qDNb0FTlQl6rRn1xXpUZuqQs6caaVsrIFEKoQ6X9rjPtr7egrqiFrRozZAqheBwuz+QWHKqAZUZbQ16okZqoAxpu+AVHNGi5kJb87LY8T6Q+4pv2AuVyINC9GgN/PsoUFegh77ePd9BV3QWFSlboAwb0O1zWdwIKEL68sy6Gl5DwWk+HJF5fnFxsaG+vl576623tixdutT+2muv3VD75Ia6ZWJZlltWViZ74IEHYqxW6wi09WJQ8iUKesiL2ymxV2CPeb1Bw6e7Pa5smxMeACD2CsTAhevdJKC5+gJOfTILLNvzBJgxNuHY+1Nw/rvnusy18I6R4f7PE5H8eCRE0qsTDTE3M9j89Dmk/lQCK3PpiKNJx8BD0zNr6fd/nIeNj6Vi42OpMOtJSfm1TGB/T0z7bABuey0evjFyt+eaq/Kwb2ky0r55Goyxieysf5n4B9+HV9RgCo5pBMIADFi9enXCwoUL1SzLUizL3lDD/DeMNDhLK+n77rsvrK6ubnA7YdBweRQ99NnNrrB+T0EWEAd5ux4M1ed2wmp2n55XHZuM+Pvfc1tWlboD2T+93qPei8XQiCNvjENV6o5On+dRXAydG4b7VvWHV+jVDb3u/TDPLUQOAKpgKeIn+SFpZigih2tAKx2ioAikEdBX0eM+36YmKwqOaskZ/jqCw+EgfIQK967pj7tW9IV3jKz9CQ0X/liNXU/Ho+TQ9z3yJuF6gccXUklPb6JodRANwA9APwDJH3300aBZs2YFWa1WyY00udWNlNPAX7RokfeRI0f6AugPIAKOKVHpfnPWwKvX8G4Z5G8uz8SJVTMRPOx+hN36BC7OpQgafj/OO3su2BgTas7+Cb+kO93Wibj1STQWnELJkR9cy7K2vAV1n5uhih7a7Tve2FCJY8vuQGPR2S6jC+Ne6AWv4Ks/Tlt4RIucvdVuywY9GIJBs0LdpdPGIv9o3V+enFu0ZtQXGtBQboSA5sEzQAzvGI8um05ZWqxorDQCAERSCjJfkfNYs9AWNKM2rwWUmA9lMA1VuKTL7WT+UemWQKfNb3YrSVWFS8F1Dldo81tgtzvehzqirSEWY7Sh+FQD9HUWhA/zglTlHlGx21noKoyoL9KjpcYCWimAVxgNZdDVOW52qx31ZQbUFxhg1lvhGUjDK0QCsYL6y30rlvHh4d027NFUaULxqXoIaD6ix2g6CFhNTjNatGYwRhtolQAybyFUEdJuy2cJ7O+J+z7pj6ydNTj4SS5MztwPU2MlTq2ZjYLfVyH23jegSRhLrvL/AiK5NzX0hW04+NpYubnZlW8iWLdunUKr1ab9+OOPF1iWbboRukbeENLAsixv9erVitWrV8c5hcE1Y2XYzY9c1Qmo2lNxfAtOrZ0Lq6kZacVpKDu6Ef3mfwZ5UB/XOgFD7kX694vBso4LQsXJXzpIAwD0m7cWurJM6IrTAAC9prwIVeSgbt/3DbkpOLbyXpgaO06Ty6e4GDQ7DAPuCQCH1z0RvnO/Vrg97j3Rt4MwAACHx0HEcFWX26nNb8Gud7NRc6Fju2C5L40Rj4UhfJi6w3Pl5xqx9WXHzICe/jQe/C4JOXuqsWtZNqwW96ES/3gFbn4uGp6BbbMjGhsZHPo0H5l/uO/fn552F7THd4wAV+wYxvpp0RnXRWfGV4lQBkmwb2UuMv+scomHOqK/mzTkHazFvg9zO+0p4Bsnx83PRf+r0pf5exX2r87tdC6H3rf4Yvij4RB6uH+NS1Mb8eurjn3rEyvHfZ/0R0OZAb+9kg5toSNipwykXdLAGG04uOYCsnZWddj3DvGgEJGsxrC5YR3+r6sVeYgd743gRE/seD0L5efaqk7qC1Nx+N2JUIT0RejohxGU/EC3zKJ5PePhH0uNfPMQDr01QW6oKQIcOYGyHTt2eI4dO1bw22+/ZbEse923m77uQyosy3J3794tX7hwYRyAQQDiWoVBHpxA9Zm5vFuEobHwNI6vngmrqdnti7/vpUHI+GEJ7M5OiGJPX2jiR7vWqTzzh2N2yotDaAIag57+EbQ6GIOe/hGx97zmavbUXVzY8TEOvD66U2EI6KPA9C8ScdO0wG4TBnMzg5JT9W7L+t8bdNnbSd9ehQ2PnOpUGABAV2nAb0szUJRy6WZbDeUG7F2Zi9/fzOz0olV+vhHbXjwPG9MW7di/Kq+DMFyWuJ7TYf9HeTi/vcItUiGWt30tdi3Pxm+vpnfZhKgyQ4fNz51FU5XpXzlOO17PxM5lWV1O/pT+eyXWzT4Jo87S5TZqcprQUGbAlmfPuYQBAMQKQet5Ajtey8D57RWd7nsAMDYxKDrhiE50JxKlAHeuiEf8bR3nYmgsOoszXz6BP5/qheL9X5Nhiyu97zVh1JAXtlJ8sYccQDAcvX2GHz16NHnUqFExdXV1sut9qOK6fnMsy3IqKirErhyYpwAAIABJREFU9957b6jNZktCW2mljC/yoAYuXE91V6c1RegAjF2WCu+EcW7L7TYrcra+h90v3IS67EMAgMBh97ueZwyNqMvY38UHOhRjP8iAX+Id3brfjQ2VOPLuJKR9+6xb50oAoBUCjH2uF+76sC+Ugd17J1Sd3QK7re2kqgqVXPZr0teasf+THLfteKiECEnyctuW3cZi+6vpKD/XeMntpW0rd2zDR4TQJC/wRdwOYpH+W5skqMIlCEnygoB2F8TAAUqEJHm5froSs8P/zXf9n2531XLHxbTwiBYZO9ylRBUsRfBAL0i82iIRhloLNj99Dvo68xU9Rnn7a5G7r234SCDhIWFKAEYuiIQ6rK2fg77OjENru54K3m5jsWH+KTRXu4uNyDm00VBmROHxNqkTyigkTgvGsHkRiLvVFwo/x7Hsc7tft0mu200Cj4sxT0djcCdRMQAwNVbh9KfzcPTdiTA2VIJw5ZD5xVAD5n/eOp22Bo5pB5LOnj07+Pbbbw+z2Wzi6zk58nofnuDNnz9fXV9fH+80wgAASgB0/4dXUx4+kd364qS+URi6eDsqTm5D2nfPwhnyAgC0VObiwGtjED52PuLuewO0OgiG2hLH3eHJrdBcJBuuN8wXdOt7KjmwDme/fRZWvfvFkfYUoN/UACRM9u/2OzXXPr6onM1Dc/kCefi/BbC2m0MgdoIvxj4b7bqwnN1chv2r8wAAVosde1bmYObXSZfcZsKUAIx8IsJRdtvCYOfbOSg41la3X53TBEc+FpA4PRiJ04EN8065zaQ48ZU4iGR/vZ8tzioL70gP9J0aCGUgDbvNBqEHDzabHfs/yXdb/+ZnotF7kuP/tlvt+POdbFdOiK7SgOPrijF6UdQVOT42hsWhtRfcls34fCBkPo7j1PeuAGxdnOa62Gf+UYlBM0NceSGdvVcOF4if5I+QJCU8NCLwBI7j1FDoXs0TmqjE0Hlh7lGZdB2UgT2rHDTpwRDI/WjsXpENq7ljJKY6bTf2vnATEp/41i1iSfhn+A+cQoVPeBz5f3zSemcQAUB/9OhR7apVq+oWLlxYBuC6bDpy3UYaWJbl7N69W/Lrr7+GA+gDIByOxEcqdPTDCBg27aq+nqrUHTjy7iTsfjYBfzweitTP5rsiCX6Jt2Ps8nOInbrErb8CAOTvWosj792OsJvnuZaVn9oG2HvWsFlj8TkceuNmnFo7x00YJF5CjF4YhYd/GITE6cE9RhgAwNDgflcs/R9KKYva3Z3y+BwMnx/mdifa964At4hDfbEB2gJ9l9ujRFwMmxvmSk4USSlEjnTPhdCVG6/ofghN8sK9awcgZpw3vGM84NtbAQ6Hg8YyI3SVbRdTdZiHSxgAgMvnYvij4eBw20cGasDarkxIvL5Yj6Z2kQH/eIVLGFqJGu3t9riuoOWS27x1SW+MXhSFsCEqqCOkriROmb/7dnP2VuPYl0UwNbWd9/16yyGSC3rcua7XWA2mfToAmqjOO2mam2tx+J1bkL7hJdisZhCuDPHT36HkwQmtEQdP5zWmz9KlS8Nra2vp6zXacD1HGvivv/66BkAsHImPagC0Iiie6vPgB1ctj8FQW4zUzx5BTfpe94vNvi9RtO9L9JryEmLvWQqeQIxedy1B0IiZSPvuOVf7aACoyz0Go7YUHC4PrN0Gs64a2ryUnlEZUVeK9I1LUHp4g9skUxwuMODuICQ9GAJK3DN7iIkvSmazmi6vK6y5mYGxqa3DoVeI1BXWd7sr6atAfWnbxVdb0AJVWOdJg769PTvsL7/e7jMdWs1XtnvtsEfCXZUVbiJY6n73HdCvY6mpVCWEMoBGXYljXWMTg5Z6MzzU/3zYr7HMXY5atBZsXZzmtuz/2bvusKbON3qyFyEQRth7bxkOVAT3qFZrbdXavdtfh7ba2tqqndbaYW1rrV1ql7VqtVVx4J4MGSogyibMMAOBzPv7I6xLQAUZAe55Hp+W794k9753fOd7x3nVjWTyXFWkgGsX32frKzIgYK3XzpkPsSO/9ToRBHBpRy6SdubDZ4oEIxY4Dkh1z53CwlmAhd+EIv7XfMT/mk8Kl7WcUNb+DShNOoDQ57dC7D6SmvXvdsXN4mLUK7+x4laOhFap4DfPMe61tbU+7777bt7mzZsVQ9HbMCQ9DQRB0P/77z+zM2fO+EKf+OgAQMjiifgRS/9kMdj942JUyWU4+/EsA8LQHpl7P0LqTy+3/s23csbopX9h7MqDENp6t5GPqiIQ7bwL5alHB9zONw9/iyOvBaLwzO8kwsC3YmPBxlCMe87daAkDAAM3dn1F91ZhNUXk+DhP3PkqlG9O9mA0VHadsCcwN+SzHEHf2ZDOoMHMqfPnoaaDR4Nn3vn5cc25d3x+3bJvMZm01JYokHupkvSvKI0cBmuq7fodbeHW9aRPZ9Ix5+Mg8K3I56hR6XD1QAl2PBaPYxsySUmoRvcyZ9Ix+jFXLNoSDmuPzr0OddIMnHonCjf+/Zya9XsBJrZeCHlsI5q9DULoGx56b9261fXq1auCoehtGHKkgSAImkKh4L/88stu0Itw+KC5WiL8hZ/QX3kMWo0KF9bPQ31JFgB9k6jRr/6J6A/OwmPGS6R9s49+hxv/fkYakwRNxsT1SQhcvA5MLvkFYDdyLjxnLxswG2tVCsR/tRhpv7xqoOxo6y/Cki0RsAsQGf29IrIjT5aV0oZW/YI7utc6yM4Tms4/S2jInoGOSYukbf3c7pvJod9Ce4B2y/NoHdfe+fndlWfIlAWhDfeW/25VCnm70JiZPQ+P/TIKox5xBcfU8HuuHijBsc+uG/19beVugge/C8XYJ93AYNE7eUfqcOX3N5FhZAJwgxXO0Y+yHMc+2EIcrAG4abVa31dffdUaQ9CbPxTDE8y3335bkpubGwR9LoMdAH7Aoo9YtuGz+y0sIUs/jcqbl/QrRZEEUauPgWOqrwcXu4ahrvAayQOhqMg3+A4Gkw3P2cvgMG4Rrv32BgrP/wW/B1bDe+7KATNuU20ZLq2fh8qcRINt7pGWmPGuP5icwcFFhVYcMFj01lJDRYUKuRcq4T7W8s4+b8Hp4KnovORQ3mHlbe7QtaerK/GmAVlFWZJX3fWyzj0xclnbedPoel2K3oC4QzggeJ4jRj/m3KfnzOYzMeZxF4QvdMS1gyVI+rMA8nbnnXG4BKMfcTYgnMYGBoOOiCXOcI+yxNH110n9P1rPZfcHUDfUwP+hdQOeQD3YEfLkN6yqm4loKMvmQe/Z9o+Li8vfvXt3DUEQlUOpI+aQ8jQQBEE/ceKE2caNG30AhEBfR2vufe8Kvtec1/v1WMqS/m39f5uQ6a2EQd1QjQufzmslDDQmG6FPb0bwE191vcIyt0X4/7Zjxub8ASUMdcUZOPnOuE4JQ8h9jrjnvYBBQxgAvWCT/yxyrfvFn/NuWe/fHgIrDkwlba75qkIFKXcBALRaHfIvkfUZzPqi1JRJJhtq5d2HUjvmUuRcqDRIcqzMbYC8nT6DqYQPBqt3iI/YiWynvITKftMdYPEYCJnvgIe3jYR9IDmXo+JG/aC5x8VOAiz4agTGPesOBtPwutyM/RonV0WirugaNfPf1f1iilGv/AYak93ibfABMOLVV191q6+vH1JJkUOGNBAEQZPJZPyHH37YjSCIcDSLOPnNX8X3X/gBAPSriFOtNL3d6rxUP+kWXsXxtyNRkhILAOCb22HC6ji4THxSv9KtkraKOnUGrkgyYPaVXT+H0+/GGHhEmFw6pr/lry8RZAy+52L0I85gtdNCqMiW4/dnk5B5tBxVBQ1Q1WtQladA9lm9IuKvT8STPu8zhdwR9ejHmZA3exzUjVoc/zwLipo2EuIcYSjP3BswtSTnFaQfKoVOR0CnI1BdpIBK0X0SIZTwSBNmQ6UScV9ktSYfyiuacOSTTNJnAmb2XodYkT2P1KypNL0W53/Mg7ZDOESn0SH7nAxJOwt7/FvS1BrE/1ZgIFDF5jMNPEN3UspqVC95Og3hC52wYFMohDaGCaq1+Wk4sWosii/toWb/u4CZaygr5LEvWqop7AAEFRUVBb311ls2GEJe/SFzIjqdjrlkyRIbqVTaGpbwmfeWqc/977J6kzBoNUo0VuRD1VANM9dQ0Bmdf7WJjScqrp0CoE9azNq/ARl7PmjNAbDwHodRS/8gEYHk758F18wWYc9tNSrb5h3/Cck/vwyigxKlpbMJZq7xh9hl8MrV8s3ZiFjsgvM/tQkDycuaEPtR5yuvjmJLox52Qml6HQou65UlSzJq8eMDF8A3Z6OxRtU+PxR0Bg0TXvLok/Mwd+YDZ9r+vvBzLlJ2F0Gt1EGj1OKhLeGw6qIk71aY/rYP/vpfcquL/uqBYlw7WAyeGdtAIVJky0foA73XrplOp2HS6974/emE1lyThN/ykHG0BNYeQtAAyGVK1EgVUDVo4RgmRtiDPetSWy9T4fwP2Tj/QzZEtnyYOfIgELNRXahAaXqba5/BosPaUzgo73UbH1M8tCUCB9dea71fW99rSgUufrkQ/g+uHVBv5mCH66SnUXUzgZ9/8hdz6D3dYV9//XXZvffeKycIQjYUJKaHBGkgCIKxcuVK8eHDh/2gV310dp7wqLnfA2t6ZTbTNMmRuXcdii7shEJW2FopwDaxgF3EHDhGLoRVQAyZNLSrfCAIHa7+8Vbr3x5Tn4f/w5+S4ohFZ/9AWeoRAIDYPRyuU54dcLuq6itxeesLKI7fa7DNf6YtYl72GlThiK4w8mFnCMRsnPw6C+pull0y2Azc80EAdr+WgrKMtjbFHSdUFpeOia9495kKZvA8e31r73bH374ctKcQSniY91kwdr2U3Pp9BGF4fkIbLma+4wcGu3eTIC3dBJj8ug+p70R9uRL15X2nN1BboiDpU7TH5GXe/Z6s2pvgmjJx7/pAnPk2Byl7DD0z13auRm3BFYQ99yP6q8psiIEV8uQmtaI8h1+RftoOQABBEFUPPfSQ/NKlS6lDoTfFoH/jEwTB+PHHH83WrVvnB2AsgACRc7DdiCc3tbydWXfx3cg/vQNHlvoja/+nekXGdktHVX0l8k78jDMfTkP6X2tIn3UctxBMHnlFQqMzEP7cDwh6fCOJMJRePoiELU+3TUS8gV/JlKUdw7HloQaEgcGiY9obvpiy3GdIEIZWEjTLFg/9MBJeMRKYOfJJgkWAXrjJMUyM8U8begrYPAbmrQtG8DwHcATkCYUrZMI90hIP/zwKvtNt+uz4BWI27vvEUJqbK2LBMUwMrqjnE53YSYD7vxwBz2gJ6B1CUEJLDoLnOeDhn0ZC4ts3963fDBs8sm0UvCdLwO+k7JPBosN9vBXCH3Ds8W9YuZvAfbyVgSepBU6hYty3PqhPr2F/gcGgI/olD0x53afT6oqiC3/j/Po50KoUFAXoiX2ZHNboZbtYQltvEfRtC8LKysrGTZs2za+qqmrQ96YY1MkZBEEwdu/eLXrwwQcDtFrtBADjaEy276SPL1mYOvjfVViisboYCV8+BFnWuW64pp5C8BNftba3vnFgI678upy0j+c9y+D34HtgMNnQ6TTIj/sBqdteg06rX8VJgqdi7Jv/DZhNdVo10v9ajaz9Gwy28UxZmPNhEGw7JMgNRWhUOlQXKAAdAb45GzxzFujM2z/rWq0ODRUqKKpUENpwIRD3f1a6oloFeakSJtZsUn+I3oC6SQt5eRNUCi3EDvwBWXWr6jWoKlKAwaKDb8YC14zVay2rdRodGqvVUNSpoWnUQWCpt2FvJXcaG2TZ9Tj8USYqcgybrVn5T8CY1/eCyTWhmEAPUF+SpT7+9hiFplFeBSAdwMmYmJgTR48evc5gMBpoNNqg7CY2aJ8EgiDoJ0+eFE2bNs1PpVJNABAJwM/v/nfEPvPf4d8NYZBdP4dLXyyEsraM5CVwiX4MQqdAsDh8FF/a05rQSFqRjFuE8Be3tU7AJ96ORG1+KnllKhBD5BKEhrJsfbijGRbe4zB2xV4w+QOjcaCQFSB+42JU3Yw32GYq4WLehmCYO1DtdilQGErQaXS4uC0fCb/ngegQnTO190XEyzsgcgqiDNUDjl10YRfiv3qoFkA5gFQAcatXrz65Zs2aAhqNph6MJzUoSQNBELTS0lJBUFCQd0VFRQyA8QB8+VZO1lM2XOEz2LweE4acI5uRtv01UndG64CJCHl8I0zsvEn71uRextl1s6GqqyCNj3xxW2tvC3VDFc6vu7dVs6Er2IZMR8Srf4DJGRipWlnGaVz6fCGU9TKDbZauAsz7NLjXV60UKFAwHhQkVeHAe+lQdsiFoTNY8HtgNTxnLzcqHZHBQhwSv3lUXXD2DwWAfACXWCzWwYSEhPjg4OBBqd8wWEkDa968eU7//PNPNIBJ0HewtB750q8ih8gH0BMvg06nQfL3zyP/1DbSuPe9b8D/gTUAvfMEL7k0Haffn0bySnBMLDH9m5tgsPWrco2yAYnfPtFpQiHfygkBiz6Gw5gFA2ZP6cW/kfD1o60hEhKZ8TfDvesCwDVhUY8/BQpDHHWlTdj7eiqqpYb5DE7jFmHEs1spIahuQimvUB9e6q/WNNRUAsgBcCI0NPTQpUuX0plM5qALUzAG2wUgCIL+77//ilevXh0MIKqFMEiCpggDFn/EQA/DEjQaHWXJh1CTm0watx+zAGLPrlsZc0ytIHYPQ/6pHa1jWpUCPAsHmLuF6Zk6kw2HMQvgPPEJ8MT2MLFygd3Ie+E68UkEP7YRZi7BA2bP3KNbkPjdUyAIQ8LrFG6BuesCweEzqSefAoVhAI4JE57jrZB5sgxqBTnJv7bgKqpvXIRt2EyqsqIbYHIEDCabj7LUw3Toiw90JSUlcj6fXzZu3Lj6tWvXDipvw6DyNBAEQWtsbBT4+fn55eXlzQAQA8CNxRNZTP40mcWzcLir5bBWo8SZtZNIMX06g4nxqw7Dwmf8LT+b8PXDKDy3s/VvSdBkjF150Kjt2VmiZgs8oqwxY5XfkE0Ao0CBQteoyJJj58vJ0CgNqwP5YgeMePZ7SIImU4a647lFpT66zF+tqMhXNHsbzvF4vAPp6ekJLi4u8sHkbRhspR+MTz75xDIvLy8QesVHOwCmIY99cdeEAQAYTA5GLt3ZKvkMADqtBhe/WARFlfSWn/W7fzXp7+rsy0ZtyJuHNnVJGPxn2mLWuxRhoEBhuMLKS4h71vh3WpKpqCrCuY9n4uyH01GS9F+/SXsPZjCYbJavXmiwtYV2Y2Ojz7Jly6wwyDz+g4Y0EARBy8vLE6xfv969mTC4ATB3GHM/yzFqSa/9Dl9sj9FL/wCd0eaSV9aVI/6LB28p8Syw8QCD01aapFU1GK0tc459j7Ttr3W6beRiZ0xZ7jMoJaEpUKDQe3AZbYG564K61K4ov3ocFzbch5OrIlFflk0Z7DZwHreYJXIMYKFdC+29e/e6Hj9+fFC10B5MngbWiy++KGlsbPQD4AVAzBc78Ec8+U2vykQDgIXPeAQ8TNYpqLoZj9Rflt6acJi1Cb8wecbZGrrgzG9I+fF/BuM0GhDzkhcin3ajnm4KFCgAABxDzXHfJyFgsrueKqpzknDy3Siq6dVtZ1sG/Bd/DLRroQ3Ad+nSpRKdTjdoMs0HBWkgCIKxceNG84MHD/pB31fCAYAw9LmtLJbAvE+M7THtBTh18GDkHv8RuXGd94VoKM+FvOxm699WvuOMzo7Si38jafOTBuNMNh2z1gYi+D576sGmQIECCXZBIkx9w/eW+6jqKnD+kzlorCyiDHYL2IRMY9mGzmIBaGmhHZSWlub3008/mRMEMSjCFEZPGgiCoF+8eFG0fPlyXwAjAfgCsHaKWsK3DpzUp7894slvYOY6gjSW+vOrqM66aLBvztHvSH/bj77fqOxYePpXxG962KBKgitiYf6XIfAYb0k90RQoUOgUXhOt4RV96y67Clkhjr89hvI43AYhT3wFJk/Y4m3wBTDmnXfe8ZPJZGaDgTgYNWloaXf9wAMPuKvV6lHQN6OyY/HNRIEPrev1sERHMNg8jF62CxyTtglVp1XjwhcPoqmmtM0DEfcDbvz3RevfZi4hsBs132jsmPn3e0jY/AQIHTkT2syRj0XfhpHaD1OgQIFCZxjzhAtup+2krC3DpQ0Lbpn/NdzBs3BkhT/7PQtAa2+K0tLSqMWLF/ur1WqRsRMHYycNzEcffVRSWFgY1EwYHACIfe9/h8Uxte6XGBDf0gkjX/kdtHYdjJpqShD/xSJoNSrkHPseyT++2EY0OCYIf+Eno1FOS9v+GtJ3f2AwbuMnwsJNIyCyo+qtKVCgcHuYO/LhP932tvvJy26i4MxvlMFuAbtR81lBD33CAmAKfW5DxNGjR8fNnz/fV6VSGXVTK6M9MIIgGJ999pnZwYMH/QGENhvWWmjnw3Kb+ly/HotVQDQCHlpHGpNlncPxN8L1SYXNJUd0BhMRL/4CU8cAo7Bh6eWDuHlok8G4yygLzP8sGFwRpexGgQKFO0fUCx6wdL291P2N/74EdFrKYLeAxz1LWY6RD/ABiKFP7h/177//jlm8eLGbVqvlGWtFhVG6QQiCoCcnJ5stWrQoUKfTTWj2MrgAEEY8/xNLaOfd75mmFl6jUV9yHXWFbfE6lVzWzsPAx+hlf8M2bJZR2FDdWIcLG+ZCragljbtHWmL2+wFgshnUU0uBAoXuTRhsOryirVCaLkddWdchCFV9JTim1jD3iKCMdqt5xTtSlxv3A0unUdEAcADQMzIy6mk0WkV0dLRRqkUanaeBIAiaWq3mPfroo67t8hicAPAlQVNYkhHTB6w0ZcQzW2DmFGgwzrdywoTVx2ETMs1o7Ji2bRkUFQWkMRs/EWa8639HLZ4pUKBAoTNwRWzM+zQI9oFmt9zvyh9vQ156gzLYrWxpZsNyn/YCoC/DNAfgDiDok08+cZdKpUap32B0B0QQBHPDhg0Oy5cvjwYwFfreEvY0Gp0/aX0Sy9TBf0CPr6E8FyfeGgNVQxUAwMo/GiNf+Q0coZXR2DD/xM9I+v5Z0pjIlo+F34aCZ0Y1nhpO0Kq0aKhUQ9WoBUEQoDEAJosBFpsOBo8OFodJUv5srFGjukCBqoIGVOU3oqqwATXFjWiQKcFg02HtLoTEWwgbH1NI/IQwsaQ6nw5XKBs0OPDuNRRcrupyH6GjH2LeOwMmV0gZrAuo5DLEvuyt1jTJFQCqAKQDOPzyyy/Hbty4Mc/YWmgbFWkgCIJWWVkpdHNzi6irq5sFYCwARwAit8nPskKe3GQUM1556lGc+2Q23Ge+jIDFH4FON56GTrLrZ3H2/WmkjpUcEyYe/CYUYicB9YQO4Re47GY9ym/UQ5Zbj8o8BWqkCjTV3v59Q6MDDBYDhFYHraZ7ksACCw5svIWwcDOB2JkPkQ0PbCEDdAYNdDoNHBMWuKZUw7OhCp2OwNV/i5Hwaz7kMmWn+0hCpmHM8r1G9Z40NmTsWouMPR+qAdQCkAK4yGazDyYnJ1/w8/MzqhbaxkYamKtWrXL+8MMPpzd7GQIBiFl8M/7UL6+xjGk1X198HSZ23kZ149UVXsXp96ZAVV/ZOsZg0jBvfTAcRphTT+YQgLpJi9zzlajMV6CxRoV6mRJVeQrUFCuM9pjZAgYsXYWwdBPAyl0IGz8hLNwEoNMpqfKhAo1Kh4TfChD/ay46aZgL5wmPIOy5HyhDdWU/ZQOOvR6kVsgKW4hDFoATo0aNij137tw1BoNhNC20jeapJQiCVltba+ri4hJRU1MzB0AkAGcAouBHv4D79Bcpv/otUHXzEs6vu7c1bNKCaSv94DtVQhlokKOutAlXD5Tgyn4pGuvUg/582AIGHILN4RRqDsdwc1g4U16woYCChEr8++5VqJsMmUPAoo/gNed1ykhdoCw5FufWz1EDUAAoB5AC4PC7774bt3bt2iIajaahSAOZNLDeeustl48//ng6gGnQy0VbCCUerIkbUlgMJlUe2BUqb1zA2Q9nQausJ42PftQNox9zpgw0CNFUr0ZldgMKk2uRe1GGsut1/fK7FhwOvM1E4DIYaNJqUKdWo1qpRLVSDYWm795ZfDEH5vZ6zRCtlgCdToOphAOXUZZwGysGm0+5tgcLitNqseeNFGg6EAcajY7x7xyBpW8UZaQukLTlGXX+yV9aiEM+gNNMJvPA5cuXEwIDA42ihbZRkAaCIOhXr14Vh4WFjVKpVLMBjIa+C5ho5Es7WA6RD1J3U1cr0KJrOLkmBpqGGtK431QbTF3pSxloEIDQEijNkKMwuRqFqTWoyKpDk/zuJ2gugwEJjwsxlwN7Hg/uIhH8zEzhay6CDZcPFp0OAjoQBA00GgEukwk2vevKmiaNDpXKJlQplahWqlCtUqFOrYJCrYVapwMBQK3ToValQrGiEblyOdKra6HS3V04lsmmw3GEOWz9RbDyMIGNnxA8SmPEqJF/qQr73k6DTkue4/jmdpi4PglsEwvKSJ1Ao6jFseUhakWVVA2gDMAVAEemTZt2MDY2ttAYvA0DThoIgqBpNBruyJEj/ZKTk2cCmAS90IXI1N6XNXn9ZRbolKZApy/x2jKcfGesQWmlY4g55n0aRJVWGjHqZUoUJFQjL74K+YmVUNZruv3g+pqL4GsmgqNAAFs+HzY8Lqy4XFhxObDgcmDKHviJtUmrxWVZFeKKi3FEWoKM6tpe+V6Jryk8x1vDd5oEAjFFIIwR1+PKEfvhtRbtu1bYR9yLUct2UQbqylNzaQ8ufrmwJbchH8B5APuOHTuWMGnSpAH3NhgDaaBv377d6tFHH50AYDb06o/2APijXvmdZWyNn4wFWpUCZ9dORmVOosHLdP6GYMqda2RQN2pRnFaL/KRq5CdUojKvodvf4So0QZStBFE2EkRJJDDnDr7JskTRiNMlpUiQVSKlsgrShkY0aTWQq3u2gKLTafCYYI2wBY6Q+FIWd2lDAAAgAElEQVRlfcaGzKPlOLzumkFyZOjT38Fl4hOUgbrAuY9nqsvSjrV4G9IBHAoNDY1NTEzMp9PpA+ptMAbSwIqJifE4efLkLADTm70MFmKPUawJ751mGUsPB2MCQRCI/2oxpBd3kwmDdzNhMKEIw0BDpyNQnFaLgqRqFKXUoCyzttvljJYcDsbbShBla41oGxs4mgzdZEGlVovkymocKizC3rwCFCsau/0ddgFmCF/kCNcxFqDeG8aDm6cqcPD9a6RQBYNjgkmfJMBE4k4ZqBPUl2Qh7o0wtVatJHkb/v7774T58+cPqLdhQJ8sgiBocrncRCwWj9JoNPOg12Wwp9EZopgPzrHMXEOpu6cTXP3jbWTt/5RMGDyFmP95CEUYBnrya9Dgyr/FSN1d1GXdemfgMhgIMDdDoNgcgebmCLcWw1ckGpaTH0EQuFRRibjiYlwokyG1qgqNmjvvY2DpKkDYA07wiLYCi0uFNo3F4xD7EblltoXHKIxfe4LSb+iKbB3apE7b/hrJ2xAYGBibmpo6oN6GgSYN9P/++08ye/bsadCHJkYAkPjMe4vl98AaqsSyE+Qc+17fJKv9w+ciwIKNoZSIzgBCpdAgZbcUSTsLoGy4/fNMp9EwRmKFibY2iJRYIdhCfMskxOEMrU6HjNpaXCiT4WRpGU6XlN4RiWBy6XAbYwXPaCu4jrYAk03ZdyBxZvNNJP1VSBrzve9t+C5YTRmnM+i0OLlqrLoq9zLJ27B3796EuXPnDpi3YaBJA/uxxx7z2rZt2xzoxZy8RM7BougPzrEYTDZFGjqgJPkQLn46D0S7AKFQwsXCb0IhsKDkfAcCjbUqpP1TjOTdhXdU8WDD4+JhTzc84ukBWz7VlrwnaNLocK6sDEelJYgrLkau/Pb5IWwBA17R1gicZU/lPgzUHKjRYderKSi51i4ZlkbD2DcPQBI0mTJQJyg6/5c6ftMSkrchPDw8NiEhIX+gKikGjDQQBEHLysoyDQgIiFSr1fdBL+ZkP+G9U3wLzzEUYeiA6pxEnH5vMrTKNuU/Fo+BRd+GQ+zCpwzUz5Bl1yNldxEyj5VBo751SaGLiQAT7eww1d4W0XYSMCmPQq/iRm0djkhLcLhQiosVMuiIWy/AnELFiH7Jk3puBgD15U3Y8XQilO0EyphcIcavPABzr9GUgTpAq1Lg0IvualV9JcnbEBsbmzBt2rQB8TYMJGlgT5kyxeXYsWMzAMwE4CsJmmIxduUBFgCKNLR/0MqycfLdKKjqKkjjs1YHwDPaijJQf62UdARyzlUiebcU0tSqW+7rbmqCxzw9MN3RHq5CE8p4/YSKxibsLyjCzpxcXJZ1fY0YTBpGPeKK8EWOVGlyP6MgoRp730whVVQweUJEvrEflt5jKQN1QG7cD+rkH14geRvGjh0be/bs2QHxNgwIaSAIgr5z506LhQsXjoE+lyECgMvIF7fxHcYtoghDOzRWl+DU2mgoynJJ475TbDDtLUq8qT+gUmhw7UApUvZKUVty6x4PYVYWeM7HC/c6O4JOZfAPKC7LKrE5Iwv/5hdC04X3wdLZBBP+5w7HcDFlsH5E2l4pjn+VRSZyHD4iV+yDld8EykAdcOGTOeqSlFiSt+H48eMJMTEx/e5t6Pe3GkEQtPr6eoG3t7d/cXHxdAAxALyYXKFo5uY8FpMrpEhD62RVgzNrYlBbSM46Fkq4ePiHCKpSoq8JW40al/8qROr+Iqgauk68cxLwcZ+rM+53cYaPuYgynJFB2qDAj9dv4tcb2ahSqTq/huFijHnCBba+1PUbUOLA4mL063uoHIeOc0FtufroilC1sq681dsQHR0de+LEiX73NgwEaWCuXLnSYd26dZOg7zERAsDa856l/MCHPqEIQ5udcH79HJSlHO7wUNFx/+cjYBtgShmprx7Qeg0SdxYi+e+CThvvtMCOz8N7YSG419mR0gUYBGjSanG4qBj78gpwRFqCJq22U/IQ8aAj5XnoJ5zdko3EPws6vOM4iFyxH1YBMZSB2qE06YD6/IZ57b0N+0+dOpUQFRVV15/ehn590xEEQcvLyxP6+PhEKJXKWQCiADizeCL+1I3pLI7QiiINzciO/Qap25YajM9Y5QfvSVTXyr6ATkcgdbcUF7fn3lbWeZG7Kz4MDzEKqWYK3UedSoU/c/LwfUYW8uoNqy/EznwEzrKHR5QVhBKqMqmvoNXq8NdLySjLIDdkY3BMEP3eSYicgigjtUF9bt096rLUI5UA0gAcbvY25NFotH5rfdvfpIH5yCOPOO7YsWMm9CWWgQAkQY98xvKY8RJFGJrRUJ6LYytGkColACDyKXeMfMiJMlAfoLFWhYPvZ6Aw6dYJjt4iEd4PC8FEexvKaEMAKp0O27Oy8WHKFcjVnb93rb2ECJnrAJ8p1lTSZB+gukiB355KhEZJ9vyYuYQg5qNLlBevHcqvxKnPfjSjFoAUwEUAB/fv339h9uzZlTQaTdcfx9BvV4MgCFp6erowMDAwQqfT3Qt9iaWzmesIUfQH51iUKlgbzq+/F6XJh0hjQXPsMXGpF2Wc3r8vcfOUDCe+zYKiovN4N51GwxJ3Nzzi5YYQC8ptPRQhbVDgmbMXcKlc1uU+5vZ8xLziAacIqkNjbyN1jxQnNmUZjEf8bzscxy6kDNTO23B0WaBaXnK9FkAWgBNeXl6xV65cucZmsxv6I0zRn7SZsWrVKiudTucDwA2AmEZn8MOe+Y6SEW2H4oT9BoRB4muK6Jc8KOP0MnLPyfD7U0k4sPZql4TBSyTEoemT8fmYcIowDGHYC/jYNyUGz/t6d70iliqwZ0UaDq/LRFOdhjJaLyJonh3sgw2fr8y/34dOR9m6HVgeM15kAeADsAPgn5WVFfDFF19YAugXzfR+8TQQBEFLSUkRjhgxIgJAq5fB+943RP4L3zfqsIRWo4K6vgosEzEYzL6NX2ua6nFsRQip1TWdTsPirRGwdBNQj0svoaFSieNf3ED2uYou9xGx2Xg90A9PeHuAw6D6FwwnHJWW4PVLCZA2dN00iytiYdxTHvCbKQGdTrnPewN1JU3Y8cQlg+TjsGe3wjn6UcpALXOSqlF9+BVvdVNNqQL6pMjTQqHwQHZ2doKVlVWfl2D2l6eBsWnTJgsAni1eBoHEne87/22jvjhZ+zfgwDO2OPi8E/57whIXP7sfsutn++z3rv3+FokwAED4YmeKMPQeeUXaPim2PXqpS8IQaW2FTWNGIu2+e/C8nzdFGIYhptjb4sKcmXgtyA/cLq5/U60axz7LwB9PJ6E0vY4yWi/A1JaL8c8ZelQz9n4IrUZFGahlMmXzWP4PvtfibRADcJfL5Z7vvfeeuD+8DX1OkQmCoDU2Ngqsra3D6+vr56C5YiLy9b0im7BZRutlKDi1HYnfPdXpNvdpLyD4kc8Aeu9dn9KUwzj/yWzSmI2fCAu+CgGDQSVf3S2a6tU49H4G8uMrO90eYGaGT0eHIcLKkjIWhVZIGxT4ICUNu3Lyu1550WmY9Jo3/GfaUgbrBWK/Z3maQUJyyOMb4Tb1ecpALdBp1XFvRqC28GpLCeZpDoezv6CgINHa2rpPcxv6YzaiHThwQFhfX+8EwBmA2MJrDMsmbJZRX5P0PR90uS378Le4/MMLIIjeuS4quQyXtzxNGuObsTFrjR9FGHqDACZU47enEzslDDQArwX54cisKRRhoGAAewEfm8eORtzMKYiUWHf+/tYROPppJi7+kg9CS1BGu5vJgkbD1OU+YPPJC7KMPR9B0ySnDNQ6czNYnnNeB/QtF8QAHJRKpcP27dtN+toZ0B8zEnPr1q0WABwAWADges1906jzGOrLsqEoz7vlPnknfkb8V4uhbrx71+TlH15AU00paeUyc7U/hFZc6uG4C8iy67Hr5WTsWZECeWmTwXZTNgt/xERhZXAg1Zaawi0RbCHG/qkx+DV6HNy66CVycVsO/nghCWUZ1OR2NxBKOIh5hZyQqqwtQ9b+zyjjtCe0I+eBxROxAHABWANw+v33383RxyGKPn1TEgRBu3z5Mu/IkSOOAFwBWAklHnybkOlG3ZSKdoceBOnF3Yh7PQRF5//qsdch/+Q2FMf/QxqLWOIChxAz6qm4C6QfKsUfzyVCeqWm0+0jLMWImzkVkx0olzKFO8d0R3ucmT0db4d0TjTLs+T483+JSPg9v9c8kcMRvlMl8J5IFrG78d9nqC/LpozTDAabx3KIXNCS22AGwCk5Odk+MzOTSxBEn3kb+np5xVq1apUEgBcAJwBCl0lPsoxdrENg4wFzt7A72ldRVYT4TUtw/I0w5J/cBpVcdse/01Cei9Rty0hjfDEHEYspAaeeQqcjcHZLNo6sz4BWY/jSZjPoWDUiCLHTJlHdJyn0CBwGA0sD/XB85lQEmBmSe0IHnNuag39XXaVKM+8CE5d5wcyxrX25Vq1Eyg8vUmSsHZqrSlgATAFYAejzEEWfkQaCIOjHjh0THTp0yAdAAAAJaDRT+7ELB0Xr69HLdkHkGHDH+9cWXkXSlqdx8HknXNmx/PbZvjotkr553CBOF7rAAUwO5SrvCRTVKvzzRpqBln0Lwi0tcHLWNLwa4AsGFY6gcJfwMRchdsYUPOHVuYZKznkZfnsmARU36ylj9YScCZi45z1/MLltz2r51ePI2vsRZZxmiD1GQeToD+hDFBYA7Hbs2GGh0+n6LETRJ19MEARNo9EI5s6d611RUTEeQBgAJ+uAGL77tBcY6CcRirtykfBN4RL9KFgCc9QXpUPdKL/Dc9eh6sYllCbuR33xdYDOgInEzWC/rH83IO/UNtIYV8jE9Lf9wGDd+YRWlFwNebkSpjbDO/9BmlqD3ctSIMsxfEHTaTQsD/bH15EjYcWj8kQo9B6YdBqmONjB10yEkyVlUHZogqVq0OD68TI4BIkgtKbuve6Cb8aG0JqH7LNtJdIV6adg5h4Ooa0nZSCAweKYoDhxHwBoAdTX1dUVR0ZGlu7YsUO1du3aXv/BPnFhEATB/PLLLx2WLl1K6mQ58qUdfIfIBwdfjwmdFjWFV9EkK4JKUYO6onSUp8SipuDKHX3cbfIzCHr8y1bly9qCKzjx1mjotGSt+7FPuiFiifMdH1ZBQjX2rEgBAMx+PwDu46yG5VNz7UAJ4j6/Dp3O0G0pYrPxc1QkomypJl8U+hYlikasSkzGvvxCQ3LBpmPSaz7wnUrdhz3BwffSkXWirM0LYWKJSRuSwRVR9mwuv1TXFl5tbWR1//33/7dr167Cvmib3eukgSAIWklJidDb2ztCLpe3drLkmtnwp226yWIw2UOmMVVNfipuHtyIwvN/gbhNOEISNAWhz2wBx0yCE29HojY/lbRd7MjH4q0R3QpN7HszDbmX9GWEEk8hFn0fPiwJw9ENmZ1ucxWa4I+YKHiIhNSLhUK/4URxKZZfSuy0e6brKAtMXOoJoYRHGaobUFSrsO2RS6Tus05jFyL8f9sp4wAoS45Vn1s/p7VtNovF2iOVShOtrKx6XbOhLwK7jGXLllnI5XIfAO7Q15Dy3ac8O6QIAwCYOQcj/PmfMOfnSoQ9/yM4Igk4ptZg8Q2To8rSjuLwK96Iez3EgDDwTFm4d11QtwiDTkdAerWtMqDshhx1nZQVDmVIU2sQ9/n1TreNsrbE4elTKMJAod8RY2eD47OmYp6LYUJz7qVK/PpkIgoTqyhDdQN8czbGPkEO8xac+xPVWRcp4wCQjJgOM6fAFs0Ge7Va7fTLL78I+8Ix0KukgSAI2okTJ/h//vmnGwBvAPYAhEw2j+U65dkh2/qaweTAOephzPquELO2FGHGN9lwiXnccKLXqiEvvWEwHvW8B0R23Vt5FCVVQdVAjp/mnJMNm4dEXtGEg++ndxqSuN/VGbsnR0PMZVNvEwoDAlM2G1vHj8GKIH+DbcoGDfa+mYa0fVLKUN1AwGxbmErIeSFp25ZR1RTNcJ38TItmgwUAhy1btogJguj1/MHeJg2MpUuXknpMAOA7T3gUbOHwUdtjcoUIfWYLxr15oCWztWvCwaJDYM3p9m+c+znPYOzGqYphYd+mWhX2Lb+ChkqlwbYVQf74btzoLnsGUKDQn1gRHICnvD07WUAQOP5lFg6suQZFNdVX4Y4mKyYd4YvI3pvKnEQUnvuDMg7AcohcwKIx2XzoSy9ds7OznQ4fPszvbc2GXnuzEgRBi4+P53/44Yd+0Hex9AdgTaPR+REv72CxBebD7ioKbNzhNulpWPiMA53JQU1esqHddAQyjpQicWcBGqrUsPMzBZNz68tSfLUW8dsNSYO8vAmuYyxgYskZsjZVytXYszwNFR2qJLgMBr4bNxpP+lAZ1RSMCxPtbJBZU4usWkP12Kr8BqTtk0Ip18LMngeukEUZ7BawcDVB6v5iaJVtnTBrClLhNuU50OjDe6HAYPN08oI01EkztAAUAKrr6uoKFy1aJF+7dq3OGD0NtNjYWBPo5aIdmr0MLIdR8yCwdhvG9JgB68BJAG7tQtM06ZC6twg/LbmE419kIftsRac69lqVFqc23ezye459mgWNSjckTdlYo8bfS1NRnkUuf3UVmuDg9EmY60KJYlEwwlcAjYat48dgiUfn70F1kw5JfxXglyUXcWzDdWiUOspoXYDJoSPkXgfSmKIsFwWndlDGAVj2o+9nAeABsAHgefDgQeeSkpJeVYhk9uazcerUKXPo8xisoY+ttDTVGNZQyitQePbOXGjKOjXS9kuRtl8KkS0fQfPs4DdJAp5YH58//V0OyrK67ndRkS1H3OdZmPamz5CyobxMib3LU1BVqCC9jJ/x9sTKkAAIWH23Qtucfh3ShrbffS3QH+Zd5EucKi7DUWlx698zHB0w1mbwlMJer6nDrtw85MrrIW1QgE2nw96ED1ehCWY5OMBfTMmb9+hFS6fjyzERMGOz8HV658m7BAFcPVAMWW4D5q0PAkfApAzXCULus0fSznzS4ihz3zo4TXgYdMbw9tRIRswAg8VladVNYgD2Wq3WYceOHZkrVqxQ3Hbl2p+koVnMiRsfH28HvVy0GQC+lX80y8w1bNj72679sQpaNbmywXO8Fcwc+FDUqlCUXIvaEoXB52pLFDjz7U2c/e4mJD4i8MVs5Jy9fd5CxuESuESYw3vS0KhhrsiSY+/KK1BUteUweItE+GbsSIRYiPv89/fkFyBZ1pbt/rSPZ5ek4XJlJb7LzGr9217AHxSkoahBgZfOx+NMaZnhxnL9f9anXoOvuQjbo8bC1ZSqSukJ1oSFoEalxq83c7rcpzS9Fv+tvoa5HwWAwaZyczqCZ8ZCwD32SNnTpoehKM+D9NxOOEYtGeaeGAFsQqaxpAn7WhIinf7++2/zFStWVALoFRdWr4UnUlNTeQ0NDdbQJ2GYAmB5znx12N/g5alHkXfiZ9KY31QbzHovAGOfccOU5T54+JcIBMzounESodO/SO6EMLTg0ra8IZFVnHmsDDtfTiYRhvtcnHB05uR+IQzDAQkVMkw+cKRzwtCRwCmUsDcRUEa7C6yLCIPnbUqBC5Oq8PeyNCgbqN4VnSFisSNJXlrvbVhPVVIALPvR5CZWSUlJ9pWVlb0Wougt0kA7f/48D4AlABEAptDGE5IRM4b11dNqlLj804ukMb4VG9GvkJP1mGw6Jq/wwaSlPmCyeueSVBUqUBBfPXhtp9Ii7vPriP0wHRplW2np877e2DJuNPhMynXbG6hRKvH4qXOQKdtIGYtOw1gba7zk74vnfb0xwVbSWo2y0N2ZaiN+l+Ay6VgVEnTb/Uqu1eDIx5mUwTqBwIKDkYtdSGPy4kwUX9o97G1jFzEHHKFVaxMrnU7nsGfPnl5rYtVbb17G2bNnzaBPfhQA4LlOegrG3s2yr5F7ZAsU5XmksTFL3MDmd272wDm2cI4wR8If+bh2sAQ67d2x5gvb8+A8avCtxptqVdi38ipKMmpJ4497eeD98JAhcW80ajS4LKtGsaIB1SoVrLhc2PH5CBSb3ZYQFTUokF5Tg8J6BZxMBPAyFcLJRNCj52315VSUNraFzkRsNn6JisT4DrLbNUol/sjOw3RH+06/hyAIXKupQVG9AlJFIzQ6HRxN+HATCuFjJrrtcaRVVaOgvgElikaYMJmw4/PhZWYKWz7vtqQno6YO12vrIGKz4GVqCneR8LYlt4X1DciorUWJQgEdQYMdnwdnE8EdHWtvYKajPYItzJFaeWtin32uAsVXa2EXIAIFMsIXOSL3QiXpPXFlx3JY+k8AR2g1bO1CZ3HhHPMYsvZ/2trE6ptvvrF4+umnKwHcdX3vXZMGgiBoWq2We/z4cRsAtgDMAbBswmYNim6WfQV1Yx0y931CGhNKuPCfees8A1NbLiYt80bEImec2ZKNG6fKe3wMpem1yD4tg3vU4NHIUCk02LMizaBCYpq9PT4ZGTro7wuCILDhSjq2ZmShSmX4/PKYDEyzt8MbwQHwFJmStqVWVuH5cxeRVWvYPC3MygJfjA6Hn9mdJyrWqVTYlZNPGts8bpQBYQAAMw4Hz/t5G3q0mlT4LvM6/srJQ1GDotPfibKRYE1YEILEhgT2WFEJ3ktJRXp1baefHWlliRf8vHGPEzljvrpJheXxifinkz4PlhwOPogYgftdDfu45Mnr8XZCCo5IpZ1mhbkKBVjg6oIVwQF9eh/QaDR8EzkKMw/HoU6lvuW+l3cVUaShs8mRScfM1f749an4VnlpRZUUF9bfh3GrYsHkDNswGsttyrO48e9nfILQWQFwTU1NdYyLiyskCEJ9t7LSveFnpB06dMhEJpPZNZMGHsfEkiWwGd718jf+/RyqOnIOQsg8e9CZd2ZyU1suZq3xxz1rAkBn9Nxjc/b7bOg0g6OEi9ASOLA23YAweIqE2DxuJOhDwHP1YcoVfJJ6tVPCoPdAaHGgsAjCDorr27NyMO3QsU4JAwAkVVRi0oEjOC4tveNjiS0qhkrXdm94m4kwxc62e28nOh0/Xr/ZJWEAgNOlZVhw7DRKFI2k8YvlMjxy6myXhAEA4itkqFaRRbwyq2sx/r9DnRIGAJAplXju7EW8GX/ZgGgsiDuFw10QBgDIlTcgs6a2X+4FHzMR/pkSDdvbdF69ebocZRlyUDCEUMJB1PPk1uRVNy8h+bunhrVd+JZOsA27hwVACH1xgteaNWskveEo6A3SwNi4caMFAEfo8xm4dqPmDuvQhKq+EjcOfkl26bDo8J9u0+3vchtrAQa755epWqpAyp7BIVd76tts5MdXdlg1cvF7TBRM2YNfElqr02FrZpuMOJ1Gw1PenlgbFoInvDwQYqEXQJvl6AAbXptbvrSxEauSkqFpTvKi02iY7miPz0dFYKq9bSuZUusILI9PRKPmzpLnEivItr7Hyb7bz62QzcRzvl76e1Voog8hhYXgOR8v0mRYqVTig5Q00md/vH6DRFom2dtgdWgwXvb3xWR7G7DpdIjYbMx3IXsMViYmk0IqfuYifBQxAk96e5LI1g/XbyChok1a/bBUilx5myiYl0iIN4ID8GZIAOa7OsGCoxdFe9K7/xY8QWIxYmdMgc1tiMOxDdehVVNyyZ2Sr2kSCG3I9iu8uBu5R7cMZ7Ow3Ka+0JLXIAEQcPbsWZ89e/aICIK4q3n/rlgHQRC01NRU/rFjxxyb2YwVAL7ThIeHdWii4OR2aJXklZfXJAm4ou5PfLkXK6Fu1N7V8VzcngvPCZZG3Vkv/VApqYQKAEzZLPw9JQquQpMhcV8UNSjQ0G5C9xSZ4uOIEaSJOrOmFqwOiYYfp1yBot3n1o8Mw2Ne7gCAR7zcsDXzBlYm6FfV+fUN+DMnH483b78VyhrJK38HAb9H5/Wsjydi7CQItySHwR5wd8bEA0db/+4Yv79eS17RfxQeCvd2pZzVTSpk1taScjxii6SkKo9J9jbYOXFC698v+fsgZM+/bbZKu4ZdkyY0/x55tf64lyeebqcgqtLpcLq4DGNtrPv1vrAX8LF7cgwWxJ1EcQdvTAsqcuQ4vfkmYl6mFE8NVq0MOoJm2+HcVnIZ67W/34NTzGNgMDnD0i7WgRMhtPNhyYszraFv7RD8yiuvSCdNmtRAEERTT8MUd+tpYKxfv94SgEczaRCKHANYFp5jhu0NrFM34ebhr0ljNDoQsbhnaoUp/xTfveejQYu/XklGVUGDUdqsLEOOuC/IgjcCJhM7J0YhwHzoyI/bCvikyoPrNbX43/l4FLRroexjJiJNnABwpKik9f/ZdDrmOZPvpTnOjqS06Izqmjs6nvImstvfjtcz0mDKZhsQhpZVtF27RMbsOrIomUsHMvjkmfM4U9JGCMy5bIyRkBPajkpLyMTE1cWA+ERYWXZqC+cOpaKfpF3F9qwcNGm1rbad7GA7IPeGt5kpTs2ajse9PLqsTkndW4SM2FJQMETATDswmGQvmaquAiXx+4a1t8F92vMt5ZdWALyKiorcP//8c9MB8TQQBEHLy8vj79y50xWAT7MLhOc69blh7WXI3PMRFDLyitlvui3MHbv/Qpam1qAwqXda6MrLlNi9LBUP/xIBronxXJ7a4kbsW3UFWnWbm5rLYOD3mCjSy38ogE2nY6q9Lf4rbAsX7czJw185eZjmaI8Xfb0NJkm5SoOKpjZXPIfBwLPnzht8N4fBaJ38btbdWfzbvEPehELTc02AS+UynCsrR0FDA4rqFZBr1FCqtZC1IyZqHQGCIFo9K/c4OOBgQZstrlbVYN6xk/A1F+F5X2/c5+JkUAWRW0fuObL9Zg525eaRyVA7D0ppYxPkKg2EbCaibSUQspiQq/XnWaNUYdmlBHyUkoZHvd3xlJcnrG4TJuhLmHPZ+HRUGF7y98FrlxJxotiQIBz7/DqENlw4hFDKnO3BM2PBe6IE6UfINss+tAkOkQ8MW7s4RS3BtT/fZakba4XQ5xw6/fPPP+K1a9dWAVMfvZcAACAASURBVFD3t6eB8fnnn1totVpvAM4AxEyekO80bvGwvUA1uZcNKiaYLDpGP+bSo+/LOd+7ra4bKpUou2Y8CVV1JU34exlZuIlFp2H7hHFGraJI9HAbAGyKHN2au9D+M7GFUsw+chwL4k6hol28Pq+efL3kajWOSUsN/rUQBgCoalLe0Xk4C8kejZLGxm7b4lpVDaIPHMasw3H4KOUKfr2Rg5MlpUiqqMTVmhpSzkJHPODugpf8fQ3GM6pr8fL5eETuO4hzpeRk4hw52R7nSssNbJFfT/aotSRSughNsGX8GPCYZCIiUyrxWVo6Qv/5D5u7kHju1xe9iQB/TYzC876G1SpatQ4HVl+FvKKJYgodEP6QEzqm5FTevISSpP+GrU2YXCHLWZ8u0KKj5HrlyhV7mUzWY7GnHpEGgiBo1dXV3J9++skZgDv0zTF4DqPvZzGNaRnbz0j/+z29gHw7BM11gNCq+6sXrZpA3sXKXj0+Gg2w9jSO/IC6kibsWnoZ8jLyBPfZ6AhMtLcxquvK6dA9r1LZdalzZYcJu2N+gpDNROz0yVg/KszAXQ4AJ4pL8fDJs2hqrnjp+BLkM5lwNhHc8p+N4M7ut46/f7O2e4SyXNGEhcdP4WpVWwjAksPFYjdXrAj2x/thIbDi3vpYVocGYd+UiYiyMSzzLGhQYMnJ00ivqenyhXU7WzibCMBoZ8Sp9nY4P3sGlni6GYQBGjVavJOUgp+zsgf8nqPRaHg/PAQv+HkZbGusU+PIR5mU+mEHiJ0E8J9uGF66+usb0GqUw9YuLpOeBPQhClMANgRB2B0+fLjHYk89DU/Qtm7datLQ0ODQ4mUAwLIZMXPYXhhFRT5Kkw+RjcumI3yRY/dJmZbAwTVXUVmg6PkD5MhH8H2OKL5Wg5xzMqgbtfCe2Nb4aiAhr2jC30uTDQjDk96eWOzuanTX1svUFBfL21a8eXI5wiw7F83quBLuTJyISafjCS8PPOrhhn35hfjqaiautpsYE2WVOFZcjHucHOAuFILWzoPhZyZC7IzJvXJeHRNMd+Xl450RwRCy7+y1EFtUjJJ2XpEIK0vsnRwDbruy4p+zbuJ2i+KxNlYYaxON1MoqfHUtE/valVLK1RpsupaJzWNHAwA8zUxR0K6889C0ybDmd4+UO5oI8OXoCLwZHIDvM27gx+s3SAmqn6RcuaNE0v7A2tAQlCiasDevgDRemFKNtL3FCL7PnmIL7TDmSVdkniiDpqnNwyUvvYHc2G/hcc/SYWkTUwd/mNr7ok6a0SL25LBz507xQw89JEMP+lH0iDTodDrG5s2bzaFPfrRAc0dLS5+xw/ZmzTv+o4GXwW+mHfjm3Z+kCxKrkX2L0ASTS4dDsDm0Sh3oLDqcIszBM2GhoVIJMwc+bPyFrd6N4Ll2+mum0d2xRkSfkqtqFfa+loq6MvJMEm5pYbRqj77mZGGdH6/fxPxOhINy6+SI6xCHvpXCIINOx32uzrjX2RGvxSfh1xtt2d9pVdW4x8kBPCYTTiaCVpd7WnU1ShsbSSWZPUW0rQTO7b5brlLjw5Q0g4qOrnClmlwNscjNlUQYGjUaFDbcefJtsIUYP0ZF4v5CKR4+ebbtd9p5MrxMRYhrp0URV1yCRR49I5o2PB7eDQ3CY17umH7oGMqbc0dkSiWKFY2kJM6B9DhsihyJssYmnC8jC72d2XoTrpEWMLXhgoIeAgsOwh90wcVt5EqK6/s+hevU58Bg84ajWVg2YbNQJ81o7Udx6NAh27KysgKCIDTdraLo9ixCEATtxIkT3Ly8PHu062gpdPRjsYWWwzI0oVU1IjfuR4PxET1cBZjacUFrd2VYPAZGPeKKuR8H4YGNoXh27zjMXReE+V+EYN76IIQtcITfDBtELHGGZ7RVp+EQYyAMqkYt/lmRRmpvDQBmHDZ+iIo02p4Gk+1swGa0HVt8hQwPxJ3GudJylCgakV0nx66cPMw5chy6dsQxUmJFqoQoalBgTVIKrlRVG5AHvw7kQsxpKxO7362NoKi0Orxw9hIqGg3drSmVVViVkEw6hluBw2BgZUggaeyH6zfw0IkzOCotQWljIyoam5BaWYUdN7Px+KlzWHEpqXVfkw7tyFOr25J2a5RKrExMhlrX9bG8n3wFhzsITLV4U2gkW7QR73ku5EqRtZdTkSgzJNglikZ8k36dpNPwe3YutmfloLqJHF5yEPAh5rbZmwZAxDKe3iZcBgO/RY9HuKUFaVzTpMOxz7IoptABoQ/YgyskXz9lvQwFZ34btjaxCZkG6AsUTAFYaTQahx07dvQoRNGTJ4O2e/duEwB2aNfRUhI0ddhekPwTv0ApJydsOYaY96hiAgDMHfmYtNQXBZerYB9kBu/JVhjsqSIEQSD2g3SU3zSMm28aM7LHGgH9AVdTId4dEYxVicmtY8eLS3C8uKTLz/CYDHzQwXOi0Gjwdfp1fJ1+HbY8LtxEpnDmC1CoUJAmNwAIt2oLfywN8MM/eQXIbq4cOF1ahpH7DiDEQgwxh41iRSMK6+tbBY/WhgUbJkN0gfkuTtiSmUVq/X1EWoIj0s7Prb00s58ZuXJre1Y2rlXVwILDxYmSklsmQQLAgYJCbLyaDiGLBU+REG5CIZo0GiTIqkgJpRFWbZNlqKUFnvHxwpbm9uMypRIzDsUhxFIMJ4EA1UoVihUKZNfJQQD4OSqy9bPXqmqwJTMLbyQkws3UFO6mJhAwmUirqsH1diqQ/mIzCFjG9bwJ2Uz8NSkK8+NOka5VQWIlMo6UwXeqhGILzWDzmQhd4ITzP5G9DdmHNsF10vBUijT3HAMmVwhNk7y1H8VPP/0kfv3117sdoujJ0o5+6NAhMwAOaAtNwC7i3mF5MXRaNbL+22AwHjjb7q6+N+AeG8x81w/Bc+0wFHJLk3YWdloN8qS3J2Y4Gn9c9lkfTzzh5XFHtFzMZuPHqMhOey20roQbm3CutBy/5+TiTGkZqfrhOR8vku4Bl8HA1vFj4G7aloMgV6txprQM+/ILkVAhIykkdmsFQKNh7+RoLPFw6/Zn57k4kUI3BPT5GIelUqh0Oviai7BhVPhtv0euVuOyrAp/5+bjv0IpSXTKx0yEpQF+pP1XhgRgVrt7hgCQLKvCvvxCnC4tw81mwtAV1DoC12tqcbBAil05+STCwGMy8NWYkUZ5D5qy2fg9Ogr2ArKL/fQ3N9BYqwKFNgTPtQNHQF4T10kzUJF+aljag8Fks6wDokktszMyMmwTEhK6XUXB6OZqkVZdXc1fuXKlL4BRALwAWPGtnLmBS9azhqN0tPTibuSd/IW8yjRlYfJyn7vqGWGUBKnZ1dzd61yaWYfY99M7pnwgwMwMP06IBHMQtFqm0WiY4mCHGY72KGruTNl+ogf0mfxLPNywZdwYBInNO2HoNJQrm1CmaIRCa6jyGWBmhjWhwXjBz9ugz4aEx8Mjnu5gM+iQNjSgtpMmR+GWFvifvw/CLS26dY3YDAamO9ojQGyGKqUKjRotKTGwhQjd4+SAJR5ucGquuqDTaJhmb4fcugZkt0sAFbJZmOFgjx0TxiPCygK/Z+e0aiOsCPJvPbZ6jQZljU2oVBqGWiw4HLzg741PR4XDrIOEOJvBwDwXJwRbiJEjl6NGpW6V2G6BvYCHx7w8McfFsTWMooM+bFGiUBgsrdh0Ou5zdcKmyJFGLSgmYDERLBbjz+zc1jGNUof6chU8Jwzfzo4dweQwQGfQUZBI1rkhNErYj7pvWNpE3VCta07W1wCoA1DK5XILZ8yY0bB27do7zmvo1tufIAjayZMnLWNiYiYDmAcgHIAkcMl6luesV4dlPsO5D2eg7GocaSzsASeMf959yJyjvEyJY59fR0FiJRhMOuyDzREyzx6uYyxu+1mNSodfn0pATYc8Bj6TiWMzp8BLZDpo7VLdpEJuvRxsBh3WHN4dZ/HrCAKyRiUqlU2QqzUQcziwE/Bu2xK7PZq0WuTWyaHQ6mDN5cCSywGP2Xtx+KomFbLldRAyWbDkc2HBZt+SiNSpVMiR18OSy+12qKlWqYZM2YQqpRJ8BhO2fD7EXHZ33ksoalCgtLER5mwOrLhciDhdv44aNRrImpSoVCqhIwjY8vmw5nLAGATktQXvJKZgcwZZU2LGKj94T6LCFC3Qqgn8svgC5P9n77vD4yivr8/2XrXqvVmyLckNd9wwEGxagAAh8GFa+JGEFiCQhBBCgCRACIHQk9ACJEAA2xhjU4wLtuUqWZYlS1ZftdU2rba3me+PVXt3VrZccLDeOc/j5/GM1pLmeuZ9z5x777m2EVIqEEtx0csdkKiM1MXD29cS3nhXaRiAC0AjgM/T09PXdHZ2NopEonEbPR3vKiP46quvhkwidADEMl0qCs67lVbmhr66zdw3xovTJ8w1RkIMPvxF9fCmHwkxaN9jR/seOwoWmHDBg5MhVY59G1W+3sohDADw5JyZZzRhAGIOfgZ50nH/O6FAgBSl/LhbBUdDLhJhsuHbcwU0yqUwysfvyKmVSjE96cQWYp1MAp1MgkJoTlgFylarkK0e3yhkhViMbLV43J//LuLB6RXY1NNLpFa+ePIwNMlyZFTwY7QBQCQRYMqKDOz6V+sopSGEzh3vI/+826iLhyqlQKJJLYLb0jScoujp6UmvrKw8ri6K46LWDMOI3nrrLT1ivgwqAIriFbdDJFVSeVPaGivBMqTMnDPTCEPWxInHoXU9CTd9IOZYuebXh8acvmdt9mD/+9zxxVcX5OGH30E/Bh48zhTIxUL8fdE8wmY7EmKw+tcHYG3y8AEaRO5Z3FRT+9a3qY1H6swVwKguCgBZa9asOa4uinGTBpZlBRs2bJB3dHSkIeZhbQAgyT77WmpnTbjNBznnpl06scxWmnce3cq664ADGx6vAxNh4u8XfPWXxuE6iCGU6nV4au4sfjXjweMkMUWvx7PzZxOrfcgbxYf3VXPammlFerkW+rguNkfTbgx011MZj1ENC8NdFBs2bNAfDxc4HqVB8N///neo1TIdgEKTUSpRJGVRe0PaGsjBQdpUOQoWJk2oa4wGj92Nc2RLHz685wA8fSMV/LWf9KK3jhx9rJGI8cbihceVu/9Pcyseq6o5qWFKPHhMVFyRn4sn4zpUAq4wPrqvmngeaYVAIMDCW7idQeatdHo2GEsWSGSa5NFdFJkHDx7M6O/vl423i+J4SINwkJFkIFbPIE8uW0rtzRgN+WE9tJk4N+uHuRBMsI6JSUtTxvW5roP9ePOG3dj7bzNc3X5se/UI5zN/nT8HRbrx5623dFtw+47d+GttPR6vOsjvEDx4JMCNkwrxvUxS4fT0BbH6/oMIeXiyXbw4GVkVZP2Peds7ABOlLhZCoRgZc4bVBi2AZJZlTXv27Bm3Vea4SAPLsoJ9+/bJe3p6MgBkDjIUpSF/JrWpib6DXyEaHJEADZlKlF2YPuGus+KyjHFfV9gfxTevNuHN63ch5CUfyFtKinFp7vHN4XjzSNPw399tbkWEYcCDBw8unpg7kzu9s92DL//CO0YCwNI7iwm/M5+jC5bar6mMRebcH2Bw3xYPKg7affv2jbtdadxKw9q1axUAUjDKBVKfN43am7Cr8gPieMntRRBJJp5PhUAgwLn3lWLFb6ZCmzrOlsJo3KTPJEPMpfA4EIhG8XXPyIwBdziMKruDX/148EiALJUS98SZYAFA49cW2Fu91MfHVKhGyTlkO2rHljfojMXUxZBpkjFIGuQANPv27ZNhnMWQ4yUNgq+++kqFUa2WIokM6qwpVAY9EnCja8+a4eOC+cnIm5c0oa+5ZHkKVr0zF5c/OR1n31qEaZdlIX2qflxuxT/Mz4P7OGsS3mhsHjYEGsJ2i5XfHXjwGAM/mVKCvARtpFUfdvLBAVB2EenS271nDcJe+l5EhEKxJHPuZUNZAg0Aw4EDBzQYp9njuEgDwzDi6upq3aDSoAKgSCpZKBGJZVTefJ07PiBSEwtuzqPiukWi2ETNs67JxrI7i3H18zNw03vzMfvaPEgUY99vv95bhdkfryNGHh8NzkAITxzg1jCMVh548OBBQi4S4ZFZ3Emxh7/q5WsbAGSW66DQjmTTo+Eg2jbRqTZkzLkcg6RBDSC5ubk5zev1jqsY8pikYbCeQeH1erMApGGw1TJtxsqhH0od2r58dfjveXOTYCpUU/sgapLlWHhLPm7+9zyojGOTSHc4gpu37sAFn32JTzs6jzqJ8fn6Bo7KAAA7evvQPODmdwcePMbAhTlZWJRGyvCRAIP6zy3Ux0YgEiA/ThFu/uJFMNEwdbEwTV0MmdokAaAAkMwwTMrBgwfHVQw5HqVB9MYbbxgBFCA2ClsDQJI+cyWVN56tYTscrfuHj8suzAAPwGH2w+sIct584rHXZseqLdtR+N5HeLy6hjOmeE27Gc/V1iUmsAB+vXc/H2wePI6Cx2ZN58wuObCaT1EAQFHcfA6ftQPdO/9LXRyEQjHSZl0IxOoa1AAMlZWVKoyjrkF4LJXB4/HI3njjjWwA+YiZQSjU6ZMkqrQiKlWGI6ufGP67RC5E3lwj/yQC2PcfMvVQqFWj7erLsDInc0zl4ZmD9aj4eC3u2rkbX3X14IDdgTt37D7qhMKvunrxz4YjfMB58BgDU4163FBcGEfqfejY46Q+NnlzjFAayEaBI589R2Us0mddNKQ0qAAY161bp8U46hqOqTRs2rRJ7vP50hBLTWgBSFKnnUdlkO1HdqKnesPIDTjbBLFUSP2D2HfEjebtZJHir6aVQywS4eEZ05CqUOAsU1JC5cEfieKdplZcvWkrlq//gjNdMRF+t/8Aury84x0PHmPhV9PKYYybDrr/QzP1cRGKhai4hFSHnS374GzZS1soJMllyyAQiiSIlRykb9myJc3hcBxzVPYxd7w9e/bIEOuY0CLWniFJnrKUyhuu/v1HiOOs6XrwALa92Ewclxn1w54MhVoNDv3gEmxYcS6emXfWKfl5/kgUrzc28YH/FuEKhrHP5sB/W9vxl4N1+MWuffi/b3bit/uqsKGzC55wmA/SdxgGuRQPzaogzrXtssPWzM+lKL84A4K4na99y1vUxUGi0MKYN2NIbUiPRCIZ69atO+YcimP5+Qqqq6tliNUxyIc+n1Qyn7oAD3QeQl/tJuIcP00OqPm4C+ZqUvZ8cHpFwjHKVxbkwRuJ4g9VNXCEQif1c//b2o5fTy/n5G55kGgdcKPG2Y8jAwPo8wXhDocQiEYRYlkwDAMWLFgALCtAlGXgCoXQ4fYe9f/nxbpGSIVCzE1JxvmZ6TgnIx0lei0f7O8YrisswAfN7djRN6ICVr7RhoseLaM6LqokGdKn6NFd2z98rnf/p8CN9KUpDCXzYW/ZKx8UBjLWrl2rv/76660AmBMlDaLdu3drBuULDQCJ0pQtkWlTqKtn6NzxPnGs1EthKlRR/fB5rUFsfZV845+TbMJ5mWM7SN4wqRCX5ebg8eoavHYSakGn14cNnV1YmZ0FHiNwBkL4oqsbX3T34JvePlgD3878gRDDYFuvBdt6LXhoXzWyVEosTU/DgtRkzE42IU+tSkgceZw+CAQCPLtgDhav2wB/JObQ2vSNFR17nMiZbaA6NtkzDQRp8NnM8Nk6oDTlUCU2GIvnAZ/9bXgOxcaNGzNCoVAHy7LRsUZlj0kaWJYV1NfXy/r6+oZcINUAJPq86VTeZD371xPHBQuTqF8Ut7/WikiAJKS/mVFxzH+nk0nw5NxZuCgnCz/eugP2E1Qdnj10mCcNAByBED7tNGN1mxnbe/sQYdnTT6q9Przd1IK3m1oAAAqxCDlqNfI0akw3GrA8Iw0zTUngcXqRr1HjwekV+M3equFzXzx9GNf9czZkKjG1ccmapsOu+OeosZI20oCk0oVDf9UCSPZ4PKbKykr54sWLxywaO2pNw+eff65ArAAyGbG8h0SfS591dNBthav9AHGueHEKaIajw4v6jT3Eue9lZ2JBavK4v8fi9FTcWTb5hH+HfVY7NnXTZ/jEsiwq+2z444GDuHDjV5jy39X4+c692NJjOWWEQa8VQyE/8SJffySKhn4XNpq78MSBWpz/2ZeY9fE6PF5dw3ttnGbcUlKEEv1IKtVtCWDna21UxyS9TAexhLy/HQ3bqYuDwpABdWrB6DkU6srKyqPOoTga1RRs3bpVgVhqQj30WV3eDOoCa63dTBzLtBJkzaK7CHLXm+0YvT8pxCL88azjvzfWd3ad1O/x5IFanJORRk3cG10D+NmOXaiynZj9rUQswFnlasytkCEvSwK1UgSpRACJRAClXAC9ToCiHAkMuliniz/Aotcahbk3jM6eKNq7w2jriv1p7wyi0xLCeOeItXu8eOZgPZ45WI+FaSn42ZQSnJeRzqcxvmWIhUI8OL0M128e2RRr1nRixhWZ0GUo6IyJVIj0Cj3M+0aeI2v9VipjkTx1GTyWFiBm1ihpamoSnihpEO3cuVMHwIhB62gA0BXMpC6otjryZpq0JBkiEb2tlo4OLxq/Jh3m7i2bghz18dV47LHasKvPdlK/y16bHV909Ry1jmIiIMIweLGuAU/WHEIgOr6RvgIBUJKvwMwyOaYUynBWuQyzy+VQyMe/SSvkAuRni5GfnXipiEQYdPUx6OwNo7cvCnNvFIebQ6iu96OmYey22O29fdje24fJBh3uKZuCS3Oz+aLWbxErsjJRqtfhcL8LQGyo3P73zVh29yRqYzJpcQpBGlzmQwi5bZBqTFTFIW3GSrRu+qcYMY8GSV9fnwixDorx1zSwLCvw+Xyynp6eVADpg2qDRKZLlSiNmdQVQVrrthDHJcvoTk3sfotUGQo0avxkSslxfQ+WZfHQ3upT8vvcsX03Vp+/FKX6idnNst7ciceqatDoOrqsn6SXYP4MFeZUyHBWuQKzyqXQKL9dcisWC5GbIURuBncpsTkjWPe1D29+PIBd1Ylb/eqdLvx42078+WAd7i2bjBXZmVCIxeBxaiEQCHBDcSF+uWfEUfXQhl7Mv6kAci2d8Z60PBlbX2pEeFRdlq1uCzLmXkFVHFKnnQexXINIwC0GILNarVIcpe1yzLvFYrHIEHOANA6qDBJD4Szqbiy/3Qx39+GRNy+tBBnT6E1NONp8aNhEqgwPzqiATCQ6ru+z22rHXpv91ChBwQAu+2Izvr7ofKQpJobcGogwWGc245XDjUdNRcwsU+LKC7Q4d4EKU4rE3ymp32QQ44bLtbjhci121wTxp1fs2LB1IOFnG/pduPWbSkiFQlQYDZidbML5melYlJ7K7/inCFfk5eI3e6uG614iwShqPunGnGtzqIyHTCVGyfJU1H46UptlPUQdaZAIJXKkz1opMW9/TwFAZzabVYjVOyaUNMd8DWEYZmgClnKIXCQVz6XuxjJvf484zp1thFBIr4xa+WYboTLMSk4aNnI6Hmzs7D61alAggHcGK/fPZLhDETx5oBZlH63Bbd9UjkkYzpmnwYbXcvHNv3Nw1yo9phZLvtO1AXMqZPjohQzs/CAfl59vgHCMlSfEMNhrs+Ol+gZc9uVmnLv+c9T19/M7/imAQS7F2XHDrA5+0gmGYamNyaQlZDz6ar+mMg6p0y4YnnjZ1dWV7PP5xpx4OSZpiEajQgwWRgy/OZSeTV0w2ze/SRxnz6C3v9nW4kXjZlJluKdsynF/n/eaW/F83eFT/vtlKZVnbGwZlsWbR5owe/WneLLmEPqDidtQz1uoxddv52Pd3zOxePaZp6pMK5Xh7adTUb+hEPf/OBWT8uVH/Xy13Ylz13+BZ2vrERxnLQePsXFRDtmi7LYE0bWf3pkUmdP1RBeFu6cBfjt9w72SpywZcoY0MgyTXFdXN+aDOSZpsFqtQowaXiFWaKAvoktpsB/ZCXdPA+cmoxU7X2sljjOUCpx/nAWIzQNu3L5j91FHYx8LSTIZ7iorxcK0FOJc/IJ4puCA3YHvbfgS91bugy2Y2Ixp+UItNr+TjzUvZ2DuNNkZfy9lp0vwuzsNqF6bh6avCvHXB9ORm5H4ukJRBo9W1eDsTz7DR63tYFl634xPFhdmZ3EKTusoHpstkgiQNpl0M+2r+YK6OCiSsiDTJA+1Xer2798/5iIzZk1DR0eHYDSpyJxzGURiKVWB7NjyL+JYaZBCn0lni5KlnjuU6gf5ecctiUcYllOSmyyXo1inAVigVK/D3BQT3OEI3OEwZpmSoJaIcNg5gCS5DCV6HTKUiuGFr93tQZvbiyy1EirJmVWj6w5F8IcDB/GPw41jTvZcOkeDh25PwvwZ8gl7b2WkSHDrD3VYdbkGf3zZhadf60M0yo1Iq9uLW7+pxMuHG/HsvNmYbOBnvxz3G6VChiXpqfh6lL9J07Y+LA+WQCyjsyMso0KPzpqRFJjl4BfIXXYjdXHQpBeLg26rHICysrJSfuuttybsoBiLNAiam5uHSIMIgDh3yfVUBTAaCcJcSc5Zzyyjd5H65tVmzrmrC/KO+/uU6LW4aVIR1rZ3ojxJj8tzc3B5fs4xCykrjIlHkOdq1MjVqM+4eG7q6sXPd+1Gl9ef8OvnzNPg/luNZ2QK4kQhkwrxuzsNuORcFX72cC8OHE7csrnf5sDyz77Ag9MrcFtpMURCftLs8eC6ogKCNIQDDFp32lG8NJnKeKSWaohj68HNYFmWJv8QCQDIDWkSxMZFGLZt2zbkzcTJk471tAnq6uqkg99MrEzORVLpIqpupN796xHxkgVYaVM1VD5UHfscnKFUC1JTTnhI0ZNzZ+HwVZfig+VLcE1R/nF3XpzJGAiFcPfOPbhq05aEhGHZ3DO7ZuFUYOYUKba/l40XfpeJzNTE6mYoyuDhfdVY/Onn+LSj86TSXbThwuxM5MV5qjRu6qM2HimTyJeOoMcGd1cddXEQyTVDxZBpTU1N6e3t7QmLIcciDcLq6moVYpOvFJmzL5UIBAKiKHKiKt1IqQAAIABJREFUo3vXh5xz6VPpnGq5731uYdD9FVP51fc48VVXD87+ZMPwfIbRKMyR44PncvDpPyZGzcLJQigU4MYrNDj4aR4evTsNGmViYtnQ78KqLdsx/aNP8Nt9VWhz86OfjwWxUIhHZpEzhJq3W+E0+6iMhyZZDpmW3Npsh+mzlBZJ5EPFkCkA0j799NOEY7I5pIFlWYHb7ZY1NDSkYnBQVUrZuVQZOjHRMHqrNpIBFQuQMok+pcFrDaJ9tz1OZUjG2Wl0G1wdD9yhCO7auRtXb9qKbh9XXbjnxmTsXZ2LC5cp+WDFQS4T4t6b9di3pgAXLB5b2er2+fFiXSMWrP0Mrx5u5AN3LLUhJwvLM0fs1xmGxedPHEY0ylAZj5Ricm13d9RSFwOJQg0Aw2OyP/jgAyNGNUMcVWmorKxUMAwzNN1SYZw0hyrS4GqrRtjviruptBBL6cudNn/DtXl+oKL8jL4mlmXxVmMLrvhyM678agteqW+ELxL5Vn5Wk8uNc9ZvxDtNrZyvyaQC/OupLDx2TxJkEt5C+WjIShPhw+fT8ejdaThaCUOIYfDrPVV4ZH8NH7Rj4O6pZLt0zyEX9r1rpjIW8fVqHksTdZxBpk+XINY9oQeQs3nz5vTa2lp5fIoi0eMn2LRp0/CgKqk2WSxRGamKnr1hJ+dcRrmWyoepZRepMkw26LAw7cwumLq3ch/u2bUHW3os+Lq7Fw/urcLZaz/DXpvtlP6cRtcALtq4Ca0JJHOTQYwN/8zBFReowWN8EAgEuPdmPd7+cxbE4qOTrL8dqsfj1TV8e+ZRMC/FhNQ4B9Vd/2rDQE+AuljknkWmnvtbD1AXA1V6MRArQdAOCgZZr7/+OidFkYg0iD755JPhQVWalALqqrEGOrlFMGkU1jNEwyw6D5AFkCuyMs/oa9rY2Y23mridIB1eH77/+WbssZ4a4tDh8eKKL75O6LuweI4GOz/Iw9zpdBY6niy+f54af7rv2JNNnzlYj7t27OEDdhQStjguzRgNM6hd101dLFImayEdVTcTdFvhaquiKga67OE6NTliIyQy1q1bp4/nCcQBy7KChoYG2aFDh4YHVcn0qUMFkNSkKLwJpKn0UvrqGboP9iMSIHOc3zvDScObjWPLjoFoFD/5phKByMnldV3BMH64aQt6/CRhEIkEeOTOVKz/ewYyU/mhTCeDn/xIixlTjl0D8m5LK94+0soHbAwsSTDbo30vfQ6RIpEQ2dNJt9/e/eupioHSlCORqoyjUxSZjY2NGQ6Hg+ii4CgNq1evVgxKE8kAFBKVgbqplgPmeuJYphZDnSKn7kFq2UGmJgq1aswyndmpKnsodNSvt3m8eOrgoRP+/iGGwQ1bt3MmUiYbxfj89Vz84scGqmeXnMq35D/eN7402VMHDyLKMHzQEmB5RjrHIbKvaQB+V4i6WOSeRa5tHZUfUBcDff5wV81QisJ06NAhxZhKAwDB1q1bFQBMiPVrimU6uqrk3b1HEHSTzodJefTlnRmGReNmsnf7huKiM/66zs04tu31c7V12GDuOqHv//PKPdjWS9ry6jVirP9H7oR2dfxfYPFsBR6/59j/n11ePz5q6+ADlgDJCjmWppOpHpYBGr+yUheL7Nmk0uA218HRvJsu0lAwExj0ZxpUHLRHjhyRHI00iA4dOjRczwBAoUrJpypolqoNnHPGXPpa4bprXPDag8PHCrEIPyosOOOv6/YpJZiWdPShYyyAm7buwGfHSRweq6rBe81txDmFXIj3/5aJqcXUCXanBT+/UYe3nsyGQn70zqYna2r5gVdj4Ppi7nN9YG0ndUWkhiwlNKkksW/69FmqYmAsmDX6UAJA3tLSIsGoYsjhJ41lWUE0GpV1dnYO1zMAkGgzS6iqZ7AmGFaSUkyf0tD4NakyXJKTDZ3szL8NFGIxPly+hBh2lQghhsH1m7/Bc7X141o8X2tswl9rybSWWiHExy9m4+xZfMHjt4kfrFDhnaeP3lHR6vZ+K5NVJwIuyMrgdFE42n3orKJvJHl8iqJr10cIuehxyzQUzRn6qxiADIDs0KFD0oSkAQAsFossGo0mDSoNCgASdWYpVTeNu4drDJNeRlfnRDTKoHEL+aAsSUudMNenl8nw8blL8cScmSjSao6qOPy+qgbnffYFDve7xvzcBnMXHti1j/wZGjHW/SOXWivo077xLVZizcu5SDWNPVTv6Zo61DqdfLDiIBYKE86RadhE3/TLeNLAMlHYW/ZRc/2KpGyJTJsyJBQoAOj27dunxiiTJ4I09PT0DHlPKwGIZbpUyDR0DTFhGNLkR5Ukg6lARVUMuva7EHCFiXOlhonlUyEUCHBzSTEqL12JPd+/EPdPmwqdNPGGU213YtWWb2D2eDlfq3E4ces3lcQoOI1KhHX/yMGcCt4O+nRi2Vw5aj7Nw+/vSoVOzbWdDjEMbt22E95wmA9WHC7Pz+aca4lzgqUBObP0iJ9TFbDRVQ9jKDoLg6RBDSDNbDan9Pb2DndQxCsNIoxqr9TnllN30wiEpASfP89I07Sz2BvGZu4bRp564qZo8jVq3F9Rhl3fX4kr8nMSfqZ5wIMZH6/Dz3bsGj7X5wvguq+3cdwkX3okEzOnSMHj9EOjFOK+WwzY83FBwpbMRpcb9+/ZzwcqDmUGA2eIlc8agq3FS1UcZBoJDFnkfeOljDToc6djlNJgBJBUW1srT6g09PX1CUbLEJrMydQ9PBIFKVfnzzFRdf3RKIPmbWTldLpCDq104m+CJpkMr5w9H3+dNwcmWWKV4L3mNqxpNyPEMLhx23bOLInlC7W4/Hv8DIn/NbLSRFj/zyxMK1Um/D9cb+7kgxSHKwtyOefM++lL5xjzyRckd1c9Vdevzpg09Nehuga1w+EYrmsYTRoEZrNZOPhBEQCxMrWQvieHISus08roso/urupHwE2+OU8zJVEVg+uK87H7+yuxIDUZOSrupvOLyr24ZcsO7Ooj3SNFIgGe+sXxkcxgiOGtjr8l6NRCfPhCOlKTuIT3N3uqTtrEa6Lh2iLuet9d66IuDoZMsg7J2byPqutXpxOt9RIAcrFYnLCmQVBdXS3FSI8mlMYsyvhCGG7LiMWwUCiAykiXzHxkG9dG+drCfOoWDq1UirXnn4P9l1+M38yoIL7mCIWwvpPbjvnTa5JQWjj+++Wjz73IWNiEFbd0g2F44vBtICNFgjeeTOcMuerw+vB64xE+QKOQpVKiIq4duauOvg4KbTrZdhno74HP2k7N9StG9v0hAQEul0uYiDQId+3apUJsLKYCgERuSKWq3dLVfgDR4MhMeZGUPue+lkqSNGQoFfheVgbVi+ndZZNxc0nxUT9TUaLEw3eO3y3TYovgll93wh9gsHW3G9v2BsDj28GSOQo8ejfXBOqvtfV8UWQc8uNql3zWEDy2IFUx0KVxU5OOI7uouX6ZLgUCATluora2FhidnmBZVmA2m2VdXV1D9tFqABKZli43SFv9duJYLBVRdf32di88feQCcZYpiWMzSyOemDMTLy6YC62Uy6ElYgEe+7kJSsX4R6c/85oLgeCIulDfzG9e3yZ+fqMOP7qEfIu2B4P4Z0MTH5xRKNJxW5AtDW6qYqBO47ZJO5roIQ1CoRgKPeESKtq7dy83PbFr1y75IGEY9miQaujKZdsbdxDHmjS6bH87q7j5y0IdfYO6xkKmSoWBEHdzD0dYXHJbB+74vW1c9Qk79gfx4r9JRcfm4N0Kv2288HAyp6PixbpG+OO6X2jGJdnc1su+Bg9VMdAmmDPU30xXx40iebgoVgxA3tbWJgUgYFl2RIPYu3evFLHUhBKAWCiSQKKgqwjQ0VhJHJsK6HKC7D7IzV9O1ev5lXQQv6uqPurX//mBDRfc1I2te/xjE7PeKK66sxORCEkubE5+4/q2IZMK8Y8/pEEkGlHObMEA/tXUwgdn6Hk36jE9rq6hr3GAqhiIZUIoDWRtkrP9AE0FyxJt1hTC4Kmnp0fDsqxktNIg2Lt3r2yQMMgBiCVqI1U3is/RhUB/D3EutZiut2xHu49zbk4KXeZeY2GvzYYqm4NzPj5zs22vGytubsejzzsRP+pgwBvFDQ/0wuHiqhUWO680nA5MLpTi+ktJBfX5Q4cR4qdgDmPVJLKLgrb0BADo4lIU0aAHPhs9xZCGwmGDJwOAjHA4nGWxWNTASE2x6MCBA5rBD2gASGRqI11FkK1VnHOZ0+iyj/a7yXG4FUkGZCh5G2QAeK+Zu2D88CIjqtYUcNwHWRb44ysWLP5RB3bXxGpEOnoiWHyNGTv2J16A99X6+NbL04Rf3Koj5lR0+/z4T1MbH5hBXJabA6lopD7H1x+C20pXoW58BwUAeHub6SENsRkUkkERwQAgxWw2x0gDy7ICq9Uqs9lsKRhVBClR01XP4O48RBzLNWIkUWQfzTAs/A6SNKwqLgAPwOoP4r+t5KaSnSbFUw8YMSlfiqd/lXg8c1WdD0uvbcWy6zqw4Mo2NLaOvfB29oawZXeQD/ZpQF6mBP/vEnJ9e6rmIDx8JwUAQC2RYGYSGZ8+ytQGYw7Xn8XT3UjN9WsySyEUiYHBmgYAOpvNphxWGjo6OmQAiEFVci1dpGGgu4E4zppBl320tcGD6Kg8u1QoxBV5ufwKCuBPNQfhDo/UHEjEArz7lywk6cUAgB9dosbPrhvb1GnXAR8crmPXLDz1Tzsf7NOEX96mg2xUS3WPP4A/VdfygRlE/CC33sN0FUPqs7ikwe/spub6hSIJFKbh9V8OQBqJRMQAYoWQvb29xKAqAJDp0qi6Sbyd5NjcnJl0FQC27iLz9Wclm6CWSEA76p39eKuRlCXvvsGEWeVkodRTD5jw/MOZRx3PfCx8vdONgw0hfsc6DchOl+CeG8mW8lcON2JfgroVKuOjJjfNrgN0mTwl5XFJQ9hLl6W20kSYOwoDgYBomDR4vV4hRg2qAgCp2kBVgNwWsoI6o5wu0mDeTy6WpTq66jnGwvP1DcQES5lUgDtXJY7NTT/Q4KPns6GQC0/45639yssH/TThV7fpUFEysjmwAH5euRsRvigSBZo4paHehZCfnmJdQ7YCgrjHOBykSm2RCEUSySheIGttbRVjVCEkMagKACRKejZNhokg5B3ZNMUyEZJy6Ro6ZG0hc5aFWrraTRPBGQjh4zZywt0PLjAOpyUS4dyFSvznmWyObfF4UXuEr2s4XRCLhfj5jWSXWJ3ThRfrGqiPzVQDuf4zURadVfS8aYukIujTyT0gGvRTdQ+EfcOttiIA8t27d6sAyIQAEA6HOZqqQEqPsRETJhdqfYYcAhE99QxeaxAhL/kWYZTxo53/09KKUJSJIw3HLo5dNk+GZMOJxW9PjY/fzU8jLj1XCY2S7H7588E69Pj8VMdlkk4Lk4zcA7oO0DW8ypinitsn6OogCbsdGFQZtADSKisrswGYhADgcnFvBpGY3k1Dm0aXytDXzJXd9GOMhqYJbx4haxkUciGWzDk2mX72zQFY7CdWm9DdF0JDC1/Ff7oglwmxYimZbvJFInjmYB31sZluItWGnjq6TJ7iOyjYKF3PZRTRIdKgBlDY3d09NxQKLRACQEsL1xFNLKFIaQiRbxVynZiqm8PRzs2jJ1GuNDS6BtA04I5TEDSQy46ed6g6FMBjL1pO6mdv/IZXG04nLlnOVY9Wx6WlaFUbRsPWSnfbJUMZaZBrUobqGXQAslmWPcvpdK4UAkBdHZdV0+QIGXCRi7xEQdegKn8/92Eo0NBd07C5p5dz7gffO7qtutURxeW3dyMYOjmTpg1bPOBx+nDe2QpIJSQZdIRC1KcoDFJSbQx5o4iG6CmGjG+7ZMN0Wb0rkzKHlIYh4lDgcDimCwHA4eC2GSmM9IxD9lpaiWORSEjVzeF1kqQhVaGgPj3xfksbcaxRinDJ8qO7Y774jgsW28m3TG7b54FzgJ9FcbqgUQqxZA6XJLe56SZvWilXbYwE6eks0WeQanvYT1fbqTqjdPg9evCP0u12pwgBwGTiGtOo0oupCU68G6SALs4Ay2GypqVER9egsnhs6bag2k5Wil98rvaoo68/2ujDs29aT8nPj0ZZrP6C7rfc040VS7ikod1DN2nQJxgDHwnRQxrkBglEoxQor42ulJUmrWj0oQSAxOfzKYUAUFxMEgRlci7EMnoslPvba0ilQUoPa3Bb/JxBVcWUk4Z/t7Ryzl21YuyY3PcnO667rwOB4KmbHfG75yzos/N+AaePNHCLnzu8dHtmJMu5dW00eTUIBALIRrVXR/xuBAf6qLl+kYzzTEiCwWCMRk2bNo2UJVILqXo4XC3ksCqZmp5CyL4j3LepPLUKNGNnH7kwyGUCLJ49drrmw42nvhXN6ojggaes4HF6kJshxuRCeZzSQDdpKNRyp/yGfHRNY5Uryb3AY6FnaFXQw7W1j0QiSKg0SDX0zJ0Ie51wW5rIG0VDD2kIurmLQBrFky2dgRC6vGRqYMEM9VG7JhbOJElWSpIUBdkjG9CJGj1t3OYGj9OHlYvJTbLdTTdpyFQpOWpDyENXrY1MSaZofH30jMdONHU3Go3G5kwI41a1aJCeli9n014uu9TRM3MhnEBu1Enpbbc81M8tdpo++ejtxy/+3oRLl6shEgOlBRJMLpRAIBDA42MQiQJ6jRCHm0P4amcAchngdEXx7icD6LWGEY2ygACYN12FqjofbM6RRfm8hXSniU43VixV4+nXR9SdlgGetJUZ9fi6e6STKOilS2kQxxl/+W30kAZ1atHYpKGnp4d8+3T20EMamndxzqkM9GyaQS/3zUElpsunYjSq7NxOonjZOh5alQhXruSmdNTKETJeWihFaeHIfXXfLdzZLlZHFA8/a8fqLwcglQjxh3uN4HH6MG+6FMlGMayO2DPRFwhgIBRK2EVAC7KVKqqVBnlcqtrf30vNtWtzpiYkDUIA6OzsJL4Q8NAzotfezFUalBSRBq+T2yKoEFPWPjIKe2w2zrmivNNDopKNIrz4SAo6txWi4fM8ZKbSS97+FxAKBVi5lFR3DjldVMdEIxUf8yVjQpOGuFR1JEBPykquS4VcT067Hq5piCcNAiE9i9VA2wEuaTBSRBqs3AFJMiG9m1WNnTuUpzjv9MZDKBRAJqWXuP0vcf5C8s16t9VGdTxkIlKeD7jpIg2qJHIvoG28gi6nPDFp6OrqIr4gVdEz4TLeDVKqFEEso2fBjjd2iikNdDliDsEXiaDTS9bz6DViGHUTPx5f7Qjglgct+PnjdtQcPjm73LqmEO77kx03/aoPG7aeWfVR82aQqaitvRbQDFmc0V3ATZeVsjZu0qVMm0zV9cuNmcRxOByO1TRYLOSDIacoMGKFDqFR6RiVgS4nxLAvAWkQ0UkaXCFuLPKyTvzN4l9r3Kg5PL5R13+6z4T/VdgDQQb/775O9A++RVbV+7H57awT/n73/dGKzbtjRYRrv+pH2+Yior7ju4z0ZBFMBvFwQepOixWBCAM5pSk7Jq6AnjbSYMgkO8ni5XraEAqFYqShL64vXWHKpYdJG1IJ0qAw0CU/iSQiXmkYRCJrpoLsEyeRG7f58NFG57g++9g9SRB9C+PYzT1h9FgZiAQCzCpPfG97fAzco/rvrWNM6HS6ojjSHttMy4olYzpk9thGJGx/gMGAJ3rGkAYAyM2Uw+aM+ZeEGAaH+vsxy0RnUWqYIQ3GIpT5NMRbSdNkRwAA0SBZwxEMBpFwNLYqJY+aoKiTcohjpV5C1U2hMpEbiQD0dk+Y5DKIBeTGnZ91ZpPI6++3YOm1rVi+qm3s6zaI8Yubk5FsFKMwR47f3p6S8HNPvNKPpde2Yum1rTjSPvYb56//z4TCHDmSjWL84pZUZKScWc+UTk3eA2aK7aQjcVJDJMJSdf3SuInHIqmSLtIQNwHa5XLFlAa/n/yCKq2ImqDEqypSNV0bpqlAjZYdI8VeOpkUAoEANEIqFMIok6EvEBg+V1pw6kjDwlkapJoS318iATtI2U4dmtrD2FU9vg3vt3cY8dDthjH/7yMRBv9ZP75OgitXqnDlShVYlj0j7yVBnOLTHwqDVsT//4nFdK0NIpEQYokQkXBMcRGKKHuhijN4slgsMdLgiWPS6nR6SEO8qiKW0yXNG7JJ5pxLuYW0SiIGRjgD5kw7dW/Jv7w1CcsXyI/5OZszAnNvbJFKNoiQlRa7J/0BFjWHA6hpCCHJIEZpgQRTisYmNf98f2DUs8+iqn4k7SAWAuUl0uGvVY8qflRIQXhKAMDaTX70jUpbNLZEwLAjG8jkAvGwa2ZDSxi+UXM4ppVIIBQm3mx8fgaHm8OobQoNk7SSAgl06qOnM+z9EVTXRdBpicDnjyI9WYScdAkqSiUQn2T9gTdOgveE6SUN6rhUpUwroS4Go50RWYaueTAiCZme7e7uhphlWY7SEF8xObGVBjI9EfbTlbNTGUjmXJTAb54utWFkkTQZxCjKPf2L5Oov/Ljz0VhH06KzNNj4eiae/5cLv3q6N+YgOQorlujw3EPJhKdDR08Ev/iTDZ9sGnG3DEdYLLyqZfhYoxLBUhmzjw8EQXyttECB/WtiCtyAN4o/vNCPF94lWw9XPWAmjvevLhgmGqvu70FNw0jXRPeOSdBrSNIQDrN4/KV+PP1aH+eapBIhfnlrMu69WQ+JhPx3Hh+DB55w4N11dgRDXKncZBDj0nP1+P3dehi0J/ZW6HSRG4MvQu+YcrVEEreJ0KU0REIMoqNSMtFIkKrrl2rIpoje3l4IBQIBIUGJJDJIlfS0XMqNGcTxQDddI4klcemYCiPdLoSjHdUXzlL/z+X1ndUe/PThPtz/ZA9ncwWAz7a4cN19vcTb0I8ftBCE4WTw1KsDeO5f1oQ/+0Th8jBY/CMznvy7JeH3DYUZ/P4FCy64uRvMqJw6y7K47l4LXv/IlpAwDKk0X253Q6c+ccWw30W+OLBgqX0eNBJyfQhRZiPtifOxiQTpmkcikpNKtNPpjKUndDod+gc994USuoYVieVqqpUGiZRcXKfodVSThtEpvPJJp7YIsro+AGGCvSw7TTSmohGJsHjjo5i1dXGeHPlZMmze5UYoPPI2vKvag082+XDJ8lhqaXaZHAqZkPicQACct3Dk/1apGB8ZKsqT4PyzdaiuJ9MT82aooFWNbCgq5fjJ1VOvOnHg8IgSkZkqxY1X6MGyArz5sROdvbGfs7PKjVffc+O2a2IujQ0tYXz+zUhdhVEnwY2X66HXidDUEcK2PT60mAO45SrDmOmQ8ZEaMh0hE9FrdqaJUxr8A3SpLk6zL4409YNmeDyeGGnIysoaJg0CIV05/WiIvCloqwEUxpm30D4WO8qObMbpp7jq/6G/Jvatv+M6E554wHTUf/u7O9Jw/60xBdBiS8bVd/di94GRWqT9h0LDpOGxe2JtYfnL/LDYYhuwRCzE6pfSj/t3XnWZGqsuU+OHd/dg7VcjpOGZX6dgWunxt6O2dYXx/NsjLc6pJinqN+QN1yH88v8MKD6vBb3W2M96/EXrMGmobyY38/MXafDoPWQL3Pb9fkwuPDmyF69i0DyLRS0mnwGPhS4l1hFPGlx0mX2FPGTLuFwuj7VcpqSMtFgxIR9VQYl4yIpwoZQu0hQ//lQnpcvcKh7h6AhpkH9Hui0zU6W47xbdqI1WjIuXkQpZS+eZkWvdtDNAqCRXr9ARhYsiEXDZ+SPzH+z9YfRYY+pfXja5gb2/3oFHn3fCMSqdsHCm4qQcPFmWjS8Yh04qofZ5UMdde3+XH9EQPWrsQE+AOPZSNOUSAEIDVuJYo9HElAaFYkSrjIT8YKJhCEV0PCghN1ngJZbT5fzGhMmiLxGl7ZZD8EVGFsQBz6nNZUvEgoSuj5JjFJctm6fmyO3zZpDkzu8/M/LurR2kcdTWvV5c9lPyXE8fqSg0toaQnqzAlCIJinIVaGqPve0yDPDHVyx45o0+XHNhEu5cpUNJwcmtWwKBABqVCO5RufskGb1EWh2nsjAMi75GN9LL6Kh7i3fAdLcfpOslKk5pyMjIgBiAIBQKCQAM7ZbigKsPSko6KAJucqKnlLKWy2B8e1kkDJ2M3jer/tDIBtZrO7X5249eyB1Xy2U8Uo3ce/JkCv3+l2juJBfh6vpjK5v2/hixlUkE+OiFDJx/o3k4fQEAgSCL1z+y4fWPbLjpiiQ886DpmETsaCjOl2F/7cjvlaKQU/s8qCXc1Iy12UsNaYjGpapc5kOIhvwQSemo/Qt5SdKQlpYWUxoGBgZEACQARAAQcvVSQxrilQahhC6lwd9PLuK9/gAyVXS5ng0rC6EQQqP6sA+3hL4Tv5dOO3HuyfitPCNFCukxNnjVqKLNolwJqtbm4dnX+/HyfxzojyvMe+1DO8JRFq88mnLCv2OKkdwolXxNA7lGiuhRI9m47h6WZeC3dUCdUULH9cfl6pKTkyEGILLb7UoAKgByAAh56JkhH/Y4iOOIn67qYHcfmbNrc7up9dm3B8i6gNrGwHdjo51AKaOSfLJQ5G+/TceKJcf31qZTC/HbO4y452Y93vjQjWfftKPLMkLw/rXagV/dZkBe5okpZo44n4ZeXwCFlPqXhME1M9KmUl735HFSc60SpZY4NplMEALQ9PT0pANIA6AGIImGfJJB5WHi3wBekjR4bCGqHgC3NY40UOyz72fIVE1rZwDB8Jnboz/azC/KsCd1LaK4mgrfCdZQlMTZcm/cduL3m1opxO3/T4d9a3Ixfwa5qR+oP3EXx8ZW8pk47KK3zc4Z4BbYKpPpJg2gaAqwREWmoZKSkiAcGBiY6fV6FwIoAWAEoGTCAWqCEvINEMcDvXS1FIXjzFp6fQFq14J4KZZhgM6eU6c81TQEsWW3P+GfeBnwVCAjdeR6olEWb68ZGPw7UN8cOi4SkZFKSvTvfOJGePDft3WFYe8fX5zOXShH0qihcP/4wI6ovjSjAAAgAElEQVQP1nMNc1weBm+tdhNf27Lbjz//w4m2LpIQaFUiFOaQ/3dG/YmldJraw5yURzvFRLrPz10PZCp60jWJRD5a6hkAro20wWCAuLOz87JBwlAAQAtAwjJRairhIkGSJAS9EYQDUUgoKYgUScnF1RWiS2kZjUylAlKhkKhraO+OcDakE8WDf+kZ+41ufwlOdf1paYEMe2pGNt07HunBo8/b0T8QQSjMoOXrIqSZxOP8XqRC8NoHdny0wQWWZeHyRPGfv2bjkuXH/l5JejGevD8FN/+6a5iYrXrAjD++okBpoQw+P4suSxhN7X4EQyzuvSkVV66M+U/0WqP47bMW/PZZC/Kz5SjKkSItWYzDLUHsPThynTKpABWlJ9Yvu6eGu0k6g/TOnuj2cQtVxSJ66r4SpQbFKgM11x8Nk0qTXq+H2Gw2LxxUGLQAlAAkDEORKyLLvdaAK0INaVAayMV1IEwvaRAJhSg16FBjH8lZmnvO3Gfh7hv0eGetA6Nn7Ix2dTweXHORGo+/JCW6FvrdJ6bCXHOxBrWNKXj2rb7h3+1wix+HW8av8rWaA2g1J1bFXng485gDr8ZCXRP3mlIUCmqfiS5vgu4WmhrMEtxG0jgX4YmMENldGNbpdBB2dHRkAkgaIgyxjZQer3WRlNtOFQ7SUwypTSWv3xOmy0Y7HtOM5FtEZ8+Z+5Y5uVCKD57LRXYaSQzTkqU4b6F2eCrluMilQohPXsnGWeWkY6heI8bCWRpkpx3fTvL4vUZsfy8fy+ZroNdwFQq9VoxVlxtx1cqRn1deIsXF5+ihVCT+vc+Zp8Enr+ThR5ec+KLe2sklVWeZ6J3HYk6gNAgo6p5IpDQIxFJqrj/oGSYNYQBhlUrlE3d3d4+QBQohTsAaoyF6SJMmjSQNvii9E/0AYFaSCf86MjLxsdl84qTh7T+nAn9OPe5/d8tVGtxyVelRP1M2SQrfwdJjfq8VSxRYsaQAPdYoOnvDyM8SwxQ32VQhF4zre00tlmDru9lwuqJoNUdgShIhJ5274Vf+N2d8BK1Uhk9fjbV2W2wRtHVFoVEJkJIkhFEn4hhaTSmS4r1n0xAOp6LPEYXdycIfiCA1WYz0FDFkp2ACo7mXSxpmp5iofR46vdx6E7FEBLpBz/4Q6rcMEwYAPpVK5RR7PB4foTIAEFCkNEhU3LeISICememGTFJ6dYfCVC8H8+I2iKq6iVEYm54sQnryqVnsDToRDLpTu3GkmsRIHWd9hUQiQGaqGJmpOOXvOx1xRZYmmQwmih0hO73c+18kpUdpYCLcvYClZH8Muq2IhPxDhMEFwKxSqdqFGRkZXQDsAHyDX6QKcj33TTBKkUSvNEkhlo1sABY/vd0TAFCk0xC2wQ0tflhsdKsvtMDeH4ElruYjR0P3ALfuOKVBphJPKN+QY26cHvLZF4ilEMvouCd81naCMADYq1ar1wvLy8u3A2gE4BgiDixLz5u2zJAxLnY5USEQCKBOGdkkfZEIrP4gaEaZkexN3rCNbiJFC6rruOQwS6mkNh6+SATuMBkTpV5KVQwCce23uuyp1Fy739qOQdLgAdCs0+l2iUSiHcJZs2Z9LBAItgFoATAAIMwyUWoUB1VSNldpoKimAQCkClJqbna7qd48irWkC9onm+iOBy3YsZ8rxU8x6qmNRyLVUU2ZsZPXQb5AGQvn0EOY+vuGSMMAgN709PQuADahwWDYX1xcvB1A3ZDawEToabtTJHOLtiJhukiDUExWox/ud4FmTNKTpOGrHQNw+xjwmNioaeBukotSU6mNhzUBaYgvnJ7IYCIMfP3kXig3plNz/ZHg8MtSFECgpKTEDSAoBOCeN29eF4BeAP0AwmG/eyiXMeGhTM7lBitE1wYhFpM5ynrKScNknY44DoZYrP/aBx4TnDQcJpUGjURC7RwWALAFuaQhuYAejwKvk/vyLBRR44YZjgb9QxwgDCBaUlISBcAIAUTnzp3rQazYIQgg4ultoubGkCr1ECtI3/poiC6vApFMFEca6PXaB4Ayg4EzjfH9z/gUxUTGvoMhTrvluZnpEAuF1MakL0FtU9pkekhDwMl9bxZK6DH6ioT8GCUeREwmEwvE/K7Ys846K4BYasIFIGJvqqTq4ZBrk4njkI8u0iCJq2moddJNGjRSMYp0JJH8YvsAbE6+i2Ki4rGX7JxzV+TnUB0Ta4BUGkQSIVIm0TPtM5Lg5VGuT6Pm+tkQqbxJJBJmiDSgtLTUD8A6SBz8fquZqtZLQZwrpL+frs7TeNIwEArD7PFSvWDOTiL9GiIRFu+vpzsmExW9tgg2biNTciaZHOdmpFMdl/hhVaklWoik9Bg7seC2lipMWfSQpri5E4OttqxQIBCwWq02OEgarAA8kYA7HKWoGFIkIB+E/m66Jl0qtFyDnEOUqw2LM7gFcG+vobvWY6Limz1cGf7KglyqUxMA0O0n18HMaXrq7xW5jh6lgQmT///eQc+OoaeCEYvFXsTSE34A4WiAnmJIiYYsdrK30DUKV5XM7b2mvRjy/Mx0KMQkmayu92F/XQg8Jha27+cW/K0qLqQ+Lj1xxk4503VUXX/Yy01PKAwUdU+EyOfCarUSpIEVCAShQZIQAYBokJ637eSpy4hjZ5ePqmJIUy7X4Yz2ugatVIqV2Zmc86//d4DfZScYdlaRm+OyjDROTQuNaB2VohQKBUgro4s0+FzkO7MyNR9CCUUtp2GSNLS2tpKkYfAPg1hPJqIhelrMshZcTRyzDOAw00OajPlc17vGAX5zvGlSMefc+586ec+GCYT27ghqGsi17rbSSbzK4PMTc2j02QpI5HQNqnJbyE3TWDCLqutn4moaLBYLQRowijQAQCTsp2fTUKcWQpNBTvmzt9BDmjTJco49bPOAGwxLl8lVPOammDArOYlcSHxRvLeOL4icKHj6n6SiVqrX4ZyMNOrjcsDuII71GfTN4OitJ9usdVlTqbr+aFz3REpKCoc0EPD1tVEVoJSpS0nS0EpXXUNGnPQYijLUd1AAwL3lUzjn/v6+g99tJwDqmkJ4/UOy1fKOKSVUDWQaC7usZFw0aXTZR0eCDDr2k8+5WElXIajf1UscV1RUkKRBGFcp7GqvoSpA+jjpyd5GlwNgRjk3X9k0wBsanZ+ZgbNMpNpwsMGPrXv84HFm4/4nrIhGR9S0LJUSV+Tn8oEBsHuw6G1EaVBQdf2dVU5EglFq//+ZaBh+awdxrqysjCVIg0hE5qucrfvpIg1504hjaytdG2bWDC6LPsKTBgDAb2dO45x77q1+PjBnML74xo9NleT9fcfUUurbLAEgwjA4YHcS5wxZdJEGSyN37RNK6Jnw6bO0gGWGSVMEAJObm8sCYIefELmcrAp1d9RSdZOoUvLJ6+8NIOynh2kmF6khi/NraOzniyEBYEFqMi6I66RYv9mFA4eDfHDOUPzxVRv50iCT4prCfD4wAOr6XQhEybUvKV9NVQz6u7ltuEpjNjXXP9B1mOCRAELJyclRQmnQaDRE1ZvP2Y1IkJ6ctlipA+JymQ4zPSkKgUCAnJmkX0W9izczGsJD0ys4/nD3/MEGhmH54Jxh+HpXAJVxbZariougFIv54AA45CBVNKVBCk0qZSOx7Vw/FnVmCTXX7+6qG00YAgBcBoPBh8GBVQCAjIwMFoPtlkPwO7upulEkcnIk8kACtjmRkVlGXn+ds5/6DoohlOi1uCSXfNPYWeXGE6/yaYoz6g3KG8Udj5AFXlKhELeUFPHBGUSLh5TmCxYkUReDoJf0aBBLFVCZ6JlF4u6sB2K+TQEAToFA0KfT6TwEacjLy2MGPzQcrYiPrjdNhTGDOPY56HL/Sy4iJUhvJIIah5NfRQfxsyncN43HX7Jg864AH5wzBD95yIoWM/n/dW1RAdKVCj44gzB7SIW1bGUGdTHwWcnUoy5rKiCkx6fCNUIanAC6dTpdp0gkIknDrFmzwgA8AHyDkgSEQrrkOlUaaR2baJ76RIY+m2vytK6jk19FBzHTlITL8si3DYYBbnygG702fgLmdx3PvtmPj78glSGFWIR7ErTV0ozDzpGXxeRCDdKmaKm6fle3H25bHGkomEnN9bMsG/Z0NwwJCH4AruTkZPeQoDBMGs4777wgADsGJ10CCIukdLFvTeZkkjQ46Cp0UxmlUBrJ3OWadjO/io7eeObPxqI0cpiVxR7Cql9YEI3y8fmuYle1H795xsI5/+tp5bzKMHrNC4dRN6qWaeoK+oyumrbbOOcMFLlB+m0diI5YSEcABNLS0kKIjZuIdU8IBAK2vLw8qNVqhyddAggzDF1vT9ps0vHL3UffcKJpl5JSZKvbw6coRkEpFuPdZWdjQWoycX7bXjceftbOB+g7iGCIwf/91kJ4MgDAypxM3DaZt4wejW8sVqKOqXhpMnUxsLdwGwAMxXOouX5Pb3P8qWhWVlYUMdfoEaVBIBAwGRkZxKTLgL2LmkmXiUiDq4s+A5+ZV2ZDrpPEqQ18imI0FGIx3l56NiYbSEOsv7xuxZovfXyAvmN47AUXGlvJOoYyox4vLZjLuz/GYXX7iKFP6mQtVEky6mIQcJEvyxKlHppMelJYPmvraJUhCoApKioaHrhDzJ7Q6XTEpMsB8yG6lIaMEggEIyFxW/yIRukaTiRRiDDzCrJLYG17O7+axt8rUineWboISTJyUb31wS40tIT5AH1HsG1vAH99s484lyKX452li6CSSPgAjYItGMQno14Q8ucYqYxD0EM+v8biOVSRS5+NcIIMAwjk5+dHE5IGo9HIjGIXkf62KqpuFqFEDnVKwfAxw7BwttOnNpRdlA6hcOQhaXV7UePg5y3EI0etwt8XzSf8G9y+KK66qwsDXr7A4X+NpvYwrr2nk0hLyEUi/GvZImSqlHyA4vBSXSNh6hTv20ILwnH20aZJ86i6fp/dPFpp8AHwlJeXhxCfngCAgoICwqvBVr+NuhtGnUVOu+w+SF8fvtIgRd5cE3FudRufokiExempuDVulPKRtgB++lsbH5z/Idq6wrjox2bYnKTU/PyCOZhlMvIBioMjEMI/DjcOH4skQqSWqqmMhd9FKg2G4vlUXX/A0T2kMPgBOGQymb2ioiKQSGnA5MmToxjl1eBzdMHb20RVwLQZZC9+6046i9viC6DWtnfwK+sY+NX0MuRryNHBH33uxF/f4B01/1cKw/duMKOjhyxk/s30cnw/L4cPUAK8duQIvJERgpVSpIFIKqIuDiFfBJ6+UfUvAgEMRbNpCkHYb+8aIg1OAD1z5szplUqlQYFAwFUaioqKOF4N9oYddCkN6eRbo3m/E9EQfVJz9nSyyK/N4+W7KMa6ZyQSvLZ4IRRicpH9zTM9+OIbfhrm6URVfQjnrjLD3EsShhsmFeJu3o8hIViWxbtHWohzpiIVlbEw73ditAmuLmsKJAq6fCp8jq4hlcELwLFo0aKBIT6QiDRwvBpcnXQVQ6rTSTvZSJhBX6OXuodHnSKHUk9OddvU1cOvsGOg3GjAq2eT9Q0MA1x3Xyeq6kN8gE4DNu3044Ib2tEXNzfg4pwsPDlnFh+gMbDHakeHl+z60abJqYxF2y6ydstYTFc9Q9jrQDTowSBJ8ABwLlmyxIvBegaCNAgEAragoCCo1+sJrwZPzxGqgqZKK+acs7fR2UaXPdNAHG+z9PEr7FGwIjsTT88lpUy3N4pL/68DtY08cfg28fHnXlz20w64faQquDQ9DS+fPQ9CvrVyTKxNYOCmMsiojEXbHpI06AvoIptemxkYqWewSqXSvrPPPpuQSwmlQSAQMIsWLSK8Gry9zVR5Ncj1aRDHOWE6OrxUPkCFZ5PFkLv6bJyRuTxIXD+pAA/NqCDO2ZwRnH9jB5+q+Jbwzw8GcN19ZoQjpHnT3BQT3lyyADKRiA/SUbDOzC1yTiqkLz3htgThtpB+HvrsMqpi4OtrGyINHgDWuXPnWpRKZWionoFDGgCwU6ZMCQEIDsoTcFuaAYaujUKRRBZL9XfSudjnzUuCWDay4AaiUeywWPlV9hi4q2wyfl5OWpL3D0Tw/Z+247EXnPw47VOIP73sxB2/70b8MNaFaSl475zFvBfDMXDA7kBnXGpCqhIhpZC+zglLo5tzTpVRTFMIRosEbgDOpUuXEvUMCUmDVquNAmAw6NXARkJw97VQdfOo424URyedSoNUIULBAlJt+Mzcxa+048CD0ys4UzFZFvjDyxb84I4e+PwMH6STAMOwuOsxK37/AneexHXFBXjvnMVQ84ThmPgkwUC6SYtTIBDRl85xdMSRJ3USpGq6xoIPdB/GIEkIAPBNnz592J9hLNIApVLJDP6D4ZTEQNsBqgJnLCJ9xl2dPgTddLr8TV6eEkcaOsGy/JvyePDIrOm4Y+pkzvkNWwew4pYuOFx8qudEEAgyuPZeC/7+HtkOLRUK8bf5c/DXebMh51MS48L6BKmJyd9LozIWljqyRVqbTV+3TX9r1RBp8AFwFRQUcKY2ckhDSUlJCHFtl47mPVQFLm36BZw3xNZddDoi5s41QqYdeWPr9QewucfCr7bjxMMzK3BXGXfx2VPjxfLrO2Hu4S2njwf2/ghW/rgLa77kjrh+e9kiXFOUzwdpnGjoH0Cji5Tkk3KUyJympy4WYX8U7fvIlnJdTjlVMYiGfBgw1w6bOgGw5uXlBY5JGhYsWBAUCoVE26X98HaqgqfLmw6liZy/0LyVToc/oViISYtJo6eX6hv5Ffc48NCMcvyigkscGlr8WHSNGZ9t4Qskx4PaxhCW/KgTlVVeDmF475wlOCcjjQ/ScWBtB7dropRSlaF5uw2ROPvopJKFVMXA2bofLBMdLoLU6/VWvV4fHF0EySENAoGA1el0wenTp/dhVNuls2UfIgE3VQHMnPcD4rh9nx1slE5ZftIyMkWxqbsH+2z8LIrjwQPTyvHL6dxK7D57CFfc3o7LftqDVnOED1QCDHijeOgvdiy4uhUtZvLFRyIU4M3F3FHlPI4OlmXxXnMr53zJOalUxuPI12Q7uVAkRsq082gKQbi/ef9QEaQfgKuoqMiDUWMlxlQaAETnz5/vRsxC0g0gzDLRsKNhJ1U6avaCq4jjkC8KWyudBZGZ0/WcEbl/qa3jV97jxH3lU/HorOkJv7Zxmwuzr2jBK/8e4AM1tIqFWbz87wGUr2zF069bEYlwSfuf5szEOZm8wnC82NTdizYPuZ6lFmuoNHUKeiMcf4aUaedDqqQrTdPfug+IlSQEAfiLi4sTmsskIg3sjBkzgoOEITD4TWCt30pVAPX5s6BMJlsv+xrcoBFCoQDFS0i1YaO5i9OqxePY+MmUErx/zhJkKBWcr/n8DH7+h258/yc96O6jt9YhGgXeWu1GxUVtuOcP3bA6uAqMWCDAwzOnYVVxEX9TnQBeqGvgnCu7KJPKWHTu60c0THYz5S66jro4uNprhv4aABAoLy+PIK5zYizSgKlTp4YADGCkGDJsr99OXRDTZ11MHCfq46UFk5Zx5d//trbzq+8J4JzMNGy/eCVuK50EiZDb2vb5Ny5Mv6gVv3rKjprD9JCHaBT4zzovZlzajtse6kJ7dzDh55ZlpOHrC8/HHVNL+ZvpBFBtd2BrL1nMbMpVY8oKOhWbnriuCbFCg7SZF1IXB0/MoyGA2MwJ96JFi4LjVRowbdo0v0gksiFW1zAAAPaWPYiG6CrYSi0nc1qdVfQObEqfqoXSSKYoPmzjScOJQiMV47HZM/DNxStwUTb3Dc/jZ/DsW1bMu7IZ5Re24ZG/OdDaOTEJRCTC4N21Hsy6rA03/cqMpvbE60yqQoE3lyzEB8uXYLJBz99EJ4jnaus555bcXgiRhE6rbUuThzjOmH0pRFIFVTEIeeyIhgPhwf2+Ny0trXf+/PnjIw0CgYBVKBTBioqKbgAdAPoB+NhIKOxs3UeVZmqasghCkXj42GH2obeOzpyzQCBAUZytdL3ThXpnP78KnwQKtRq8sfRsfPq95ahIMiT8THNHAE+82odpF7fg0eed8AcmRkFuIMjg1f+4UHFRO255sBONrYExP/uD/Fxsv/h7uDAni79pTgLtbg/H0MmUq0b2WUYq48FGWfQdJtf0rPlX0xaGsM/eOVQAaQfQeu2115pFIhGnc2JMpQEAc/HFFzsBdA1+kwAA9B+hy69BLNfAUEROOdv3vpnaBad0Obey+h+NTfxKfAowN8WEL1ech6fnzYJJJhvjjZzFH1+xoPCcZtz0qz68v94Nl+fMc5bsszP4w0sOlJzfgrsf70FbV3DMz2aqFHj3nEV4+ex50Mtk/I1yknivtY2TpJ50Xiq18eipH0DQO1IzI1UZkVJ+DnVx8HQ1DFlHdwBoufbaax1I0DlxNNLArlq1yiMUCjsHiYMDgM/Ztp+6YKaWLyOOm7b2wdVNZ199RoUOqZPI2fLvNrXgiIuv+D8VEAoEWFVchN3fX4mfTSmBVJj48ex3R/CfdQ7c8EAX8pYcwbX39J4R47d3Vfv/P3vXGd3UlXX3U7MkW5YsV7n3jo2NDaYFCKG3UBISAgkpZCaEEFImlQSYMMmXPkkmIZNeIZSEFHrvuIAB996bbFku6noq3w/Zkp9lCMUto7fXYi3rYktX951337n7nLMPHnlZishpZdj8SXOfCY7WzZvJwLr4GJyfPxvT/Xxp4+gn7Kqo7nUwYmDEXMetPik+Ri219B29AAymQ8mPkwDQUZPTrc/QFBQUVJeUlKTpi2W4qtPQ1SZbu3jx4loApV1sg0Zh8UYcKkThFT+V6k2Zgcu/OG7/hfGPhFItzmTGxks59G7cj3DlcLBp1EikL5iNu0KCcK1Is05vxu7D7Rh/dwXue7oJp7I0GC6NSNs6jNh/UoMX325F/OwqTFlRja2/t0FPXp0d4TAYeCgyHBfunIv1SQngs1i0QfQTMptlqFBQ4/eJ8/3AE3Iccj2MRhOKj1ETQv3HLHbEpSBbC89qYElFaJ45c2YHejWpojia11rTxx9/XLZz586KLsrCX9ve5ArAodwwUXgqWFwBRdyq8EgTJq1xzFKvwFQ3BI12R3WmTff/YG098traEO/mRu/M/bnWLs7YMiENT8bF4N28AvxaVYNrZTPsPtyO3Yfb4cJjIGWEM6JCuQiQMBEoYSMihIXoMA6cBjDZTd5hxLFzWpy6oMG5bCUKyrTX/bfhrgLcFRqE5eFh8OZx6Ys/APikoIjymslmIPnuAIddj+oMObQdtjMwmy+Ce9xkx/MYVHLIyzMMXUxD25QpU1TA1beaqzoNBEGYTSaTxs/Pr66+vr4JQJtOKffqQWk4hPPAYLLhETsRTdn7rGPaDhIKqQ4Cb8eMsU5+Ihw/PCiHsYfYzmcFpfhw/Gh6Zx4ARLsJ8fnEsXguIQ4fFxZjV0U1tNegE5QaE05kKnAik1oizGYRiA7jIj6Si4hADvwkLIhdmXDiWLQ4AMBsJmAymWE0mWEymWE2E2CzCbgLmfCTMOAlZlp/V9ZmQF6JAVk5Ghw4rUbGFQVM15liwSIIjPJ0xzQ/X8zy90OUyJW+0AOIorYO7O3VoTZ+tsROtM2RkLenifJakjwLTJbjsS71GbtJk9GggaVasnnChAnXjL9fk/sjCMJw5513dnz88cfNAFRmg15j0Cr4LK7AodgGr/ipFKcBAJqKOyFwUOlaN38+kpYE4MJPNdaxXdXVeCU5EZ48OlltoBAhdMW/01KxKWkkfq6uxo7yKlyUteJ6aylIgxm5xRrkFt98Tg5BADwuA3rS3KdC47Xgw+NidkAAbvf1xjhvT7hyOPRFHQQYTCasS8+i2ImTKxtpKx23uZdCqkFlegvVaUi90yHXovLoF9Z+E76+vlI/Pz/91fIZ/tRpAGCePXu26uOPP27relODWlYDV/84h1pUr8Q77MaKD0sRcZvj6t2nLg9C3v5GK72nN5rwaVEJXkkaARoDC6ETGw9FhuOhyHB06EgUdnQgT96GQ/WNONXYBMMAti43my3KldcLDycnzA7wx6KQQIzz9gSDIOgLOMjYlJ2DCzJqG/GJq0LBE7Eddk1y9zSh523CdOLDZ+QMR1sGsq08i2yruGjtN5GUlKTCVaomrtdpwKRJkzRsNruZJMkWABpFXSHp6h/nUNbm6hsDvmcQ1C22zOPysy3oaNBA6MtzyJvOyZmF1HuDcPpTW8nlloIiLAjyR4KYzm0YTAcizcsDaV4eeCQ6AlKNFntqanGmqRkXWmRo1GgHZR58FgtcBgMCDhv+Ls5I8fDAVF8fjPF0B5PBoC/UEOFofSO2FFIlowU+XMTOljjsmpjNZhQcaqSM+abMA5PDd0SWoftHAwAyNjZWD1ybvPyz8ITZbDbrkpOTmzIyMloAKOWlGWTvDpCOAMmouSg/8DHlxJX7RwMm/C3MYW++xDv9cHFHLdRyS5293mTCQyfP4ujsGRA6Oe4pZijhzePi4agIPBwVAQCoVaqQ3SpHpUKJJrUGBe3tyGqRgTRdPxvBIAiEu7ogSihEqKsrggV8+POdIeHz4M3lQeTEBkEzCMMOJrMZr2ZfsRuPnyWx5qU4IqSFCiibqdogQZMedDz7MBlQl7m722EwAjCEhoaabslp6IJx3LhxioyMjDYACumVQ+SIFW93p5w6zJPBb/SdFKcBAIqOSTH+0VCH3TBZTgyMuS8Ixz8qsY5VKVV4/HwGfpg8gd61hwECXJwR4OJMGevU63FJ1oYGtRoakxF6owkqA4l2HYlOUg+d0QQeiwkJn4dEsRjjvT3hwqadwL8afq6sRnE7ta8Cg0Egdoa3Q69L6UlqLoMocIRDCjrJSzNgUFEUfY1eXl5/epq4HqfBnJycrIOleZW2s77QoJSWw8XbsU7YHlETwBX5QNtuy7hVNusgK1fBM9zFYW/A+Hm+uLCjGgqpzXM/UFuP78vKsSLccVmY4QxXDgeTfL3phfgfx0e9SiwBIC6gARYAACAASURBVHaWDwTePIdel5JTVEGn8NlPOuQ6yPKO9XxJAiCdnJz+VOXluoKNXXGOji7HwVB76gfHW2EGEwHj7DXJpUWOrYbIZBMYszzUbvzdnAKYzGbQoEFj8LG7qgYFbVSWgcNnYvxDoQ69Li1lSiiatD32Lyf4jlnkmGtReLr7R0PXs13p7e39p+KN1+U0hIaGamGp4ZQD0FSf+ZE0O+ADIXTm43YSo82lSoffoGJmeUHkS00iqlOpsa+2HjRo0BhcFLV34NmMi3bjY1aGgCd27DLX3qEJj7jJYHEdjyk2GvRoK83oZhg0AOQEQbRGR0frbtlpIAjCLBKJdC4uLs1djoNS3VxFtpWcd7iFdvYMRvDUhyljNQ7cLtvqrTMZGPtQsN34i5kXIdPpQIMGjcGByWzGqjPn0aGn9iLxihQgeRHdIbTsNDU04ZMwwyHXobMimzToNd1tIdoANMbHx0tdXFx019JouG6mAYAxKipK0fXmCgBkQ/Yeh+tDAQCRc5+hvG6vVaOxsMPhb8bI273gFS6gjDVqtPj76XSY6TAFDRqDgt+ra1HYKyzBYBKY/lw0CKZjV7jIa9WQV6spY+7R4xxyLVpth34NABUA+YwZMzrwJxoNN+I0mMeOHavrchi0AAzNlw865GLzPYMgDkmmjOXsbnD4zYogCEx8zD7x8URjEz4vLqV3cxo0BgEf5hfajY1ZEQyPMBeHX5uyUzLqnsVgQhAQ55Br0VpyrvtHAyz5irL58+drgD8XmL1u1ZU5c+bout68E4C2vSaX1HZIHXLBvUbOpLwuOS5FZ5PW4W/KgGQ3REzysht/7VIOGtUa0KBBY+BwqlGKHDmlhA7eka5IWR5ILw6A8lPUfAYXzxAwWY4pe99SfA6wRAo6AbSIxeLmcePGXdcmfd1Ow9SpU7VisbgJQFPXB5Gy3GMOueD+Y6niVkaDGenfVtF3JYDbHg8Dm8ekjGkMRmwpLKIXhwaNAYLZbMYbV/IoYywOAzNejgaTOTwUOfUaIwoPSbFvUwFMpsENWbZWqyAtoVa6uUWlOaStKBtLSH1nCwlLxUQ7gPopU6Y0MJlM7Z/lM1y300AQhJnNZusWLVpUC6ASQCsAjTTvmEPmNbgGxEMcPoYyVnioEW11aoffvASeXEx4xD5M8X1pJTp7JWfRoEGjf/CfgmJktVDp94l/C4c40HnI52YymZGzux5f3HUWB98oQMkJKZpLFIM6hyu/2Fdyhc1Y7ZgsQ97x7h+1Xc/yhgkTJrQDuK6mMjfighqXLVsmB1ABoAaAoiXnMOmoSW4hUx+hevom4NLOOnr3ApCw0BfhE6jNvBQkiXdy8+nFoUGjn3GyQYrXLuVQxgJT3JGw0HfI56ZpJ7Fz7SUc+7AEepUtx64ma/CqzjRyPQr2U3tNSJLnwC00xSHtpfHyfqBHaAJA3fjx45XA9TXMvW6ngSAI8+TJkzUBAQF1sIQo2tRtDWRbRRYckW3wS1sMFldgxzbo1QaH38QIgsDM9bHwiRVSxrcUlOBkgxQ0aNDoH9Sp1Hj4zDmKkBpXwML056OGXN5eI9fj53WX0Zhvq+bwChfgtsfCETPdZ9Dmkb2rDgaSeoiOmv8Ph7QXg1ZBtuQe6xmaqPHx8WkcNWrUdYUmbpRpAEEQhqVLl3YAaIalTENTf24n6YiLz+K6IPi25ZQxUmtC8dHmQZ1HW50a+fsakftHAyrTW6FpHx6Xg+XEwILX4uHkahPDMgP425nzqFPRYRwaNG4VJrMZj54+j3YdNex3+1NRcPEY+gS//W8UQVZtEb9zcmZh5ktxuPezUUi+OwAC78GZn7bTgMu/UhlgYUA8xFGOWWrZeHEvjKQW6BGaWL16tZzBYBiv9z1uNEPGPGvWLBUAGQAlAEPtue0wmRzzdB2+4Dkw2VTjz90z8OWXeo0ROb/VY/uabHy7IgOH3y7C0feK8duLOfhs0Rn89kIO6oaB6BRPzMHEVVTZWplOh7uOnoBcS+c30KBxK/iiuBSZvfIYIiZ7I3KK19AzIJfbUXOh1fp6zoZYRE/zorAfCqkOtdltUMkHbi+4tKsOpIb6PAyavNJhbaY+fRfQIzTB5XLr1qxZc92hCeD6GlZRMGbMGA2TyWwxGo0tADTa9iZSlnuM7ZU43eEuAF/sh8CJy1F57EvrWHOJAk0FnfCJdR2Qz9R06LH7uZyrJhKZzUBlRisqM1oRM80Hk9ZEgOvKGrI1ip0tQe4fjZTM5dIOBe49cQq775gMPosFGjRo3BjKOhT416VcyhiHz8TkNcOjSVxLL3n9piIlmBwmmkoUqLvYhobCTug6baxo2ERPzHwxxq7y6pYOV0oDLv1SQz0lM1kImHCPQ9oMqekkpVcOUkITd9xxR6Obm9t1hyZumGkgCMLs7OysGzFihBRAIywKkWT16e8dsooCAPzS7rIbu7ijdkA+SyXX4+cnr1x35nHh4SZsX30RCunQaSQwGARmrI8Bi0s1tYstrVh3Pove/WnQuEE0q7W49/gpqAxUhnfsg6Fwdh+asERVeit+fuoyjHrLqZ7lRH34n/uqAjvXXcLpT8pQmdFKcRgAoPx0C/Zs7N9E6cu76ynJlwDgkzQbTq5ejmk3Vw7BSOoAatWEHNehAnnTTkMXjGPHju2ApXmVCoCmIfM3GNSOKaXsHjUWLA611WzZqWbIa1T9+jnqNj12rb1kjRHaPGcC0VO9MeWJSNz2WDji5/iCybJRgG31auxYcwny2qHLIxAH8DH1qWi78V+qavBVSRn9FKBB4zrRqdfj7uMnUamg7gPeMa4YudBvSObUVqvGno35qL3chvRvqgEA0dO8KPlM14PqzFbUXW7vp1O1ERd32R/egqc85LC202rpakmpmpg+ffoNhSZu1mkwT5gwQYMeeQ1GUova8zsd8kIwOTz4j6fSXWYzcP7r6n79nLNfVKCtnvrgDxnjjod3jMPM9bFIXOSH5LsDcMezUXjwxzSEjrWVPCpkOux5ORek1jhk6xQz3RuxfWRMr8+6hCutcvppQIPGn0BrMGH58TPI66X6yGIzMP35oektYTKZcWBzIQw6y95yYXs1moo6weYxcef/jQBXaO84sJyYCBjphsSF/ggYJab8X31O/zgNBfub7NgMvkcAfEbOcFTzIWUl5ymhicjIyMakpKQbCk3crNOAiRMnaro8lRZYGl6QNSe+ddibOerO58FgUmPzpSekkPaTgImsXGlXZxw6zgNzXxsB5z5a3bp4cTF7Qyy8Im0lofJaNU5vKR/SdZqyLhKeYdQyVb3JhIdOnaMTI2nQ+BM8k5GFc80tduO3PxUF96ChEXHSdpCUfCX/JDFcuvYkSYwQy79IxbR/RCP1vmBMfyEW932RitV7JmDx+yMxZW0E5m6i9n5gsm89p8FsNOPijhq78dBpjwEMpkPajkGrQEdNLtAjNLF06dIbDk3clNNAEIQ5ICBAFxwc3DOvQd1alkEqG0scMq/B2SsUwVMeths/81lFv7z/qU/K0VNDyyPIBXM3xYHJvvrJguXEwLzN8eC7WW5gNpcxaGVOVwObx8SitxIglPAp49VKFVaeOgO9yQQaNGjYY1tZJbZXVNmNj3skDLGzfAZ1LgqpBjvXXkLpiRaoO2zOfmCyGHe+Hg8XL67tAOPhhLjZEox/JASxM7zhGeYCBotBYQSsDyMmgcgpnrc8v7LTMnRKqb2AWM4ihEx13NBE85VDMJuMlNDE4sWLbzg0cdNMAwDj9OnTO2AJUahg6ZSF2rM/OexFiVz4AhhMKhVXe1GOmou3Rr3LKlSoyaa+x21PhFFuPHmVGpoO+5O6wJOLef8cgdjpPnjg+zSkLgsa8nXiiTmYvTEWRC/LOydtweoz6RSRGho0aFgqJZ7PyrYbT3sgFKPvG9xmVPVX2vHDoxdRn9uOvZvycOqjcsq+xORc30lerzbgzH/LceoTWwfckYsC4OrDveU5Zu+yV+YNnrwSbGexo5oQWX/xD0poIjY2tjExMfGGQxO34jSYu9poymDpfKkFQNae2eqwNzZf7IeAiffZjZ/9svKW3ldeTU2oDExxR2CPOKBWSeK3l3Kx9ZELaMizT0aVxLti+osxw0LspRvekQKMmO9vN/5rdS2ePJ8FM+040KABAGjX6bDi5Gmoe1VKjLo7EGkrB/8QwBNzYDbYGMHuA42TKxsewX/efruzUYusrdX4ZnkGLvxUY2VQY2dKMOHvobc8P2mhAo35vXI+uAJEz3vWYW2IVMnRmLEb6BGaWLt27U2FJm7FacCMGTPUYrG4EUBdF+VBKqUVaK/MdtiLEzF7bR9G3Imy07Kbfs+Oemq5ZEAiVZr58FvF6GhUQyHTYdeTl3Bxe81fYq0mPhoKjyD7TWZbeSWeyrhAOw40HB5KksQ9x06jtIOaGzVini8mPjY0egziAD6mvxBrzxwoSeg1134G1V1qw1fLzuPs5xVQt9mY0eS7AjHtuSgwGLeeyJndR8VE1IJnwRF6OawdlfzxHgx6jTU0IRKJ6lasWHFToYmbdhoIgjCzWCzdXXfdVQugHJZeFBoAZH3GbtJRL45rQDx8U+bZjad/U3XTD0FFi4560wbb8gGMpBlOzrYETJPJjNOfluP3l3OhUwzvy8DmMXHnO/b5DQDwQ2kF/pF5kX5q0HBYKPQGLD12ChdkrZTxyCnemLIuckjnFj7RA6n3BVPGzCbg4k/X1qfxT3JD0uIA62uhhI8l7yfhttVh/dInQyHVofQEVcbf2TsMEXOeclg70rTWkmX7PqCEJubPn9/I5/NvKjRxS0wDAOPKlSvlXU5DIwAFALIh81eHvtmjl7wK9LoBZBUKVJxuvan3840X9XovW7iCySYw/floTH8uBiyO7VJWnJPhx1UX0FTUOazXysXDCUveT4Cgj9DJNyXleCEzGzRoOBrkWj0WHjmGjGYqQxk8xh0zX4rulxP5jcBstH+2jH0oGIEp7pSxC1ur0Fh4bb2eCY+FInGhP+ZujMcD36XCf6So3+Z5aVcdTCbqXEc+8D4YbK7D2lLpnvf7RdCpX5wGgiDMaWlp6oSEhFoAlbBkZKoVjcVkZ0Ohw7INoqBEhM9+0m78wk83FzYIHS8Gk227TKUnZVbVtW7EzvJB1B3elLFOqRa6DvueIHq1AQX7myj04FBC4M3DgrcTwHG2T6D6orgUGy9epp8iNBwGdSo15hw6gsutbXaHh7mb4ikJ0AMFg96EzB9r8M39Gfh41kn8Z9Yp7NmQj6p028GHwSAwe300XL1tD2SjwYw/NuRdc29hMhmYsjYC4ZM8+/W76BQkcvdQEyB9Ry+Ed9JMh7Ulk5FE7dntQC9Bp7S0tJsOTQDALRWtbty4EQRBMPfu3esJIBCAJwAnnpsv2yN6AtNRL5ZnzEQ05x6DRl5vHVPKdAif6Al+H7oK17xAbAZk5SprQqS6TQ95jQbhkzytlF75WRnO/JeqwZB6XzBGzPe1e7/G/E788WousnfUoi67HW7BfAg8h9YT54s48I5wRfExKXpHcTJbWsFkEBjn7bgxSRqOgbIOBeYfOoZqJTX52TNUgIXvJIDDH/g+LbXZbfj5mcsoP90CbScJk8EMs8kMebUKRUelMJsJBCRZ2AEWlwn/BBEKDzZZT/ik2ghpoQJR070HlRG5sK2OUqnG4gkw7vnfwOYJHNaeWnKPkZXHPidhEWGsB5AdFBSU+cYbbzQTBDH4TEMXzCtWrFAIhcKarknJAZCNDh6iYLC5SHt2F5yE1NP/zbbNnvp0FNyDbeItZaeasevJy2itVKGzSYtD/1dI+X3/BBHGPRjc53tJSy1JVWYzUJfTju2rs3HozSLolUPbqTQw1Q3Tn4/t8//euJyHH0orQYPG/yoqFUosPHwMDWpq4rPIl49FbyeA68Ie8DlISxT4/eUcKJt1V/2djO8qcfJjW5mkZ6QAU5+OorIlOe04+9/Bu191ChLZu6gKvLFLXwPPzdehbUqac7CbZegOTdSsXLmyDbcQmrhlp6GrgZX2oYceqgZQiq6ESHllNqlqqSId+YJxhd4YtepTyljRMelNJURyXVlY9O5IiHxtSYMNee348ZEs7HgyG7oeD3y+GwezXo29qqSsJMoVkZO9Kd3kCg404uenL0PbObSOQ/Q0L8x8KY7SO6Mbz2VeQI6clpum8b+HOpUaCw8fR6OGKkgk8OFiyfuJ4N0gO3kzULXq8NvzOSC1lnLKsImeWP51Kh7+aRxG99J3ubSrDjm/2VjUmJk+SJhP7XuRvbMGJceaB2X90r+rojSmcvWLQei0Rx3erhou7u12GuQA6gmCqFu5cuUthSb6g2kAAOPjjz8uJwiiDD0SIuvP73L4i+Yzag78x9q6YCqkWtReuDltdWcxB4vfGwmvcBvdZjKZKacCggBmvhxzzU53vglCzN4Qi1U/j8fo5cFgdeVLSEsV+OWZyzAah1aVMXqaF5a8nwxBL5EXvcmEVafPQ0mSoEHjfwWNag0WHj6GOhW1r4wogI+7/51MUVccSJQcb4G63ZKLIIkTYu6GOHgEu0Dg7YTkewMgDrIdWBhMAkQvdbZJayIgiaOWgx/7sGTA+920Vqtw5Zd66h5y5wtgMFgObVfSnCOkSlpOwlLV2ASgdMaMGdXBwcE3XTXRb04DQRDmsLAw9aRJk2rQIyGy5pTjtsvuiREr3gGLa3vQ99V57Xoh8HbC0k+TMX5VqPVh3xNpD4RQhJ/kNSoc/L8ifP9gJn57IQfZO2qhVVouCYfHxLiHQyjlW81lChQdlA75mkniXfHAN2MwYh6VXizvVGLtuUxaw4HG/wRaNFosOnIclYreAm5i3Ptx8qDKvpedsSU5hoxxtzKVsgoVtj2aDXm1xalxdnfCXf8eiRHzJZS/Z7IJzNkYZ5WtF0r4WPLuSLC5A5vadvI/ZZSKCb53CHzH3eXYhmUyIve7Z7pZBkXXYb5szZo1t1Q1Yb3W/THHjRs3QqPRUBIidQqZkzhyLNvFO5TpyNePzROAYBBozjsGwCLWFJgihuAmTxAMBgG/ESJE3u4NI2mCvFoNk9GMwBQxpj4TZU2ObCroxM9PX0ZTQSc07STa6zWoviBH7t5GOPGZ8IqwzMsrQoCc3xusJwJtpwFxsyVDvm4MFoHQsR4QeHJRldFqTZAs7uiEykBiiq8ENGj8VSHX6rHw6HEUt1PLoiMme2PepjiweYN7Us78rhq6rgOF0IeL0PEeKD4qxe8v50LTxUD4jRBh0bsjIe5qjiWrUIHnygbRlfDI4bPgE+0KncKIO/9vBFx9eAM654pzMmT+QM1liLtnM8RhqY7tjOafJEv3vt+dAFkL4GJkZGTmBx980MRgMG7Zaeivmhfz3LlzFQBqAFSjKyGy5Pc36d0BQNjMJ8AX22STT3xQ2mft841A5MfD1Kej8MiOcZj493DMejnWmq1sMpiwf3MhtAr7HAVdJ4lj/y7BT49no61ODVm5klIi1bvOuTcULVoopLpBW7u4ORIsfCuRUpL5SUEJXs66RPepoPGXRIeOxJJjJ1DYRtU0CBrtjlkvR/drKWLR4WbIa6hMRvaOWrT06sArCrA94IuOSHHknWLs31xgbXk9clEAFr2faO2qa9CZ8Mf6PJz9nNqUzy9RhHmb4+EkGNjETaPRhDOfUivG+GJ/BE1+wOHtq+nKgW6WoTsBsu7JJ5+U30rFRL87DV2dL7VpaWnVAEpgiaEoWvJPkvLyTIcPUTA5PEQvXm993VymwIV+knvmurIwamkAeCLbTVp0tAUdjdQY6Yh5vpi0OgKBKZbwhbS4Ez+uysLB14sov+fm1/fpwGQy48ov9fjugUz8uCoTledbB239ApLdcPcHyVbqEwD+W1SC5cdPo1NPt9Sm8ddBp16Pu46dQE4vHQbPMAHmbozrV4fhxEdlOPB6Pvasz4NebYBeY8S+TQU4taUMv7+aB22PJnc9W2sbSBPy9jYAAFhOTMx8KQ6TnwgHk2mb27kvKtHRqMaF7TUoP9My6OtYuL8J8lrqHhd15/Ngspwc3saac492Ow1yANVisbjmgQceUOAWEyD7m2kAAOPbb7/dymQySwFUdE1YXfLrW/ROASBw0grwPW1ZyOe/qoS0eGAUG9vrqDdTwnw/TH06Ckl3+WPR24m4840E8D05MGhNaKmwnTgIBpC6wjbHrK3V+Oqe89jxxCVsfSQLxz8qAakxQqswIG9v46Cun0eYC+76MImiHnmovhFT9h5CerOMNjAawx71KjXmHz6ObBm1CsjJhYV5m+MpFU39gW51RnmtGns3FWDHY9koOWHJWVJItcjtcQ+PXORnlyfl5MrG0o+TET2NqpGS/k01sndZDj0MBgFXCW9Q19FsNCNrKzU3TCCJQtDtDzm8jemVrWRHdU7PBMjyv//979XOzs63nADZ704DQRDmCRMmqJ999tkqAMXdbEPDhd8dWiHSutBMNsJn2RpamYxmHHitEKSm/7OLuQJqPNQj1JnyOjjNHbc/bq9fP3KRP8QBlixpo9GE0pMt6JRq0ZDXDlmljeIUeHMx/fmoQV9DN38+lnyQRKkOqVaqMO/gUbx1JY8OV9AYtjjZIMXUvYeQJ7evnpr6dFS/tITujfAJHrb7JLMVsmql9XAw4W9hSO1RSunqw0XyUmqbbV0niZKjzdY9StOhx5F3ipD+rS0kkbIsCJ5hLoO6lqWnqEwqQTCQ9LdPwWCyHd7OmnOOAJY+E3IA1RwOp3jNmjWt6IcEyIFgGgDAuGHDhpbAwMCinmxD6e/v0btGF9vAdLKVLrXVq3GmV0ywPxBzhzdYTkwKq9Ha46HfXKrA0feKKX/jHeWKCY+GW18zmQzc/WEyBN72m9nIxf4DHrO8GoS+PCx8J4HSqMsM4K2cfCw/fhoKvYE2NBrDBkaTCW9cycWSoycg09nnAqXeG4TIKQOjdho+0dNujOfKxqK3RyLlnkD7udwXSCmtBICsbdX478Kz+Ob+DHx513kKw5i40B9jHwoedJYh81v75EePqPG0sQFk1fGvu1kGKYCie+65p1Iikaj7i2Xod6eBIAgzj8dTb968uSfboKk98yOpltc7PNvA4YsQNHE5ZSzn1zpICxX9+jk8MQcLNsdbe1ZoOkn88Egmfn7qMn5+9gp+euwiNJ22y+HkwsKcjXFgsqmiSvl7G6GQau3e/8yWMqR/U/2nSZMDBY9gF8z9ZzwYvQSsDtU3YuaBI6hWKOntg8aQo16lxoLDJ/BuToFdMJnNY2LGi7EY/2jogH2+otn+3jUBEPn1zWqwuUzc/UESvKNcKeMGnRHttWoYSJOVqUh7IBRT1kb0S3fKG0HevkYrYwIAAWmLETn/WdrYAMiLz6E571h3mWUNgLJ169bJ+pNlGAimAQCMy5Yta4mIiChGVyWFyWhQl+37gL6qACLmPQMGs8cp2Qwcfa+43x/AASliLPs8BRGTLVLWZhNQe7kNtRflMPWq3Jj+QowdPdpU1IlTW0opY90xT7MZSP+2Arufy6EkUw0mApLdMOPFGPTSmEFxRwdm7D9i1yGQBo3BxL7aOkzaexDpzfZJguIAPpb9NwUx070HdA6FfWiu6DpJ7HklHwZ93yJuXCEHi98fiajbvftUZg1Kdcd9X6YibWXQoK+pSq7H2c9tFRPO3mEY+eh/aWPrYhnyd27sboHdAqDytttuq01KSupXlmFAnAaCIMxMJlP97LPPVgIo6qJJNFVHvyT16naHZxucvUIQ3qu/e3OZArm/939ioXuQM+ZsiMWKb0ZjyftJWPZZCoJSqe1sR90diLDxHpQxrZLEvo35MBpstiby5ePBbWmIne5DOckw2IwhW8uoqd6Y+88RdglkMp0OCw8fx9cl5fRWQmNQoTUa8XxmNu4/cRbtOnuH2m+ECHd/kgy3AP6Az8VkNoPJZthJPEtLFTj2fslV/47DY2LWK7F49JfxuOOZGIxfFYqZL8Xh3k9HYeFbCfAIdhn0dTWbzTj8VpG1jJwgGEh5/Cuwea600XWxDC35JyhlluvWrevXXAbrM36ALjChUChcPT09x+l0ukUAxgHwG7H8LX7EnHUOn61i1Gtw7MUxUDTYyh2dXFhY+X0apXSy3zcRkxn/XXgWuq7QhG+8CIv/nUgppQKAP17ORfk5GYVhuPvjZHhFWJQt8/c24vR/y7Dk/SR4hLkM+Xq21aqx/58FaC6zD/PMCfDDO2NS4cmjS7FoDCyqFUo8fPqcXVvrbkRM9MKM9TFgcQbH0dZrjGirVcM7UoCzX1Qi68cqyv/fvi4SCQuoDoWmQw+ekDPs1vbcl5XI/ME2/4jZT2LEirdpo+tC+vtLyYbM3R2wsPvnfH19f6mpqbnAZDJVw55p6GYbBAKB+o477qhFT2npk9/S0tKw6DakrvmGEqbQKQ04vaVsYL11IxCY5AbAkhA169UYO4fh4vZaisMAAJPWRFodBsAiuPTQ9nHDwmEAALcAPpZ+Mgqj7g6w+7+9tfWY+Md+/FpVQ+8sNAYMB+rqMWXfoas6DIkL/TFrY+yAOAyqVh2u/FKPs59VoPBAk1XdlcNjwjvSct+OfSgYgSlUlvHkf0rRVGAr+9YpSOxaewnZO2qH1drm7WmgOAx8jwDE3L2RNrpu51AhI5su/kHpM3HvvfdWM5lMbX87DEA/yUj3hY0bN4LJZDJ27dplk5bubHGSpM5nc0U+TEe/0Fw3CRhMFprzjlvHWsqV8IoUDBh1yWASiJzsBZ4rB/FzfeEVSe0139GgwZ4NeTD3yK+InuqN8avsk7WYPcISBp0JFWdlkFWq0CnVguvCHnDN+b6+W1CqGH4JItRdaaN0vVMbjfi9pg5X2tox1ssTAjZdmkWjf2A0mfCvyzl4PjMbuj6avREMYPLjERj7YMiAJA1m/liDfRvzUH5Ohoa8DpSflSHnjwYEjnSDi6dTz4McQtLcUXK8GTqVheI3m4CKWCQIBAAAIABJREFUdDk8gp2hU5E48HoxmssUqM1ug1+iaEDKQG8UFedkOPB6AUWWKPlvn0MUlEAbXxeqjn1larq8XwdABqAQwNn//Oc/JRKJRLtp06b+JwUG7FRrNhMkSToHBwenNDQ0zAdwG4CgiNlrhSNWvEPv2gBgMuL067PQkn/C5kWLOFjxZeqgtMPtjX2bCqziL4AlYeue/6aAcxXRGb3agKwfapCzt8Ea8gAAFpeBpMWBSFk6NKWZWiWJA5sLUZVhr1opYLPw8sgEPBQVDsYgZ37T+N9Ck0aDR0+fxzlp34qIXCEbc16NQ0Cy24B8fvo31RTNhJ5g85hY+FYifOOpnSebSxXY8Xi2tRKiz4cCA1j60Sj4xA5tvkBbnRrb/nYBerXtAOAZexsmvnKENr7uRwipJQ89HUeqZbUdsKgxH4qJifmtoKCghCCIAWH1Byy4RhCEmc1max977LFqAOVdtImi5vQ20mjQ0f2NLcdjjFr9NVjOItupuF2Pfa8XDkk5Y/UF6kN2yrrIazoMu5/LRda2aorDAAAGrQlZP1bhuwez0NGgGXwWx4WNBf8aYdclEwAUpAEvZGVj5oEjyJe30zZI46ZwrL4Jk/84eFWHwS9RjAe+Gj1gDkP5KdlVHQYAIDVG7HklD4oWatmlV4QAU5+NvuZ7T348csgdBqPRhAOvFVIcBgCIX/YGbXw9ULb/Q6hltd3NqZoB1Dz88MP90s1y0J2G7mu/evXqVmdnZ6vYk07Roq5P/5m+2t3MgtgP8XdTKaTai3Jk9ereNuAeq8EEo87Uw+kDPCNdruEw5KAxn/rQFXg7ITBFbK1mULXqsOvpy1D2US8+0CCYBKY+HdVnaAUAsmVy3LH/EF67dAUqkvZhaVwftEYjXr14CXcfO9mnWBOHz8TtayOx5P2EAWULi443W38On+CJ2a/EIXGBH3qSZ+p2PfZsyIeRpB5AYqZ74/Z19oqwLC4D05+LQeIivyFf56zvqyEtocrs+yTNgpuDd7Ck7MMdzWTR7je78wTbAFTzeLya+++/vxP91GeiLwxo4HnTpk148803jU1NTcjMzHQDIAHgruuQOgVPeXDAP/+vAmFIEhoyfoFOYUtArM9ph3+CaNB03QkGAVmlGq1VNuXIzkYdAlJEYHGol+nUlnKUnaKesEYvD8b810YgdoYPEuZKUJ/bCWWLDnqVASo5iYhJnkOytn4jRPAMFaAiXQaTgXofmcxARrMMOyqqIGBzEOcmpEMWNK6K89IWLD9+BgfqGuzvHwKInyPBvM0j4J/kNiD5C1XprTj6bgkkca7I3l4LrYJEzDQfzN4QB/cQZ4SkucPFnYeK87Z9RCXTQdOmR+g4alm1d7Qr/Ee6Qa8yguvKQUiaO+ZuiIdfomjI17mlTImD/ypEb1X4hAfeh4tPOG2IXcjb+qKpteScDpYSy2IA59asWXNp0aJF7QRBmAbsWTHQX8xsNhOVlZWCiIiI0UajcSGA8QD8btt4XOgRNZ7ObehC46X9OP/WAioL4cbBfV+kWtvRDjQ0cj12rrtE6R7n5MzC2AdDMHKxf5cjocW396dTNBwAYMRcX0x6IsKaHd5Wq8a392dYTjAcBlb9Mp4i/TwUG9Ef63PRKb066xEpFOCVpETMCvCjDZKGFTVKFTZlX8Fv1X1XFQSMEuO2v4fBM3zgqokyv6/G+a8rYDZbSqC7cxJWfDUa7iHU3jJnPi2366I77dloxM2RDPu1NhlM2Pb3bLSUU8unBT4RmPZuDsCgz5kAoGmtJQ+sjSTNJmN3LsNxDw+P/cXFxflisVg9EFUT3RjwgmGCIMwhISHqO++8kyL2VLB1PV1+2QOSpFnwTriDMqZu02P/pnyYjYOT38ATW9TgAkaJrWM6lQGiHu2y07+rsnMYACB3TwO2r85Ge70lh8HVx/Y3Br0JLSWKHgzG4IcrPMNdsOyzVIRNvDrjUdKhwIoTZ7D02Ek0qDW0UTo41AYDXr+ci7Tf9/XpMHiEOGPhm4lY/E7igDoMAGAymqwn72slMQLA+FWhCBhJzaU49kHJgHXV7U9kba2xcxgAIHbpJtph6IGKw5/BbDKqYcljKAJw6Y033qgUi8WagXQYgEEKD2zcuNEskUiMX3/9tTMAXwDe6tZaZ4FvJNs1IJ62hC64hSah8sjn6MnLdUq1MBvMCBjlNihz4PBZiJ3uA7cAZ2jaSERP80HCfFtCYca3VVDJLUp3TBaBhf+XAGmJApoOEuo2PQoONELkx4eiWYvio7ZKjOR7AsAXcSCrUuLHR7LAd+PCK3JwdR5YTgxETfGCOMgZTfmddklW3ahUKLG1vBKBLs6IEQlpw3RAHKxrwNKjJ3GovhHGXjw5g0lg7MNhmPlSDESDoOwIAH6JIjQXKaxOeTe4ArZdsiXBsJRXFh+XWkuPzSYzqrPkiJnmPejl0NcLWZUSBzcXwNzLJ/KKvx3xy16njbILRoOOvPCflaRRr+4EUArgfFJSUvqWLVuaGAyGcaA/f1CkyQiCME+cOFGdlJREEXvK+2k9aSK1NNvQBYFfLMJnPm43nrm1GtWZ8kGdS9RUL9z1YRLGPxJCGVd22JK/gsd6IDDVHfd+mmKVl9arjdi7Kc9SW91tZAwCrh6Wmu+CvVIY9CYcebcQB18vtArRDCYip3jhgR/SMGl1BPiivkM/HXo9Vp0+j/tOnEFRWwdtnA6CTr0ea89m4r7jp/tkm9wD+bj3k1EYfV8gCObg5b8QBIEZ62MglFCdlOztNWjrEU7sBk/ExtxN8RQ9FYVUh/3/LByyRnPXgtloxuG3iu1YTI6zGKNWf0UbZg80Zv4KnaKlm2WoAFD43nvvNTMYjEFp8TuYjQOMTzzxRCuAOlgSN7Tqlmqy6tjXtBX0QPSSV8EX28fU979eAFWrbsjnx2TYNkqeqyUlhc1lYvqLMZj2bLQ1p0GntNlv/FxfcFxYMJJmFB6y9dgoPdUCo8E0JN+D5cRA0l3+WPnjGCQvCbz6ibO2HhP2HMDkvQfx79wCtGh0tJH+j2JPTR1u23MQWysq+3hoW/q03Pt5Kjx7iaINFrgubMx7LY7S9t5AmnDw/4pg6uM+8ol2xZS1UbZ7l0UgYrInGIzhl+x7cUcdpIX24ZOU1V+B5+ZLG2e3c2U2k8W/vtndybIJQPH8+fMrJ0+erBrosITVjgbry27cuBHR0dHmLVu2OGs0Gh8AXgAESmkFN3T6Y0yCzlq3XBC2EwS+0ag9u40ybtCZIKtQIXqaN4ZyrbRtJOpzLSdvTSeJpIX+ILo2Ia9IAULHeaDmUju0XdoNLC4Dc/85AhweE+WnZSg41GR9r5gZPoia4j3E681A0GgxfONEqMtph17Vt7PerNHiVFMzvi4pg8ZoRKLYDU5MOrL2V4fRZMKhugY8cT4LnxQUo7OP8lvvGFfM2zQCsbN87Nqx9ydULTqc2lKGM5+V49yXlcg/0AS90gihHw8cviWJmC/mwNWHi7LTtuolZYsOWqURIWPc7d7TK9IFSpkemjY9FryVgLDxnsPuGrSUKXHgXwUUJVoAiJj7FMJmrKaNtAdqT31vqjz2hbLLYchhMplnd+/eXerh4TEg6o9D6jRs2rQJmzdvNkmlUnN6erobLLkNQr2ylecRMRbOPmH0DtwFF0k4DJoOyEszKOMdDRpwnFnwjRu6OLvAh4vLv9QBAPQqAxRNWoSM97A6MnwxB7EzfNDRqENrlQqT10QgoKvfxalPyiliT9OfjYazO7WRlNlotjohgwmhHw8j7/SDR6gALA4Duk6yz5wH0mTC+eYWbCuvghePizg3EW2wfzF06vU4Ut+ITwtK8HTGBfxQVoEGNZXiZ7EZCLvNC1MeD8f4VWEUSeaBQNbWauzZmI+mwk5oOkgY9SZoO0nUXmpD0REpglLE4HdVUXmEukCnNKKpx8lcWtQJoS8fnn30gwlKcUPsLN9B6ax5o9CrDdj9zBWo26kdQYUBcUh98kcwGCzaYLsPjlolef7dJaRBq5TDEuZPX7Vq1YUHH3xQNpAllr0xqLuz2WwmCgoKBHFxcakAFsDS/TLIN2WeMO2Zn+nyy54nIIMOpzZMRlvFRbuT8b1bRg1ps6jcPxpw9L1i20ks0hW3r4uEdwyVtq3JakVgVytuhVSHr+49Z83xlMQIsfSTZNv3NZpw5tNy1GZ3YM7G2GGxwbWUK3Fhaw2Kj0mv+jsTfbzx9uhRCBcKaKMd5jjVKMWXxaU4XN8IvanvPVYo4SNpsR+iZ3iD6zI4W9KFbbU489m1m9U5ObOw6O2R1nvMaDThl6euoD7XJrDG4jCw9ONRA17J0Y/PA+x5JR/lZ6maLwTBwOTNZ+AWmkIbbQ/k//QKWfzbm9ZOlnw+/7eysrIsiUSiGKzQxKAyDd1sw8cff2w8evQoampqusWehIrGUp7/+Hvg5OJOsw1dYDBY8E6cjtoz22DU205BZpMZ9TkdiJstGVCq9FrwjhKAK2Cjqis5U9WqQ97eBjQVKWDQGiHw4oLNZULoZ3vwX9pVj7rLtg6A4x6x1bWr2/T448VclBxv7qrAaIJIwrOrPx9sOIs5iJjkCf9EEaTFCmja7anrGqUK35WWo4PUY6TYHTwWbcLDCVqjEdsqKrH6bCY+KShGaafCrhoCADyCXDDpiQjc/kwkJHFCO0GzgULJ8WarA04wgLT7Q3H7M5EIG++B1io1VK2WE7iRNKHinAzRd3iDw2eBwSAQOsYdRUebQWosjJjJaEZVlhyx0yVgOTGG/bU5/1UV8vbaC2XFLn4ZAePvpY23BxT1BeSFTx4kzWaTHEAZgMynnnoqc+HCha2DyTIMutMAWMovxWKxYfv27U4AvAF4AHDWttZx/cfdTe+4PcDmC+EeMRq1Z7bC3KMOSdNOQqfqO4Y5WPCJdYV7qAsacjusm1Z7vQY12e2InuoNvputKsFkMuPQm4XWfAEnVzamPxcNBpNAU1Enfnn6MmSVNiVKk8GM0lMtcJXwh8WpyVXCQ/w8CZyFTmgs6qTIbQOA0WxGVksrviopQ6NaA18+H148Lm3AQ4gOHYlPC4vx6Ol0/FJVg1Zt3wmsLl5OmLI2ClOeioBnmMug5wsdfqcYyhbL3CasCsfoFYHgCdkQ+vIgDuSj4IAtB4jrwkLoeE+r2Bubx4RvrBCFh5qsDJ5eaYBOZUDoWI9hfX1KjjfjxEelduOBE+7FiAfeB53jRmFkyIx3l5IqWbUallyGy66urud37txZxuPxBi2XYcichk2bNuGnn34yHj582FRbWyuGJSFSpGgo5rmFJMPFN5J2HHqA7xEEnpsvGi/uoYxLizoHtI329cA9yBnxcyQwkZZ8C1JrxB3PRCMoVUz5vdoLclz5td76OvWeYASOckP+vkbs3ZAPbVelhciXD63CcponCGDi38PAdR0eUSsGg4BPjCtGzJOAAIHmMoWdLDVpMuFSqxzflJbjt+o61KvUYDMYkPB5tDz1IKFGqcLbV/Lx2Nl0HG1ogsrQd2Irk0Vg9H0hmLMhDt5RgiF5SKnkepz62PbgvOPZKDi5WGL4hYek2PfPfJi6hN38EsVY9G4iRWgNAAReTuC6cqwdXcPGeeD2dZFgcoYv09BaqcJvL+Zav1s3AiYuQ8rqb2iHobdNn/jGVH7ok2656EIA51966aWLM2fOHHSWARjknIYenhNx+fJlQUpKSqrRaJyDrrbZzt5h/Gnv5rAZTDad39AL+T+tR/Fvb1HGnFzZWP5ZKgTeTkM+P5PJjNYyZZ/laD1bbnP4TDy0NQ0Z39fg0s82lb2gVHeEjvPA8Q8sVG3oWE/Mfz1+2F4PTYcel3bV4/LuWquAztUgcuJgbqA/FgUFYoKPF+1A9DPUBgMO1TVge0UVjtQ3/mmnHpEvH3P/GTekeUEA0JjXju1PXLK+vuvfSZDEueLkJ+W4srvOOp58VyDG/y0ETKZNor33YeHQm0UQ+fKQujxwWD90jaQZ2/5+EbIKquqjKHgkJr12GkyWE23QPddLryYPPhlNatubrHLRPj4+B0pLS/NdXFxUg5nLMGRMQzfb8Omnnxrb29uN6enpLgDcAYhIVRvP2SOILQpJotmGXvCMmwJVfSE66wptBqUzoT6nHVF3eFNEXIYCBEHYVUJ0P1yPvlNkVXlLXRaEwqPNlFjmyEUBmPliNI7/u8SqNjllbSSEPU5VJoMJhYeb4R7MH5Lqit5gc5kISHZD4nw/8N2coO0wXFVHQ2s0Ikfehu0VVfi+tBxSjRZeXC4dwrgFtGh0+K2mFm/m5OOZ9Av4paoGFQrltTc7FoGkRYGYvSEWAq+hX3sWh4mLPXpEKGV65O1tQtkpSwdLFpeBmS/GIvnuAKu2QkNeB3auzUboOE9KCDBsggf8EkXD/pSe/lUlSk81U/cOFgcTXviD1mPoA+X7PjI1ZP3aXWJ5GcDpjz76KHf06NGdQ+EwDBnT0M02qNVq5/j4+LjKysqZAKYAiHSRRAqnv3OFDQaTZhvsvU6cePU2dFTnUMYDRrphwZsJVmGl4YRLO+tw8hMLBcsVsuEd6YrqLAuVymAQmLw2AgkL/FB/pR0711lOXeIgPu7/ZkyPzVSHfZsK0JDXDp9YIea8Gjcs2BU7B0muR0V6K4oOS1HbI+nzaogXibAkNAiLQ4Ig4fNoA//zPQNH65vwVUkpjjQ0wWS+vj2TL+IgbpYECQskEHgP/jorZToUH5Wi+Egz5r0eD4GnzWHZsuAMdJ32CbZufnzMfS2ekgxMao3Y9vcLkFerIZTwsezzUUPaBO5G0ZDTgZ1PZdvJRI/62+cImvwAbeC9YNAqyINPRJE6pawVQA6Ag9OmTTtw8ODBKgaDMWRKysQQbwKMvXv3us+dO3csgNkA0gD4pa3bJvQds5h2GvragBpLcOyFVBj0VInb0LGemPvPWDBYw8tx+P7BTGu7bQaTsMYxnVxYmLsp3qqbv+eVPJSdsZReTX0qGiPmWzry1Wa3Yf9rBZQ6bidXNpa8nThkynzXA1mVEhe31qL4qPRPZXsJAGO9PbEgKAC3+0oQ5OJMhzC6GSazGbnyNuyprcOvVTWoVKiuk/kCQsZ6IH6OBEFjxFZqf1DnbjDh4o5aZHxbBYPe8qTs3W0y8/tqnPuqgnoIGCXGvI1x4LjYHAK9xojfns+xllh6hDhj2Wcpw+5+v5bjtPXRC1C3UfUYouY9g7hlb9CG3geKdr9OFuzYaC2xdHFx+b2wsDDL399/yFgGABhSN5UgCJPZbG6fO3du4Z49e4IA+AMQ5+/YxPceNRdMlhPtOPSCiyQSI5a/iUtfraWMV5xvwcE3ijDj5ZhhIxPbXVVh3US7HAZRAB8LXh8BN39LXLajQWOt1XZyYSF6uhfMZjMubKvBuS8rKCcTggCSF/nDfZjXonsEu2DGSzFIWxmMjG+rUHi4CVc7GJsBnJO24JzUVq8e7OKMFE8P3CbxxhSJj0MwESUdnTjVKEWWTIY6lRpynQ71Kg3UhuuX1OcKWIi63Rsjl/hb7WtIWKd2Erufv4LmEmrsvvpiG8VpSF4agLy9DZSW7a0VSsiqVPCNt4i4ySpUOPxOkVVmmcEgMO0fMX8Zh0GvNuCP9Xl2DoNP0izE3bOZ3tT7XLN2snTPv0kAGnTJRf/jH/+o9Pf3Vw2lwzDkTEMX20AUFBS4JiQkpBqNxvnoEnyKmL1WOGLFO7TTcBVc/uJxVBz93G48fo4EdzwbPWzmSWqNOP5BKQoONFpPUXM3xMJJYLu0xz8stSZ+jbk/BKnLArH/XwUoP00VfeG7cTBrfaxdV7+/AlqrVUj/sgqlp5tv6u/jRSJMlHgj3k0IP2dneHCd4O/Mh8tfNGe4sK0deW3tUBgMqFIocKS+ESUdips4eAAhaZ4In+gBrxgXuAXwh4RVoDgMcj12Pn0J8mqbvkrASDfEzZEgNM2dwiAAQOX5Vvy+PseOthcH8AEG0FajtjqcTDYDs1+NRdgEz7/EddbI9fh1fa5dXwlhQDxu23QCbJ4rvZn3dX/s3EQW/vKvDgD1AM4KhcLdVVVVmSKRSOHwTkOX48B65JFHgr788suZAGYBiAXgPebJrWy/tCVDsivWnPwO7dVX7KkZrgAukgi4+EZA4BMBtvOfP8BkxWfQkLHbfvGZLDgJ3OEk8IST0BvuMRNu6CYqP/Axcn/4B0xG6kkseUkgbns8bFjdBAX7m9BcpsTE1aGUTV3boccXS9Nh0Bnh5MzCss9ScOD1QjTmUztLBowSY/ZLMeCJbclfBr0Jv7+Yi6A0McLHe0DoO/xP4y0lCqR/V42Kcy0w98Ot783jIUEsQqybELEiEeLcRIhwFYDJGF6nUJPZjIuyVvxRU4u9NfWoVqpu+r0YDAKSOCGC08SIut0brj7DK6GUUi3kzMTMl2IROu7augllp2XY/1o+jOTVK+icXFiYszEOgaPEf4kHX0u5Er+9lANls66XwxCHCesPwsnVq18/r3TvB9C02hJLoxe9BI5L31o2zblH0XRpn/W1b+p8eMRM6mGwRuT88Jxt33dyRuzSfw4Oy6BsJQ+sjSQNGoU1l+G5557b9+abb1YTBGEY6us6XJwGor6+XhAREZGq0Wis8tIsrkA49Y0MtrNP+KDPKeuDe1Gb/vOf/p575FgkrnwfopDkq/5OxcEtuPzNk3/6XiwOD5KUeYi9ZzOcPYOv78bMO4H09+4CqaE+ZNMeCEbaypBhv7FkfFuF899YugomLfFHbVY7ZNW2LHiCAaQ9EILU5UF2YRdpoQLbVl+gsCzjV4WCJ+QM+++tVZJoLVehvV6DTqkOimYtFC06KJu06GjS2NWw3wg4TAZiRULECkWIchMizNUFvnw+uEwmmARh/cfo+scEAQaTAAsAl8UC9zoacbXrdFAZqOEnhZ5EnUqNgvZ2VCiVaFZr0K4n0aEnUadSXVUz4c/AZDPgEe4Cz1Bn+CeKETxGDK7r8EwAlFep8d2Dtp4xM1+ORfQdtqZseo0RsnIl5FUquEq48IkVgsOzrHdtdhuOvFOCjka1nZM0YoEfxj4QBO5fwLYBQFauxM51lyjdbgFA4BOBSRuPgyP06vfPPP7yWIrs/owPiuHs1fceWPzrG8jfvsH6esTytxExx7ZHm0wG/Hofv4fD5oE5nzcMytrlbXuZLPn9bTWAKgDpBEH8Wl5efj4kJKRzqFkGYIhzGmwUI2E2m83qJ554ouqtt94qBhAKQGzQKvgXProfk147zQZjeFZhtpacx7GXxyJ06irE3rsZHP7NNzAy6DWoPbcD8vKLmLTpBLjCP+8A6Rk/Gbe9ehin/zULemWrdTz92ypw+Cwk3x0wbDcWg86ES11hCSabgbLTLVBIbacSvtgJs9fHwD+pbzZHWkKlPPP2NqL0ZAumvxCDsPHDWxGP68KGX6IIfon29mIymNCY34nK9FaUn5ahrV59YycVowmXW9twubXtpubmzGLBk+sEN64TBCw2nJgMcBgMaE1GSFVaVCqVN+0A3AgCRrohYYEfQseJweT8Naqwe1+r0uPNMJFmtFYpUXOhHbJKBYVhEvhwsfCNRIiD+QhIdsODW8egqaAT5WdkYPOYcPHiwjfe1U7UaThD1aLD7udz7BwGgsXB6Ke2DYjD8L8CXWczWX7wYxJAJwAZgMrx48fXhoSEqIeDwzBsnIYuGF944YWWzz77rKi9vT0KgA8AQWvFBWFj9j5IUuYN6eQ8YiaCJ/SCQa+ForEUKmk5zCZjN1WCiiOfQa9qw+i1P/7pewl8oyEKjIPZbIZe1YaOqlzolDLbTSctR/n+j647SUgYPBITX96Pk5unw6CyNbA5taUMPFc2Ymb6DMsbJH9/E7QdlsohI2miOAyBKWLMfCmGUoveG3GzfCDw4qL0VAuKDjfBZDRDpzRg76t5mLk+FpFT/pqbE4PFsDoUE/4WBlmFCmWnZCg/3YKWCsWAf77KYIBKaUDVLYQQbpgd4TPhGSaAd5QrJHGu8E0QWuWS/0rg92ICys/JUH5OdtXfVzRpsevpS3hwaxrYXItj5BPrCp/Yv2as30ia8fuGvD41S+KWvAJhYALtGVwDxT//C0admgSgANAIoHLx4sWtAIzDZY7DxmnoZhuef/75ihdffLEYQBAAMQB+xcFPIEmZN6QZX1F3vgjvhDusr0lNJ/J/fJGSjFh3fif8xy6Fb+r8a76X35iFiL3bphduMpI4/doMtBafsZ1YyrNuaH7C4JEY949fcOa1GTAZbSW8R94tgtCXB98E4bC7QXzjXSGU8Cl0LMEAxq4M7VPZzmw2o71OA54rC1whB0wOEyFj3REy1h2jlwfhwOuFaCrogMlkxv7N+fAIcYE4mP+X30g8Qp3hEeqMtJVBUEg1qEyXo/ZiOxoKOq4qKDUcweEzIZTwIfTjQeTLhdCXB5EfD6IAHkW74K8MSbwr/BLFqL8iv+6/UbfpkfNbA0YtDfjLf//jHxTbJT0CgGTkTETOe5b2Cq4BeXkmWXb4026WoQVAiZubW/mKFSs6AZiHyzyHW2DQuHbt2tYPP/ywqLGxMaybbZDmHeXXndsO/3FLh02qOJvnipGPfAwnoRcKf/mXdfzyV2vgNeJ2sLjXXxLIYLIROe9pnO/hNBjJG9fu8IiagPhlbyDne9vNaTSYsWdDHu79NGXYCSJ5hrtg2eejcPitYpSdaoazuxNmrY+F/0h7yr67G2A35fn/7J13fFPl/sc/2WnSNG2696SlgxYoS/YeCuLAiwNFRUW9Xi8KqIAoywE/EXAiAlcEGbJF2au0BUoH3XvvmSZNkzY5Sc7vj7RpY1tAZlKez+vF68XJOUlPnjznOe/znY5+IgyY5YG+U5zBZDJg626Fx1aEYNcr8VArtaD1QNzOYkxbHtKrFhaRsxXCZ7ojfKY7AKC1SQtZuQqyyhY016uhklJokWnQ2kRBJaOgqG3tkurWDmdcARsMFgMMGlActAqXAAAgAElEQVQ3a29aT+KW4UDIgnMfGzgFiuDgbw2JpwBiN57F+ONvRXW5CjSUGrpQOvpZwyPS1hhzM2NVKI59nGbSthowuCI8w21h72eNVjmF+D0lxn2dG7ZZovRaPaJ+KED6X1Vd9kkChmLwgj0wVxezWYwf1YqkH18HaFoFQAogG0DSDz/8UGJvb99qLq4Js4OGdmvDihUrCubPn58BQ90GOwCc61vf4dgFDIbQyc+sfuw+M95Hwdkt0DQZ0gNbZdWQlSTDIWjkP6PMnFiTbZf+k27rfAIefRfS/DiUX9nf8SQj0+CPpWl45rsBxqArcxFPyMb0laHIOu0AnyESWNl25cKs0zU49UWm6aJdqMDpdVlIOVyOcQsC4RJiA5EjH1ZiLtRt3TTL0hp7/WLDt2Hf1JzdKtegNr8ZKqkW1g4c2HkJYGXHNQkspXU0mmpaoZRqoG3RQtdmDGUyGB3h0rTB2kPTgF6nB60DtJQetJYGi8eElYgNOy8BhI68Xtt0SFqmQuxPhca6Iu0SOHIx9q0+CBznBL4NG09tiEB9rhINxUqInHlwDBB1Cd7MOFllBDoun2mxY0K16HD0o1SUp8q67BN7hmL4h0fA5glB1LOy9q+kmiqy2t0S5QAy5syZk/vss8/KH0RTKkuyNACAbt68efWbNm1Ky8zM9IChCyafapFzEr9/FaNWXOCY04LE5ovgOmAaSqJ+Nb6mKM+6ITS0NFahsSAeNGhQyibIi5NQcHbL36Bh2m2f06C3tqFVVo36rGiTm+yJlRl4/LN+YLDMb0EPntx90KemRYfoH/N7fF9NngL7/pOIIS/4wnuQHWSVHa6Ov6cd5l2sQ8AYh4euix5fzL1pmh6DxYDYzcoi0lYflMoSpDiyJBU6bdeHPlWdBidWZ6C1iUL4THewWEw4B4vgHNx91dLUwxUmFqB+j7tb5JjQNI2TazK7BQaRW1+MWnaqx7RHojYrU04MlfPn1xSAditDrr29feamTZtqAWjN7XzNDhrarQ2bNm0qmjRpUkIbNFgDsKrPvSwuPruF8p0036wq2ggdvEy2FZ2aSnWnkou/oOTiL93u4whsEfbsKoh9+t/2+TA5fAxfdAiXVk+CrDjZ+HpRXAPOrc/BxA/6WswFVXS53qSENFfAwpQlwXALEaP0ugxXthdBVqlC3M4ixP9WbPJev2Edi1VrkxbHV6XD9xEHTPmor0lxKSKim6k2T4E/Pkk3AoPYVQC3MBvUZDdBWqZqu4EC5zfmgs1lIWRa98HHLXINLm8rQvqfHel74Y+7w8HPMp/E43eXdRvoaeMejJHLT5NMiZtI26pAwo/zAJqmADQCKASQsWrVqgKJRKI0J7eE8f5ijgPJYDD0EydOlM2aNSsbhs5eJW0Dqso4sAq6v/VdeOBPchIPk21lXfFtf5b3yOfgGDb+zmlQIMbIpcch8jT16aefqML5TXmgadoiLiqV1DS2I2SqG/xHOsJKwkXQBCe8+L9BGPiMAdo6++TZXCYGz/E2bpcmSkHTQOHleux6PQE1OU1kxSK6ZZ1cnWksix4y1RUv7RyMKUuD8eKOIYh40vT6P78xx9ittV1VWXJEfZ+HX16IQ9qxSmPaZchUV4z9bx+LHJOKFBmubC/o8rrYOwKjPj17SynjD7vSdn1IqWqK2q0MlQAy+vbtm/7GG2/Uw4wyJsweGtohbP369TUCgSAVhqpYlQCaNE11VFnMHsqcTlTTbEraVvYeN76hc63AtXEE18YRLI5pcGL+6R9x7sNBqLl+8o7PiytywKilJyFyMV2UUo+U4/QX2dBpdGZ/UbkEm/rqW2SmizGLy4Kte9fI+9FvBsDaoWNsSxI6otkVNa2oTCPQQHRraihRGq0JbC4T4xcEGquaNte2ojq9o7AaV8jCtE9CTdJF5ZUtOLQwBdcPlBvjbRhMYMgcH0z6IMhsesX8EzVVt+KvlRldSl/bBwzF6OWnwRM5kolzE1Unn0LRua1oA4ZaGIIfr//f//1fIZvNVpmjlcGsoYHBYNBeXl6qL774ohBAAoCMtoFV5R/fBJO8wgcsZa2pZcHGLfiGxwc8tgDTf6rA9J8qMPNXBaZ8kwvPUc8b9+uoVuQcWXt3rCC2Lhj58UkIHE1dKFlnqnFoUSpam7RmfWG5htnAs5M/Pud8DS5+m4/mejU0Ki2u7y/HhW9yTd4TOM4Z4U+a+og7QwMABI4hixrRran0WkdALduKBTbPsGyWJUix641E1OQZamc4eFvjuc2DuhQWE7tZYepHHRY/Bz8RZn8fieHzfC0yvqahRIn9C653ycpxChuHEctO3FJp/fujnu+5D9rSqlHJkPzzmxQAk+DHiRMnZk2fPl1mbsGPJg+95jw527tgxsXFZe/evdsNhhRMm6aKLE7xxR0Cn/GvPvhpSdOoz71s8prI/Z/FDAgdfTD4zW2oSzuPVlm14cLMvwqqpemuNHSxsvfEiKUncOnTcVA3dTRMqkiT4fd3EvHk+gizzpN/fHUYjn2SgdIEQ8XL5ENlSD5U1u2xdu4CTFwUaPKatFRpUv/eLcwWQkceiIj+LqpVh6hv8uA9zB59RjsarQftapVTqM5uQllSo0kH1sBxzpi0OAictuykhhIl8i/WYehcHwCA/2gHTP4gGGI3frdVQC0GoOIb8dfKdKPFxAj3Ax/D0AV7wOQ8uHWEyTEN4lUr6nvMttM0mVqHGez7G+OU9st7lEpaYRL8yGazMzdu3GiWwY8WYWnoJO22bdtqIiMjTdwUqbsWU6q6kgdubSiN3gVFWUc6IJPFgY1X6D+HDwYTTG7HBUfrdZDmXbtr5yly6YORy46D87cy19IyFQ4vTOk2l99cxLFi4an/C8eTayPgEiIGX8yB2FXQpVokm8PEYytDwRWwuyx0nRXUQ6VIc7e6EN17Xfo+H+knqnBhYy5a5YZrws7LtEDYoYXJiP3ZAAxMJgOj3gzAo5+EGIGBpmmc+yoXV34pQkFMR2pmyDQXiwaGjL+qcOSjlC7A4PHIMxj6/u8PFBgAwMbD9GFNWV3Y47HNNaaxGFZ2rvftPGvTzqMk+je0WRmMwY8LFiwoCA0NVZqrW8JioIHBYNB8Pl+1ffv2QhaLZXRTaFsUqoTvXob+dqog3SVVxv+B9J0fmrzW9+llt9W9rS79PFR/c3MI7N3u6vmKvcIx4oMjYHOtuoLD4lRoms37puk9RIJnvx+IN4+MxCu7h8Iz0tQMOvbdIDj4dy2qVRIv7TSfgIAxXftSZJ2sxvbnLuPkmkxoWsw/1oPo7qvoSgPS2rIaVI0aXPjGkOrr4CcEX9QBohqVYX4IbLl46quILpUcr2wtQmW6IQXx8raiXjE2ifvKcOar7C4FwHzGvYIh7/wKJuvBZyPZeJg+rBWd3tztccrqfNQknzJ9r1fYfTlHvV6L1B3vtbslmtoegjP8/PzSVqxYYbbBj5ZmaQCDwdCHh4fLXn75ZZNsivrcWFXqL+/fl3NoKklFXWYUKq4eQM6hzxC7dgaufj3LpGeE2DsCgY8vvulnKetLUJcZhbrMKFQnHUfesa+RtOUN06dmKxFErkF3/XtIgoZj8IK9YPytOltdgQJHl6ZBq9ZbzEJWlthhQQie5IKw6V3T3HQUjbKUjuPcwmwhtO9wTbTINTj2STpOrc2CRqVD9rka7J2fgAYLr9BH9M9V2Cl1kMVhwr2t9DpXwMYjL3c1cw9+3tukmRpN04j5qQDXdndUehz5hr/Fj0vKkUpEb+5aK8V/ytsY8Ppms6n06NJ/iklgeX3uZcR+OR11mVFoaayEojoPpTG7Eb1qIuhOEZwOwaO7BIvfK5Ve3NFexEkOQ4xeBoPBSNiyZUuRUChUmbuVATDzmIa/Sbty5cqa/fv3pzY1NbkBsAfALzz7E8fGux/8Jr5xT1E3bfdHN9wvkHhg0Nvbb4m4y6J3oyx69w2PiXjp63t2MboOmIaBr29G4k+vm7xekSbD4cUpmLGmn9m2Hu6saUuDceKzLPDFbIx/L7DbY6rSZdC2diwQnV0ThZfrcfarnC6uGWmZCqlHKzBuQSC5k/ZypRypRGWaDBMWBUHV1jyNyWRg+qeh8O0U0Bg+0w2pxyrQUNwBk1E/5KGhpBn+jzigpVmHlKPlJn0XBszygO8jll3YKH53CWJ/7mrm95s4HxEvbzSrcxW6BCD02c9MyujXpJxGTcrpnm+AXCuEv7ju/tzAVHIqc/9KwBDH0AggF0DSokWLsidMmGDWwY8WCQ3tRZ+++uqrwjfeeMOk6FPqL++JJX2GUrbeEffdRsbmWiHw8UXoM2MhWNw7b47EYHMR8uRH8B47956et/fYuWhprEDm7yu6gMNvb8Rj+spQOAeZd6c9z0ESPP/zIFCtOqM/uQvZJzR2mkOA/xhHaFp0uPR9Xrd18m3dBJiwMBCeA+1A1Hul0+lx9v9ykXXKMAfq8xXQtjk6/Uc7mQADYKiY+djKUBxemAJFfUdQbfpfVd3OoyFzfDB8nq/Fjk9rM4Wza3OQH1PXZZ/HI8+g/ysbzfK8/af9B8rqfBSc/Qm4SYYE19oeg97aBlvfgffl3FJ3fYBWWXU7MOQDSBozZkzy559/XgMzD360VEuDMZvi0KFD2SdPnjRmU+h1FCfx+1cEYz+/Chabew//PhNWDp6wdvaHtUsArJ394f7IMzety3Dzz/SAwMEHdv6RCHj0v7Cyc7sv49n3yaXQqVuQc9Q0vVNR04r9717HtOUh8B9p3qmJnWsxdKfO8QyB45zRXNeK4yuzTDprAgCTxUDks94Y+pI32FwmaB2NsiQp6gqVsHUVwD3Cplc1XHoowECjQ32BCpRaB7cwGzDZHd5YFosJva7jwa6htGM+ePbvviOsxEuIf30XiYOLkyErU3V7jEDCw6j5/j2WRbcE1eUq8Men6VBUt3bZ5zJgGiLf/p/ZNp9iMBiIePUb+Ix/Fen7lqMxLx4apWm6tcDJB+5DnkTQ9IX3rWJl2aVdVPGF/xkzJQDEeXl5Xdm/f79Z12TodowtbULTNM0oKysThoaGhioUiqkAxgHwA2Af/NQyTvAzn5L6wP9QhWe3IPWXBdDrTGGXwQQmfxhisQtgi1yDn56INVoZhs31RfzuEmg1plZAlxAxJi0Kgr2voZQv1aLDidVZKLzS8ZTF5jAx6HkvDHreABVE5itFTQsufl+Aosv10OsMazHHioXwGW4YMd/fWEyJatVh37+vo75QYfL+oS/64pFXfXp+Cm/SIvNkFbLP1aA2VwE2jwUbJx76jHXGoOc8e7R6WYKyTtfg7FfZ0FFdLeWu/aeaRZbEP5WmuQHKmkIw2FzwbV3ue6XKprJ06uLHIyitpqUBQBaAGIFAEBUbG5vev39/OYPBsKjIa4vs3EPTNHPHjh32L7/88hAAjwIYCsCbyWILxq25zBH79Cfg8A9VnxODaxufN9aJ6CB3YML7wd0GGZq7cs7V4sSaDKMlof0G0i6ugIWRr/kjbKabSVW+mM0FSNhX2v3TpqcAT30VAWsnPpk0Zia9nkbi3lLE/VoCrbr7dbjPGCdMXdoXLK7hxi6vbMHu+QnGlusAwBdz8OruYV1Sd7u9IbXozK5z7O0q+WA5Ln6X1+0+j0eewaC3tlkcMDxoaVubqQtLH6EUVTlyGFIrYxkMxsn9+/enPv300zJLAwYAsMjZvnLlSvrw4cOUVCqlrl27ZgXAEYANTeutGrJjON5j57LMIQXIkiRw8IL3qBcgK06GstY0TazwSj0AJtzCxWZZwa6+uBkC266ug6T9ZajLb24DTdN9ASMd8cQX4fCMtDP5TlSLDn+tSoe+UydDnjUbujbrREsThbzoOvg94gC+DZlj5qJWuQbHPslA+p+VXeCws6QlSjAYTHgOMNRL4Is4cPCzRs65mo6FXq2HokaNgNE3d82xOL3D6hS/qwTRP3XtI8FgcxE+Zx36zVkLBotNJto/E5W8/V3Upp1thqHiYzKA86tWrUp+8803pZYIDBYLDQCwYsUKesKECZqDBw/S9fX1IgAOAARqRT2PapbCZeCjLDJn/+Fk4AvhNfI50LQe9dkxJvvKUxpRGt8Ip0Brk5TFB63GchX2vpmIpooW2PsKwRdx0FCiRMJvZUj/s7ILLAgcuZj6YQiGveIDrrDrIqhT6xG3syNlTuTMw2sHRsAjwhZFcQ3QqvXQKHUoT5Qh9FEXMFnEVfGgVZerwIGFKajL63AzsHkshM1wh/9wBzTXqtGq6CjnUpPbhH6PuhndCHYeAjAYDJQnd7R3ri9Sgi/iwCXEplePnU6nR9Q3eYjf09WyJnINwoilf8Ft0ONkkt3OvEy/qE/99X0VgAYY4hiin3nmmfjvvvuumsFgWGwlOYYl/yg0TTOPHDli/+STT5q4KQAIBr25leM15iXyKHibKr+8D/E/zgOtNU1HZDCB8JkeGPGa7y2Zb++ltBo99r6VZOKTtnbimZSMNp43w9CCePjrfuAJez5vvZ7Gz0/GoqWJansSZeO1/SPA5jFRV9CMA/+9bqyIN+hZL4yc708mywNU5olqnN+QA20nH7xbmC2mfdwXImdDEbPWJi32/yfRJNhxxOt+GPy8d+e1BMeWZZjEsTCZDDz9dX+LruJ4IzVVt+L46kxUZ8q77PMe9QIiXv0WbL41mWS3d2+ioj4ZTUnz4+RtwHAhJCTk5LVr1zKEQqHSkgIf/y6LfkxiMBj6mTNnykaNGpUNIAkGn1EtACpx69uQFlwjs/c25TF8NkZ9fAo8a9PUM1oPpBwux85X442m/wcpGxdTq0d3wGDvI8S/vonEuAWBNwSG9htF/6c7smFaFVokH6oAADj6W2P02wGGpzAXPlxDbchEeZBPcvnNOL0uywQYRM48PP11fyMwAADfho2hc03TH9V/KxnOYDAweWkQbN0EJgD518oMNNere93Y5Zyrxa7XrnUBBhaHj8j5WxD59v8IMNyB8o9/A2l+nLF7JZPJvL5z585CSyngdCNZvAl/xYoV9NixYzW7du3St7S08GEo+iSAXseuTjrB8hgxm8WxEpFZfBsSOHjBbegTqE0+DU2zadqSRqlF3sVa+A5z6NID4r4RL4uBgLGO0Gto1OQoQP+txK3AlothL/tg8od9YePScwBXfnQ9xB58YzCko58QKYfLjXEN1VlyhE13BYfPglMfEWycrTDx/UDY+5JF9UFKKOFCT9GoSJN3mpc6sDnMLtaB1iYKmSc7gnyd+9rAZ4jE5Bg2lwWPAXbIPFVtjIugWnWoylQgZLIzGEyGxY9Zi4zC6S+zEbezGDrK9HoRufTBiGUn4BwxhUyuO1B9TgyV+P3LFE3rmwDkAbjyyiuvXH3zzTerLTWOoVdBw8qVK7Fx40bt4MGDW3777TetXq8XALABINC2NvMas2LgNfoFFgniuT1xrSXwHPksGnLj0NJg6vfUavTIPlsNawc+HP0fzA2UyWTAa5AEIZOdYesqgMiJB+9ICfrNcMfERUHwiLC94WJflSXH0Q9TwWQy4NF2o2HzWNBpgIpUg49bR9FgsVnGgk+OfaxJLIOZyH2ALaoymyCvbDG+Vp7cCNdgMWzdO6wN13YVozavwzI28g3/bkFSYMeF2NUK+Zc63BTNda3gi7gWb1nKPV+Lox+loiZX0XUchz2NRz44AoGDF5lUdwJlDeVUzJqp0LYqmmHoK5HK5/NjDx06lGdjY9OycuVKi/+OvSJYcOXKlfQvv/yiEYlEzadOnWK0QYMdAGFLYyWrRVoBt0GPk8DI250kXAG8RsyGqrYI8rJ0k306ikZBTB0qM5rgHm4LnvWDgTOeNQcuwTbwG+4Ar0g7OPpbg8m+8ZOhWqnFwfeToVZoUZUuh9dACUROBneHU6A10o5WGvPV6wuaET7TndRoMDMxGAz4DpUg50IdNJ26LxbHNSBwrDN4IjaSD5bj2m8dwa3OfUQY8bpfj5/p4CeERqlHVZvpfsAsDwx+0dskLdeSpFXrcXZ9Di5vL+zSW4bBZKHfC2sR/uJXJn0biG5nnJWI/fxRvbKmQAVDb4l8ANcWLFiQMGvWrDpLKRP9UEBDOzicPHmSSkpK0uTm5vIAiAGIAHDlJSksrrUEkoAhBBxud3FmseE25EkwQKMu61KX/fLKFqQfr4LYhQ8HP8sw2zPZDBTFNKCpphW0HsiLqoXHQFuIHPlgc5mQFqtQX9jcBkd6eA+wg9jNikwGMxObz4JnuC2yTlUbuzBqNXpUpMghLVXh6o6iTnDJxvTV/SCU3Nil5hFpi9qcZjzyii8iZ3tZLDA0lqtweFEyShKkXUFb7IzhHxyC5/BnySS6Q9E0jcTvXqJqMy5QAJoBVAFIEYvFVw4cOJBnZWXV2husDL0KGoCONMxdu3Zpm5ub+W3QYA3Aqi79HMchdKxe4OBFwOEO5BAyBiK3QFRfPw5ab+qe02tpo1nXo7/5925gMBjwHGSHnIu1oFQ66CgauedrQWtpgKaR/melMYsCAALGOEHiJSCTwAwltOfB2oGPgtiOTpVKqQbVnRpIcYUsPL2+P5wCbx7jxGQy0Heis8UAcHfKu1SHox+lQlHXNZDTKWw8Ri470aWdNNHtKfvAKqrw7BYKhmZU7ZUfL69cufL6pEmTGnqLlQGw8JTLHoiPef78efGkSZNC9Hr9GADDAQQCcBLYuQnGrY0HT+RIUjHv9AmmIB5xX/8LKmlFt/uHPO+N4TcwAZuTmmtbceSDNNSX9JwNwhOyMe/3Rx54minRjXV+Qy5S/+g6J62deJixuh+cA3t/ULROp8flLUVI/L1r7QUWzxqh/1qBgKn/Ntv+EZam8su/U9e+nYM2YKhtA4Zof3//CxkZGdk8Hs/iMyZ6raUBMLgpduzYQdnb2ytOnDihAsABYAWAT7UquC21xRz3YbP0vfG7309ZSdzhOep5NBWndKkgCQAVaXLIK1vhPUhi9lXzuEI2Aic6QVGnRkOhsttjxvw7AG79bMkPb+byGiRBaWIjmv/2dD3lo2B4Duj9nUuVUg3+WJKGnAs1Xfa5D56J4R8dg3P4REPBFaI7lqwoibry1VOg9dp2YMgFcJXL5cYcOnQo18/Pr7k3AUOvhIZ2cDh+/LhGIBAozp492wJDN08rAPymiiyuxH8wx9o1gIDDHYrNM1SQZLLYaMiJBU2bWuDqC5uRfbYG9p5C2HqYdywAm8tCn9GO8OhvB3m1Bi1SNfR6GiIHHsa+G4Swx1zJD24BYrIY8B0iQfbZGlCtHe6zilQ5+k507jV9IrpTRYoMBxcmQ1piCr4MJgsRL65Hv5e+Akk/v3tSN9VSMasnQ6OUdgaGOC6XG7V///6syZMnN/Umt4RxPvXmH5WmadaePXvEr7zySpharR4DQ8XIQJFrkNP4dYkCFptL3BR3SU3lGcjc9wkqE451u99vuAOGv+4LBx/L8BHrKBoqmRoiR9Kgx2JvoO8nGwMjAcC9ny2e/jrCpEV2r1jndDTi95bh6vZCk+8LAByBLYa99zscw8aSSXEXpddrqdjPp6EuI8oEGPh8ftTBgwfTH330UXlvqMnw0FgaOlscDhw4oBk6dGjT/v37W7RaLRuAlaa5wZprJWLbBw1nEWvD3RHPxgkew2fDoe8o1GecB9VimgveWKZC2h+VaK5RwzVUDA7fvIedyWLctHokkfnKxoUProCNkviOrAFFbSvUSj18hkp6zfesypLj2PJ0ZJ+p7tJnhWvjiNHLz0DSZyiZEHdXVOa+T1Ea/ZsJMAiFwqhjx46lT5kypdcCQ6+3NHS2OPz111/iJ554Ikyr1Y4DMJzF4QdP+DLe3totiAND3APRXZK6qRZx62ejPje22/1WNhyMfTcQQROcyGAR3VOdWJ2JnPOm/v2pS0PRd5Jlz73mejVitxYh61RVt/s5AluMWXEeNp5hZBLcZdVnXaIurZ6kAk0bgcHa2jrqxIkT6SNHjuzVwNDrLQ2dLQ6//fabxsvLS3H06NFWANa0Xiuuz4oWeI2ew2GyuQ/NWNwPsXlCeIx6DtBq0JB3tct+rVqP/Et1qCtUwivC1thtkIjobstniARFl+uhknWkztblKxEx080iy0Jr1XrE7y7B8VUZqM1RdHuMyDkAwxYfgK1PfzIB7vb4q+RUzJfTVZRSJgWQDSBOJBJFnTp1Kn3EiBG9HhgeqhvlypUr6SNHjmgoilJGR0frAYjVTbUiRWWO0GPoU3wwmCQw8i6KyWTDqd9EuPSbhIacy9A0N3Q5prFUhYwTVeCLOHDsYw0Gg0EGjujuLnAcJrwGSZB1qho6Sg/XUDGeWBsOnrVlGRdpmkb2mVr8+XEaCi7XG/uimMC60Bahs1ch8q2fSTnoeyPq2ncvqaR5cU0AcgDECQSCi8ePH38oLAwPHTS0g0NUVJQmKSmJaqsa6aioyLZRy2u5LgMf4xBouPuysveAz7iXoVMrIS2I70ruGj0KrzSg+KoUdu5WsHElFReJ7q74NhzY+wjBF3EwbXko+CLLilWpypLj+KeZSD5cDo2q+/uS54jZGPHhH3AKmwDSZ+feAEPOkS+owtObmwEUA7jKYrEuHDx4MH3SpEkPDTAAD0lMw9+InSGXy4UDBw4MLSwsnApgHAA/v4lv2Ee8+i2HwWCQ+IZ7JHlpGjL3LENV8skej/EaJMGIV/3gHExSw4gebrVINYj6IR/Z52p6PIYrlGDAa9/BfdgsMmD3EBjKY/ZQ176fqwJQAiAOwKkNGzbELViwoP5hAoaHEhrawIF57do1+xEjRgzRarWPwpCK6eY1eo540PyfOWCyCDjcQ5Vc2onkrW9DR6l7PMZ/hCMeedUXDn5CMmBED51yztXgwqZctCq0PR7jHDEZA+f/DCs7UkPkXgJDxdUDuPbti3Jar6sFkALg3PTp0y8eO3aslMFgUA/bgDy0TmSapjkff/yx12effTYWwAQAEQCc/Ca/Kej/yjckozzJkdYAACAASURBVOIeqyHvCuK/mwtVbXHPk5MBBE5wxvBXfEmjKKKHQqpGDS5+m4/cCz1bF9hWIvR7YS18J7xGBuweA0Np1K9I3DJf1QYMWQCi7e3tL6SlpeW4uroqe1u1RwINN4YGhlqtFkZERATl5OSMAzAKQDAAp7BnVwsCZ34IAg73VtrWZhSc/Ba5xzaAUsl6PI7JYiB8pgeGzfUB34b4a4l6n1qbKaQcrEDS/jKolT1bF9yGPIHwuRsgkLiTQbvHwJB7dC3S9y5XAZACyARwmclkRv3555+Z06ZNk/fGao8EGm4ODsy4uDjxqFGjQiiKMmluNeQ/OwUew2cTcLgfV6dSiuwja1Fw4jvodT1b+3g2HIz9dx8ET3Ymg0bUK9Qi1SBxfxlSjlaAaunZNW7jHox+L6039I0gutf3BaT99iGV/9fGdmDIAxADIGrTpk3p7777rvxhi2Mg0GA6QVhbtmwRz58/PwSGoMihAAIZbK7TmI9PCyRBwwk43Cc1V+bg+vb/oC7j4g2PC5rojAnvB/XqPgJEvVuaZi2u/VaC5EPl0Gp6fmAVe4Yh6IkP4TFsFulKeT+k1yFp69tU8YX/tQNDIYBrAM4sX748ddWqVbKHGRgINHQChzVr1oiXL18eBsDYo4Jn7eA0dvUlgdAlgEDDfVRl/FFk7vsETRVZPS+mrgJM+agv3MLFZMCILEqliVKc+iIbyoaeA4GdIyajz7T/wiliEhmw+6ikLW9SxRe2twNDKYB4AOfnz5+fsHnzZunDDgwEGv4GDsuXLxevWbOmMziECJx8JKM/vSAQSNwJONzf3wN1qWdREvsbalPOQt1U2+1xwVNcMfwVb4icSaAkkXmrLKkRCXvLUBLf0O1+Fk8An9EvwXfqW7BxCyYDdp+VdWAVlXVwTWcLw3UA0S+88ML1X3/9tYrFYmnJKBFo6AIOH3/8sfizzz4Lg8FVMRxAsMg5wGbkp2cFVnZuBBwehPQ61GVeQtH5rai8dhh6nem1y2QxEDjWCRFPeMA1zIaMF5HZSNOiQ86ZWqQcKUN9kbLbY/i2rujz6LvwGf8qOEI7MmgPQHXpF6nozyZ3jmFIbAOG9B07dtSyWCzNw5gpQaDhFsHh008/tV21alU4gEkARgPwEzr7i0cvP82xsvck4PAA1dJYicIT36LgzBZoW7vW3rd1EyBwvBNCprrA1p1YH4gejOqLm5F6tArZp6t6rOLIYHMR8uQS9JmxEEwOacH+oEQppdS5DyIplbSiAYYGVNEALr388svp27Zta2QymToCDAQabgoOH330kcPatWuHApgCg6vCW+DkIxj18WmO0NGHgMODv9CRe2wD8k9+C51a1e0x3kPsETnLHV6D7cmAEd1z6XR6FEY3IPlQOSrSZDc8VuwdgcHv/AIbj1AycA9Q2tZm6vK6J6j6rEtyGFwSsQBOvv3222nfffddI5PJ1JFRItBwS9Lr9Zynn37a6/Dhw2PRqfiTQOIhHvnxSVi7BhJwMAO1yqqRse8TlFz8pcdjHHyFiHzWG0HjHcFkM8mgEd3dOdikReqxSiQfLYOqTnPjBZfBRODji9F31nKwDN11iR6QNIp66upXs1Cfe1kOQ3noBADHFy9eHLdu3bp6EvRIoOGfWhsYCoVCOHTo0OCsrKwxAMairYYDz8ZJMOrjkxzSq958VJ8Tg6Sf3kRzVW6Px4gceOj3uDtCprnA2oFHBo3ojtQio5CwpxQpf5RD23rzOj8i1yAMevNn2AUOI4P3gKWszkfMlzMoZU2BCkAtgDQAJ+fNm3dh69atJQ9jeWgCDXcHHJi5ubniIUOGhMrl8nEARgLoA0DCtbYXjFz6J8fWN5IMlJlIp2lB3h//h5w/N0Knbr7B0x7gGSlB3/HO8BtlD741MRoR3boUNWokHyq/ZVjgiZ0RMPXf6PPYAhK7YAaSFSUh9vPplLq5ngLQAINb4oKHh8fJ7OzsDKFQqCQxDAQa7gQcWCdOnBBPnz49Qq/XT4Iho8IPgD3HSswZsfRPjiRgKBkoMxKllKLkwg4UXfgfFJXZNzyWyWLAe5AEfcY4wW+EAylTTdStNC06lMRJkXWmGsVXG6DX3+CewmBA4j8YzhGT4RI+GXYBg0lhJnMBhpIUxKyeQmmUUgqAHEAlDF0rj+/du/fa7NmzGx7W8tAEGu4yOKxfv95h0aJFnQMj3QCI2VYizogPjnDs+44iA2WGkubHoTT6N1RcOQi1ou7GAMFkwGOgBIFjHBAw2okAxMMMCc1aVKbLUZWpQGWaDJXpMui0PYMCW2gLt/5T4TLwMTiFTwTXmgTfmpuUtYW4+MkYSi2voQC0uyVSAJybNm3axePHj5cStwSBhrsJDpw33njD6+effx4LQ3xDPwBOAMQsDp8zdMFejsvAR8lAman0Ogq1yadRcPp71KSevenx7RaIvpNc4D/SAWweCaDs1de3jkZFqgxFVxtQmihDfaEC9E0M1CwOH+5Dn4TXyDlwCBsLJou4ucwWAuW1uPDpGEpZU4BOwJAFIDowMPBCbGxsjoODA3FLEGi4q9DA0Gq1glmzZgUdPXp0FIBBaOuKCcCGwWAK+r+yieM7aT4ZLHO3PhRcQ86BNahKPnlLx3OFLASOdUboVGe4htmSAexFolp1SDlciaTDpTfNfOgMCwFT/42AGe+DJ3Ikg2juv7FSikurJ1PyktTOwJAL4PKQIUOijh07lunk5CQnbgkCDfcCHJgajUb0zDPP+P/xxx8DAAwEEApDjIMNAEHg44sQ9tzn5JHDAtRYmIDcI2tREX/0lt9j5y5A38nO6DvRGWI3UjzKEtXaTKE2qxnF8VJkn62GqvHWYIFv6wqfcS/Db8rb4ItJp1VLAYboz6ZRsqLrfweGuEcfffTCgQMHMq2srOQkvZJAwz0FB61WazV//nyX7du3hwIYBiASbVkVAAR+E15HxLzvOAwGGV5LkKIiE3l/bUJZzG7oKPUtv8850Aa+jzjAPUwEp2Ab8IQkBsIcJa9sQUmcFGUpMlTnNEFR3XrL7+WJneE59Cm4DXsaDkEjSECjBUmjqEf0Z1MpeUkqBYDqDAxjxoyJOnnyZDqfzyfAQKDhvoADAwD766+/lixatCiEpunRAAajrY4DAEHAtP8g/KX1xOJgUU8ljSi/egBlsftQnx2Nmzq1/yaJtwAuwWK4htjAJcQGDj5CMFjkEnsQqi9uRmF0A/Ki6lBXoLj1BZHJgsRvEJwiJpHMBwsHhpg1UyhZaVp70GNjOzD07ds36sqVK+m2trYEGAg03Hd4YO3bt892zpw5oVqt1thSG4AdAEHYc59zAh9fRMDBAtUqr0FVwjHUJJ9EbfqFbvtc3ExsPhPOQbZwCxHBNcwGHgPswLUiN6B7IUVdK8oTZShLkaEsQQpF/a1bjESeIXCJmAKHkLFw6DsCHCvS9MyigaG5AdFrprRbGNpdEvkA4jw8PC7FxMRkent7E2Ag0PDgwGHHjh3il19+OQSG5lZDAQS0WxwGvv4jx2f8PAIOFiy9joI0/xrq086hJu0cGvKu/mMrBACwOEx4DLCD3yMO8B0mgY0LKfRz21DXTKH8uhxl1xtRliCFtEz1jz9D5BmCiBe/hlO/8WRAe4kopZS6tHoK5CUpqjZgqGyzMCT5+vpeOX/+fJaPjw8BBgINDx4c1q9fL168eHEwTdOPwBAgGQhDLQdB6DOfCoKe+IhDzJy95ElGXovSy/tQcmE75GUZt/05Ihc+PPvbwb2fGA7+Qoic+OCLOWAyyWXZxZJQo0ZNdhMq05tQkdKI2nzF7XAbAEDg4ImgJ5bAe+xckibZuywMVPSaqe3AIAVQCiADQFJkZGTysWPHCl1dXZsIMBBoMBtwOHr0qM38+fP9ampq+reBQwQALwA29oGPCCLf/Jk0uuplUlbnQ1lXAqqlCRp5LVR1xZCVpqGx6Do0TXX//IJkAtZOfDj1EcEt1Abu/WzhFGj9UDTa0utpNJapIC1SoaFYhcYyJWTlLWgsV/bYXvqWIEHiDsfwSbDzGQBb/4GQ+A0icQq9TGpFHRW7ZiolK01rj18oApAI4Ors2bMztm/fXiMQCFQkrZJAg7mBA7OpqUnw+eefO2/cuDFUrVabZFaweNaCwf/+H9wGzyTg8BCouTIH5XEHUXbldyjKMm/7c9h8Jpz72MDGzQp8azas7LiwdePDwdcadp5WZhtsSdM0dBoaDCYDLE7Xc2yRalBfrERVlgIVqTJUpcvuCA5MQcEDroMfh+fI50DKvPdutTRWUbGfTaWaKrLa4xeKAMSxWKyYtWvXZi5cuFAKQEsKNxFoMNeFkgGAnZubK5k1a1ZIWlqaaWYFgyEYMO97+E54jYDDw7SwNZSjLusSGnOvoiE/Dk2ladDrtHf8uWwuExIfIYR2XNAANEodtBodtGodeAIOHAKEcPS3BpvLglajA/QAi8sEX8yGg5/1DWtN6CgaWo0ODAbAYDAABkDraWjVemhUOqgaNGhuUENZr0FzvRrKBjWUDRqopGo0yyhoFJTRhcBiM8ARssHmMaHXAuomzQ3LMt/697eCwNEHQmc/WLsFQezVD/ZBwyF08iWT7iGQojqPiv3iMZWqttgkfsHFxeXqnj17MseOHUviFwg0WAw8sBobG20nTpwYmpSU1DmzwgkAZ8Br33N8J7xOwOEhlU7TAnnRdTTkXkVD7mXU5165LXfGnYonZMPWSwCekANaq4dOS0Ml10DVoL5rT/13y3Jg33c4bP0GQejkC4GDB6zsPcGzcSKT6eEUVZd+AXEbn1NplNImGOIXUgAkjRkzJnXv3r35Li4uJH6BQIPlgYNUKhVPnDgx7Pr1611SMiPf2sbxHv0iAQciAEBzVS7qMi+hITsatekX0SqreijHgW0lgo17COz8I2EfMBSSoOEQOHr/M8tOYxXiv51j3LbzHYB+L35FJlkvAYbCUz8i5df3VbReJwWQh7b4hf/+978Z69evr2GxWCR+4V5dn2QI7iGRMRg6mqblZ8+eTZ8wYYI+OTlZB0CHtpTMpM2vC9h8a7gPeZKAg4WrNOpXyEpSbunYsDlrwWR2vfSsXQNh7RoI3wmvATBUqpQVJEFWlgZ1YxXU8jpQrQpoWxTQquRobaq9Ky6O+2IpcPSC2LMfrN2CIHT2g5W9JwR2LuCKHMDiCQAmCwyaBpPDA4sruOO/p6daUZ8V3XEtksDHXiG9Xkul/fI+Cs5s7lwSOh7ApVWrVmUuX76cxC8QaOgd4HD+/PnMyZMn0wkJCRoASgCBNK13u/bti4IRiw4LnCImAQCBBwtVTfIJlF09eEvHhj7/OcC8+aUncg+ByD0Enj3sp2karbJqNObGQVGRAbXcABHKumKoaouhaij9R2Wx76Z4Nk5wChkF18FPwCl0HLhi4kYgujNpWxVU3MbnqJqU0yYVHgFErV27NuODDz6QEXcEgYbeZnHInDFjRmt0dHRj26QPpbUaryvrn8KQ934XuA6YRhFwIPoH8wpWdq6IObgCirJM8ESOeGxLhQlUqJtq0SqtQIusBhpFPbRKObQtMgAMcMXO4Nk4gcFkQi2vQYu0Alq1EjRNg0HT0OsoMBhM8ET24FhLoNe0QlVXDKqlCWy+CDw7F1jZuoIttAWHJwSTywdHaAsrsQuBBKK7KUqjkuHKZ49SDYUJ8ra1Mx9AHIPBuPTNN99kvvPOOyTgkUBD7wSH06dP57z44ouyAwcO1AGQA1DrKLVv3Pqn7SJe+UbQZpom4GDhcggeBasebpwMxt2ruSArSuwxnZPBYIAvdgZf7AzS0JvIwoFB1VCY0IQOl0QSm82+sm3btqyXXnqJAAOBhl4LDnqappX79u0rff/995s3bdqkANACgNLrtL7Xt77t1FSSKuj34jowOXwCDhasoCeWwDl84g2PkRcnA+hwvVo5eIFrbW9yjE6jQnNljslr1m5BRr9/0dmtHcfqKciLr3fMNxYHNp5h3a/ESimayjIgL88CV2ALkUdfiFwDweR0X9paWZ1v7L8hdA0EmycEYCix3ZAVC3lFJhyDR0Hs1c/w3UrTAL0h3kLk1c8Yw6GsK4asIAEaZSOsXQMh9okAV3BjpNHrKMhLUqCqL0NrQwUYTBYEDl4QeQZD6ORHJlsvBoZWWTUV++UMlbwkpRGGlMoMAEm2trbJe/fuLZwyZQrJkCDQ0OvBgQZA0TRd7+fnl7Jw4UJKq9W2AGgCEFhwZrNbfe5lweB//yKw8Qwj4NCLVXD6RxRf+J9x2zF0DEZ9fMbkmPQ9y1Bw8nvjtiRgKMauvAhldT6Sf1mAmpTTxn1apQznlnQUMhJI3DH1+yKTz9M0NyBl2zvdxl/wRI4In7seniOe7bLv+rZ3UJt+HgAw+K3t8Bw9B3l/bUL2oc9AqWQAgIi5G4zQELN6CtTN9QCA0SvOQ+jgjctrZ0Jelm7yuVxre/R7cR28R7/Y5W+q6ktRcOIblMTs6TEd1W3Ikwh7/nNYO/uTCdXLgEFenExdWf+0XFVfVgmgBEAqgITJkydnb9mypcbb25tkSBBoeKjgQUfTtHzw4MEZc+fOVefl5bXHOUTIS1K9zi8ZiuBZywV9Hl8EJpNN4KEXKmzOWtQmn4KqsRIAUJcRhfKYPfAY+RwAQFaUhMJTPxqPZ3F4GPjWFoDJwtWNz0F+i9ka7WoqS0fM54+iVVbd7X61og7x372ExvxrCJ/7dY+fU58TCy3VgrRdi02hw8ah2+Pz/9wAaX5CtymkmuYGJP44D1Z27l0aR9F6HfJPfg9a3/ODZOW1w1CUpmPcF1fB5ovIpOoFsEDTNApP/aBK3/1Rk45SlwJIB5Do7OycumnTpsLZs2fLQDIkCDQ8zOCQmpqatWzZMumGDRvqaJqWA4jU66g+Gfs+QXXyacHgd3dSAok7AQcLkrw4Gcxu0vz4Dh4QufQxPGULbNF/3ve4/NWTxv0puz6A08Bp4PJFuL7136DpjgepkGdWwMYt2GCVCBoOvp0LalPOGI9hsjhw7HTj5YpMXR0pvywwAQZbr37wHvcqFFU5KIveA6pFbrjJn/wOHiNm91h+uTR2H4oubO/yOlfUPTRUJhwzLDZ8Eez8I9EqrYKiKudvFpUlGN8vzuQ1oZMvvEbNQUnUDoi9w+EQPApCJz8oyjNRce0INM0NAABFdR7y/tyA4FmfkIln4cDQWJiA1B0LVQ25V9rrLyQDiH3mmWcyN2/eXC2RSIh1gUDDQw8OepqmlevXry8dP35883PPPadQKBRqABSAwIacGKcLHw0RDHpnB+UcPpGAg4Uofc/Sbl/v8+i7JkWGXCIfg9fI51Aas8fwtC+vQdbvK2Dj3heNhYnG4yQBQ+H/2H+N2+GvbAIAHH3ZFjq1oS00R2CLER8e6/7GHf8H6jIvdfzdAdMw/IOjHec1/X2cejfQuJ11cE2Pn6VTNwMwVGkMfHwxxN5hYHL4ELr26XE8RC59MPLjk7Cy9wRN0yiN+hWJP73eAVklqdDrqC5dJ4P/tQJ9pi+AjUeoyevO4ZNwdWOHG6WxKIlMOguWqr6Uyti7DGWx+0zqL/B4vEubNm3KnD9/Pqm/QKCBqBM4GOMcoqOjU6dOnaqrrq420rRaUecU++VjgtB/raQCZ37IYTBIIc/epPC5X6Mm9RzUTbUAgMLTm8FqCzQEOtwSTObtX641ySdMtr1GvmD6VO/oA0nAUEjzDU/7itL0G36etbMfxn1xDRwrm1v6+4EzF8PK3rN9vsNj5HNI+d+70GpaABhcEar60i6xCQKJOyBx7/J5zgOmgcFkGV0XioocMpEsVIWnfqTS9iyBTq3qDAxx7u7uUYcPH84YPHgwqb9AoIGoB3jQ0TQti4mJSZ84cSKKi4s7dtK0U8a+TziNRUkY9NY2DvHfmreYLE63VQj//iQNGIIBB7z6jfHJmab1xkwFAAie9anRLXG7aq7JN9kuOr8VZdG7TF5rlXe4LlTSCmhbFT3GCQQ9teyWgQEAHMMnmWyz2FzY+g9GfdalThYMVZf30TSNutQzkOZdhbK+FKr6UuhbmqGlWk1iHWidhkw6C5OmuQGJm1+nqhL/pGCwrBqBITIyMurYsWPprq6uJJ2SQAPRLYCDPCoqKn38+PEoKCjovNuu8toRwcWKHAxddIDT7hsnMj898sHRm6Zcdpbb0KfgMmAaqq+bWgREniEImL7gjs9HWWUyj1CXcfEWFvXGHqHBti1L4lbFs3Hs8hpHcGPoqEu/gKStb0NZU0AmVC+TND8O1zY8R6mk5RQAkwqPkydPjjp06FC6UCgkwECggeifgMPFixfTx40bp8/Pz+/cs8KuqSJLfHHZCAx6ZwdcB0wjcQ69QGpFHRrzE7paCKryoazKhcg95A5NH6YuLYGTz83nIavn5YFldeuWLhZPABab+49Ot6k8A1e+ngVtS4fFReDoBefwyRBI3MDkiZCxZ4nF9N4g6lDh6R+R+usiSq+j2oGhFm0VHmfMmHHpwIEDmVwulwADgQai2wGHCxcuZI4dO5YuKCgw9qwAoKVUMpsr//cEJ+SpZej71DIOSEMei1bq9nehVnStRUBrNUjc/AZGr7x4RzENIre+UNWXGbfHrY65j22l/3kFzLKYvSbA4D7saQz9zy50nucZPQSbEpmndBoVkra+TZVF70YbLJhUeBwyZMiVffv2ZRFgMG8xyRCYNzh4eHjIL168mNmnT58LAM7B0KClEEAtaFqVeXANFbv2cUojr6XIiFmmKuMOmhRbsnEPhmv/qcZtaf415P+5sfs50ukmqtO2Aj3UNBC5BZlsVyefMusxkZUkm2z7jJtnAgzNNQXQ68iUtxQpa4tw8ZPRVFn07nbrgrRtHYsDcC4yMvLCiRMnMq2srAgwEGgguhvgcOnSpZxhw4ZdBHAcwAUY8pcLAdTUpJ6Rn1k8gCo89SOl07SQldQM1FSSirrMqG7/0XRH1phGUY+k7e+avLf/vG8R/uo3YHOtOp6q96+AoqJrjwmBxMP4f22LAuVt8KHTatpKORvWX4+RzwKdsm7SfvsI0oJrXT5PJa1A/p8b0Jh79YGOH5dvbbItL+pIP21prELqrwvJJLMQVSf+RZ1bOpSSl6S2A0MFDDUYLgM4NXPmzIsXL17MkUgkBBgsQMQ9YRngoKdpWhkbG1u6bdu2phUrVtRVVlaWAwgF4A/AXa2oc0r+5b9Wucc3CAa+thlO/caTWIcHqLTdH/W4b+ZOBVhsHgBDwaXOJZK9x7wEh+DRAIC+Ty1F+t7lAAxuiqQfXsOo1ZdM3BTW7n3RVJFl3L727Ryk/LoQVLMUeh2Fx39pBJsnhMR/CPwnv4WCUz8YYKWpDheXj4K9byQETt5QN0uhaqhAc3UeQNMY+t4+2D3A8RN59QM6WV8y969ETdpZMBgs1GZcAGiSrm/u0qqVyPhtCVVwZnN7dkS7O6IQQKKVlVXcunXrMt555x1S4ZFYGojuATjQLBaLev311xvy8/Mzv/rqq3OOjo5/ATjdRuypACpUtcXymM+nUmk7F1M6rZpYHcxYlfFHUXb5946na6EEYS98Ydz2f+w9iNz6GrcbChOQ/6dpeefAx7s+cavlNd2a7kNmr4LboMc7XqBpNBQmoOzqQdSmX0BzVa7Z3Iz9prwNntjZuK3XaVGXEWXof0HTcAwZjdDZK8kkMlPVpV+gzn8Y2Q4Mqk6wEAfg1JAhQ84nJyenvvPOO1IGg0ERYCDQQHQPrQ5WVlbKhQsXlhcVFcV/+eWXJyUSyR8ATgGIb7swa/KOb1JFfTKaaq4pIOBghtI0N+D6tndMXgt7/nPwRB2piSw2FwNe+9bkmIz9q0zcFBL/IRj6393g27qYHCeQuMNlwDSTDAiOlQ2GLTyARxYdgq3vALC66WgpcPBE0IyFkPQZ9kDHhyuwxaiPT8IhcLjJ6zxrB/hNnI/hS47Df/LbJi4cIvOY14mbX6OiP5tCNdcUygHUwNBsKhkGt+rxhQsXXoyNjc0KDAwkRZss8R5EhsByRdM0AwBLLpcLV69e7bxhw4YQvV4/BEAkAA8ATmy+SBAx92uO99i5xF3Ru+cCWhor0dpYAWtn/y4ttnt6j6q+BK2yKvCs7cGzcQRHaGd2302jqIeytgh8iQes7FzJj22mqk46TiX+9AbUTbUUAHmbdaEchuyIDGtr67Rt27YV/etf/yLuCAINRGYAD5yoqCi7Z599Nri6unpoGzj4AXADIHAIHCEIeX41HIJGEnggIiK6e9LrkLl/JZV95Mv22AUpgEoAWQBSmUxm5hNPPFGwfv36eh8fH9JwikADkRnBA6uqqko8a9Ys/8uXL4cDGAhDsKQXAAkAjmv/qZywOV9y7rhYEBER0UMvjbyWiv/hFdSknlGho7JjOYBEANdGjx6d+cMPP9SEhoYqAeiIdYFAA5H5gQNTo9EI3n33XeeffvopFMAwdHJXABAwmCxOn+nvIWTWJxxmN35tIiIiopuIqrh6AMnb3qXUzfUqAAoAdQAKAKQwGIy4pUuXZq1ataqRyWSSQEcCDURmDg4MAOytW7favvPOO6Fqtbqzu8IJgA0AjsilD2fg/M0c+76jyKARERHdytqCutSzVM6xdajLiGq3LnSOXUgNCgpK++mnn4rGjBlD6i4QaCCysAuclZCQIJ41a5Z/SUlJZ3eFGwA7AAIAHL/JbyLsuc9I50wiIqJupdNqUHphO5X71yYoDRlZ7a6ISgDZADLYbHbmkiVLCpYtW1bH4/FaSOwCgQYiywQHZmNjo2DevHnOhw8f7gtgUBs4eANwBCACIBA4enMGvv4TKQpFRERkosbcq0ja+jYlL0v/e5GmEhjqw1wfM2ZM1rffflvbr18/ErtAoIGoF4ADAwB7586dtgsXLvStq6vrh07VJGFwWVgBEPiOn8fp98KXYAvEBB6IiB5i6XUUcg5/QWUf+hw0rf+7dSEDQPKAAQNSt6NuwAAAHapJREFU161bVzhx4kSSRkmggag3Wh0aGhoEy5Ytc/j555/99Xp9XwBBMMQ6GAMlBXZunH4vb+C4D3kSAAg8EBE9TLBAtaIy4RiVc/gLtFkXOgc6lrQBQ8KiRYuyv/jiixo2m03SKAk0EPVyqwMrJSVFsHjxYsczZ874Aghuszz0Rad4B+ewCZzg2SsgCRhK4IGI6CFQacxuKnXnYmia6jrDghSGJlMFADLEYnHa5s2bi5599lliXSDQQPSwwcOZM2eES5YscUpMTAwGMKANHvxgqOsgAsBxChvP6fvUUk5bIyUCD0REvUxUSxOVvO3fKIvd1w4LLTDELVTDUJo+h8FgZM+dO7fg888/r3d1dSXWBQINRA8rPNA0zd6/f7/tkiVL/AoLC8NgGu8gAcAHILAPGsnp+9RSjnP4RAIPRES9RLKiJCp+0xxKUZPfublUeTssAMgeNWpU4caNGxsGDhyoAgl0JNBARETTNFOtVgs+++wzhy+++MJfq9X2ARAIQ5aFPToyLawkAUMEQU8t47gOmEbggYjIQtXSUEblHluPwjM/UbRe1yWFEkBWeHh40Zo1a+pmzJhBYIGIQANRV6sDAFZ8fLxg3rx5krS0NB8YSlB7APBt+79zm/XBytZ3gCD4qY85roNmEHggIrIYy0IilXvsa1TEHWqHhfa4hcI2WLgeEhKStWLFitpZs2YpGQwGgQUiAg1EN4YHmqZZMTEx/GPHjol+//13+5KSEk8AATAES3qjU7aFfcBQTsSrmzi2vgMJOBARmamU1flU6q4PUJX4Z49BjoGBgekrVqwonD17tozJZJIgRyICDUT/2PLAoGmade7cOcGGDRscjx8/7oPusi0YDIH/xPmckNkrwBFKCDwQEZmJ1E21VP6fG5B3/BtKr6O6DXL09fXN/vTTTwvmzJlTz2KxSJAjEYEGorsCEKzU1FThhx9+6HTy5Mlusy241vaCvk8t5fhOegMsNs+i4aEhOxoll3aByWTDa+xL7amnD5X0Ogol57ejJvU0VLXF0Ou0EHmGQOweDMewcSB9S8xXdekXqeKL21B57Qilo9TdBjm6ubllL1++vHDevHkNHA6HxC0QEWgguifwwP7tt99s33vvPb+6urrusi1EAmdfQehTyznuI2aDyeJYHjzodTj5nwCopBUAAJFrECZ9nfZQ/dY6rQZRn4yCrOh6t/vDX1qPgGn/IReFGUmrVlIlF35Bwekf0VyV27nsc3txpmwAGTweL2vhwoVFS5curRMKhQQWiAg0EN1zeGDKZDLBl19+6fDtt9/6q1SqztUlXYzwIHEXeI1+keM97hUInXwtBh60aiX+mu8OnVoFAOBZO2Da5hIwWXf/K+g0KshLDUBi7ewPrsjBLMYg//g3SN25qIeVg4FHfygB39aFXAzmcT1SZZd2In3vx1SrrLodFlpgiFmoB1AFQxfKpPHjx+f++OOPtYGBgaRPBBGBBqL7bnVg1dTUCNatW2e/efNmv57gAYDAOXwSJ+iJD+EQPNoi4CHv2HrkHf8GTA4XgY8vht/EN+7J3yk6txXXt74NABjyn53wGD7bLL7/1fVPozLhmHHbNXI6Aqb+B2pFPSiVDL4TXicXwYMVpddrUR1/FFmHv6TkJSntLojWNliohsEVUQSgyM/Pr2DdunUlTz/9tBykkiMRgQaiBw0P/9/emYc3VeV9/JvlZrlNuqRN25RutFAKFChLKRUcFmWTKSAzIK4d5pkRRFDUGUeHdxx91JkRmEUFFPF1rBsyoiwvKlIWGWlLWVtaoJQuSdM2W9M2zZ6bNO8fSW6TklbQCoxzvs+Tpznn3nNz722S88n3/M7v6PV6esOGDfKtW7em2+32/uFh3Bxq9L0vIzptHAmYBHDsj9NhrCu/5aDh0G/Gobv1Elue+1odIuTp5B92C8CCVd8E1dfvMs1fFzO2zraAqxAYgjDCNyPiCoAreXl56lWrVrU/+OCDZoqiHCTIkYhAA9EtBQ8ajYZ+6aWX5Nu3b09nGCY8PHA4dMq0e6kRC3+LyOTRwC2Y56FLVQWO1/f9yuFRiEzJCb5WdKsqfQUuD1GpY9l6q/YKuhrOwMM4EJGUhej0XPCFEWFfo1tdg0NPT2DLOctfRMK4OWxZHD8UAjr6qnY9HgYWTR26my/AZeuCNGkEooaMhCAqPuzruGxdsOubAAD8iJiQzt9qUEJ//hAoYQSSp93LHv/g2uGwdbax+93x5wr2OS1PAxUhC3kNq0EJi6YeDqMaLksnRLIk0PFpiMmYdE3DOj0eBhZdPcwttXB0tEEYGQdRbDJiMvPA4wv6bWc3tqC7uQZWQxPo2FRIkrMhkacDXN6Ar2dSVsKqa4StSwtKSEMcmwLJkGzQsiG3JCg4TDq0nPgUbWX/YtrrysK5Chq/q9CSkJDQXFRUpCoqKuoYNWqUDYAHgJe4C0QEGohuWXhoamqin3vuOfmHH36Y7vV6+3MeqKi0cVTq1HuptJlFEEhibxl42PuQFB7GCQAQRiVgwZtqdpvHZcPeot7OfN7r9XDbu1G2cTFshuaQ49CyZIz71Rb4M2j62rtdaPzydVz89EU2biKc8p/YCf9qo6zU//4AlcVPgrF1XbV/2vSHMOaBVyCQxIbUa87sR/mmJQAA2dAJmPGnE7DqG1Hx16Xo8sdTRCRkYu4/LqHp8Nu4vG8DbHplv+c1+dFiFjAaD72F5mPvo6O+Iuy+koQMjPr5H9n9w0l55B1Uf/A7MHbTVdsEkliMWPgbDC98KrTTb67GmS2/YM8/WFFp4zBx5TZED51w1TZ91UHUfPRs2HYAEJtVgGHz12LIlJ/fCp8lRl/5FeoPbmH0VSWMf4nqsK4Ch8Opv/POO5tXrlzZsXDhQjNFUQ6QmAWiQRaf3AKiQSdR35eU2+v1mt9//33bU089ZXj66aeVJSUltfDldgiBB5OqSlStqqIvfvI8NXTmCgxf+FuIY5NvSfehP134eD20Zw+E7fRsHS04sWkJ7txwBtIhowAAraUfo/qjZ6/7dU5vfgjNpR/3u1117D1oK7/CHa+chigqIew+naoqWDR1OP5KIWy6JrZe5A/ADMRXXKu0Zz/vFxgAwKJrxMktReCJJPBnDw22F1C+8W5oKg/0295lMYInoEPqmo9/hLNv/ho9Hia8i6CqwtH1tyH/8Y+QlL+ErTdeKUf5X3/GwmA4GevKkXL7/Tf1/eRx2RjVvz9AwxevM2bN5QFdhZiYmOYVK1aoVq1a1TF8+HDiKhARaCD6z4eHgwcP2vbv32949tlnlTU1NbUArlrbwsM4pPUH3xA3Hn6b8s24KEJs5mT8IFMWBlnq0p2+X8URMsRkToS55RJsHS29vxh7PLi484/If/ITn3MRk4SE3Lkwa+pCOu7o1DEQypLYsjio4289uTsEGPhiKdKm3Q9J0ggov/4nTKrzAACnSYeaD57GpEeLw/967fHg6PqpVwGOINIHDQm5cwEA7ReOwcM42O2BegAh55i95PfQnvsS/IhoJOXOgzRpBLwcDtpO7kGXspLd7+zbq7GgDzQov373KmCQKkYgIjEDNr0S3W214PAopEy7JwQiKt9d1wsMHA4U4+YicdJC6Ku+QtuZ/fD2eOD19qDy3ScQP+YO8OkoAEDTwTdDgCFh7GzE58yC02JEt/oCdNWHwafESJ123015Hzm6tEzjV1vReGg747IYbeg/VqE+Oztb/dhjjxmLiorMNE0TV4Hoxnyvk1tAdKMUSE+9e/du+s0334w9fPhwWk9PT/DaFgr0Dl2IANCUOIqSZeVTcdnTIB8zCzEZeRSHc2PettczPAEAsmH5mPrMXlARMvR4GNTt24iL/3qe3U7LkjFvS2Mfh+J/cHnvBrbcXyCkx+3C4d+MhUXX237OPy5BkpDJlss3LYHmzH62PPfvFxGROAxA6PBEL9RxkT7rl0gcfxfo2GRwKQHrhADAgcezQoYoluxw9XuvDBePQZY1BTy+MMRF+Hx1OpwmHVs1b0sTGzPgdphx4PFsuLoN7PbcFa8iY84jbNne2QZT4zkkTlzA1lUVP4GGA1vY8pgHNmD4gnW9bsvX7+LMtt6ZLmPu+wuGFz4JADjy7OQQkJm9qTLkmhlrB0zNNfAvA3+jxJiaq1H/xatQH98RnLWxA4AOQHPAVeDxeM2FhYWqRx55pGP27Nk2DodDXAUi4jQQ/fidhyVLlthaW1sNn3zyyeVdu3bJysrKUr1e7zC/AzEk4D4wdpNUV3VQrKs6SGHnc5REkYWce19GUt6iW859GLXsBTY4kMujkD7zlyHQYOtoQQ/jAJcSXfexrZq6EGCIzSoIAQYASC5YFgINXc3VLDSEU96a95B827JBuXb5qOlXV3J5UExYAOXRd9gqS+tlFhpMysoQYIjJmBgCDAAgjkmCeGJSSJ3u3Jch4JMydXnI9qS8RTj39qOsE9Gt7o1dkCRkhEDDyVcfwJgHNyJ+zB0AACpCdsOAweOyM7pzX6Lp0HZGV3MY8OVWCM7aqAJQy+fz6+fMmaMuLCw0Ll682JyYmEhcBSICDUT/lfBgXbdunW3dunXtLS0tLcXFxbVvvfVWWnNzc7/ug0VTR5/421KKlqcicdx8yEdPR8LY2VTAfr5p18TlIX50aMcpik4EHZ8e8mvdzTgg+A7QYNE2hJTtJi3KX1kYUud22a4Cjf4UPXT8oAED4Js5oTm1D1Z9I2wGFVzd7XAzDtiNLaFuk9vV7zUl5s771tfp8TCwGlS9XCIQ4dy2q/NncCkRCw1mzRW2XpG3GC0Vn7Flk7oGx/80H9KUURg+7zGk3n7fd4K6a5XLYmS05w5Ac3Y/tOe+YjxOSwAU3OiTtTEyMvLSqlWrlOvWrTMoFAoSq0BEoIGIwAMAL4Aer9fbvX79euszzzxj2L9//+WtW7fGlpSUpIRzHwBIbYZmceOhbVTjoW0UjxIiYdxcDLtrLeJGTgduQgClMFIedoofJY4cnE65Twdr0zWFxEKEk8Ns7HdbYIro95XbYcHpN36JtlN7Ae/19WV9oUEYo/jWNnaDCt4eT++vdadtwCBKAHCZ29nnKVOXo1tdEzIkBABm9UWc3b4KtbtfxsSVb0OeM3PQ3hvdLRegPfs5oz3zJYxXyhmvbxpvcLxCJ4AuPzA0UhR1du3atXXr16/Xy2QykrWRiEADEdFA7sOiRYtsixYtaq+rq1Nv3ry5tri4OK27u7tf98HDOOm20/uottP7kDB2NjXqZ39gYrKm3FB4oMLkUhjk+xNSFkhiwaelA4OMJKb/D75YMijndfL1B6A9+0XvefIFSBo/HxGKLAglsdBWfgHDxX9f28GCYKA/efvcBx4lgjBm4FTW/pk4rEYvfwmJuXNR++mf4B8W6IWxdjXKNt2NGc9/jaj03O98XzobTjEtJ3ah9dSeANwFUjsHz4Iwwhev0AJf7IJ+woQJyuLi4uacnByStZGIQAMR0fW6D6+99pr15ZdfNhQXF1/eunWr7NKlS6kA+roP0QAiAfB150vEuvMllDRlFKUYvwCJuXMQnTEpkFyJ+gHP+we9LxFDskPKGbMfxqhlL9zU/5XdqA4BBoqOxsyXjkOiyOrthI3N/UJDRHx66PH8i4MNJIk8HRy+gB3moBMzMHtD5XWfe2z27Zi6/kuYlOdwed9GtJTvCnEv6v5vE/LWfnA9h2TMrRehPv4xmst3wqZrCswFDV4HItwsiMakpCT1nDlzuhYuXGgtLCy08fl8J8naSESggYjoe7gPa9assa1Zs6b96NGjLW+88Ubt3r1701wuV7IfHFLhG7aIAhABIMasvig1qy+K6/ZtpDgcLhWZPAqyrCmIz5mFhNy54Iukt0QgJafPkIbHZQ+7X+SQESFlfeVXGLn0edyomSTh1NUU2lnLc2aEAAMAmFtr+21Py4eGlNtOfIZR97wY9pp6etzgcvkAl4dIxXCY1BcA+AIrrQbld05vHZU+HpMf+wip0x5A2cbFQddW9a2QAAC2jla0lf0LzaU7mKAAy+A4BQd8q0yG5FaQSqXN999/v7qoqKg9Pz/fzuFw3H5YBnEXiAg0EBENovswc+ZMq9FoNOzcubP2/fffj6moqEjyer3xAOIAxMM3dJHqdyEivd4ekUldwzepa+imw29TPEoI+Zg7MCRvMRTj74IgKv6mAYSoT8pidenHGFKwFHxhBOydGqDHA3FsMmj5UMRmFbBrVHQ0ncWFj9dj5NLnQ1Ise9wuGKpKYG6rvSqD4qB/eYikfSDiHLxeLzgcDjxuF1qO74C+5ki/7WWZEyGIkMFl7fABhq4e57Y/gpwH/gIBHQ23wwKT8hzq9v8dyQXL2FkSKdPuh2nH7wH4ck6c2fwL5K3bAXGfmAiTshLNpTsw8md/AF/kG465uPM5xGTmIT53Tsj00MjUHHC4PDZeQiiNHRgUTu1FW8WnTHvtccDrDXYT3P6/nQCsAEzwDT80AGiYMGGCeuXKlR333XefWSKRkFkQRAQaiIhulPuwevVq2+rVq9t1Op365MmT4tOnT0ccPHgw6sSJE8nwZZwcCl8cBOtAABB7GKdIe/YLWnv2CwrwpRyOHz0DsuH5iBk2GXRc6g2DiMg+ww76miP4/NcK8EVSOM0G5Cx/EVmLfgcOh4Pxv96KI8/kocfjBgDU7duEluM7EJWeCw6XC5uxBVZtIxi7CfJRP/nBoSEqZRQ4HC78gX2wGVQoeWIkojMmQF99FC6LceAvHzoKI+5+FtUf/JatUx59B8qj70AgiQ1pnzJlKft82ILH0VK6g00D3V5XhoNPjIYscwJEkXLYO7SwtSth8w93jLi7N/Nm26m9qN3zF/BFUkiTsiBRDIOHcaKj7kRIgGVMVj6batJlMaL9UimMtd8w+gtHYVKdHwgSLPANQWjgW5K6PSEhQXPPPfeoV6xY0ZGbm0tmQRARaCAiusnug7WwsNBaWFhofOGFF/jV1dXKzZs3X9y1a1dKR0eHwu8+yOALoFT4ISIQByEyqapok6qKBQVhZDxkw3o75z4aVKCIG/kTyIblh6Rh9jCOkEyMLGAkj8b4h7fh/LtPstkcbR2tbOd4oyWIikfmvEdR/+XrbJ1F18jmk+CLpZj48DacfvNheJyWsMfImLsK+uoS6KoOhtQPBBxcHoVJa99DxWv3w6y+6LtnTsu1B1zCl1iqs/EMOhvPsA5CQNKkbMizpzPVH/4O+uoj8C85DfQGMfYHCR1+UDBkZmbq5s2bZ1q6dKl92rRpNh6P5ySuAhGBBiKiWwcg4IcIl9frZbZt22bdsmWL/ptvvqH37Nkj/vTTT6NbW1sTAST5H4E4iJBASgBiZ7ee0pz9PAQOnBYjqj98BooJdyE2+/ZBBYnJT3yMqv9dA83Zz9k6npBGVEpOSLZCAEj7yYNIGDsb1R89A/35wyHZFgHf7AVF7jwMnfWrG3Lvc+59GTwBjSv7/8bmReDyKESljcXEVdsRmZID3fkSKI/+M2x7Hl+Iqc/sh+rrd1G3dyMsugbWuQB8QyBp0x9E7OgZVwHUHX8+hfrPX4XqyDuw6BtD2gG+hbmGTF0essJo2vSHoDr2HhO85HcAGvhiKaSKLMaqVzJlmxYzfhcB/r/d8E2LNPkBgYUEmqYNubm5uvz8fNOUKVPst912mz05OdkZcBT6vEeJiP6zv2/JLSD6scq/2iYAcLxeL6+mpkZUUVEhKSkpke3du1fhdDqT/QAxBH0CKQGI+0B14DlFy1OpoTNWUCkzfhHIbkgNBkS4HWZYtfXgiiSQxmd869LOgG/Ja6u2HlwuH4KoBAgj427KUh0etxNWbT0AQKLI+s7nEDiOx2mDKDoRgqiEAZfF7tvO7bBAGJUAYaS873LkDGPvhstshNthZuztrbBo6xhz6yXGom1gOpWVbrfNFBhqsPj/OtEb1GiAb8ZDm1QqbfvpT3+qvfPOO7snT55sHTlypD3gJBBIICLQQET044IIDgCeXq8Xbd26VbJ79+7ompqapJ6enkAgZWAYQwaADgIAXsCJACABIAaHw4/LnsZPzJ1LyUZMpaJTcgKZKQcFIoi+u2wdrUzXlRMw1p+CSXkOJlUN4zQbgNBcCQFAMPvLNr97YPA7CnZ/vUUqlbYvWLCgbdmyZV3z58+3iEQiB4EEIgINRET/fQDBtVgsotOnT4tLS0vFJSUlUaWlpQlutzvWDwdUEDBQfjdCHgQVIgDSAEiIohNFdEwSLYyKhyg2mZIoshCZkkNFpY0Jt1Q1gYnvL6bHw8CkqkLH5RMwXilDx+Vy2Dpag+MUgkEheJhBD99UyE7/dhMAA4/HM8THx1syMjJceXl57jlz5rhmzZrlEAqFTgA9IEGMRAQaiIj+6wEi8HngmUwm4bFjx4THjx+namtrea2trRyn08l1OByCtra2CLvdLkfvcAYN33BGInwBl8FBlvwg2KBE0QoqOmM8olPHQpI0AnR8OkXHpkAYnRhswROQCAMGAODo0sKuV8LaroLNoIRZUw+L+gLTpa7pGzjad3ZDABSMfhehGUAbAO2wYcM0BQUFlkmTJjnGjh3rHD58uEOhUDi5XG5gKgULBwQUiIgINBARDQQRfT8rHABcjUYjvHTpkqiqqkp46tQpUVlZmUSlUgVSWwfHSFzlRKA3NoKFCQCUUBIHQUw8xFEJlDAqHqKoRIiiFRDHDoEoNhkR8Rl98xD82OAiZAaDo0uLbvUFdFwuRfvlMqaz4Qw7Y6QPGATaBQct9s2TwMYjREREtNx1112aBQsWdMyePduSlJTk9LchcEBERKCBiOgHhwoOAL5SqRQeOHBA8tlnn0UfOXIkyePxxPndBqnfiQge0qAACBEcH9HHlQgHBTwhDWlCJiKSsiBJGEZJEodBkpgBWp5+zQGD16HrhRImXKWjS4tu1Xk4ug3giyTgcHmw6ZXoUlXBoqmDvaMFLrsZfErMUOJIeOGFs0sXAIRvAwNLkJvgQe8wRAdCp0DqR48e3fbkk092LV++3ELTNBuPQACBiIhAAxHRzQIJDgCuTqcT7tmzR3z06FHB+fPnhY2NjVKn0xkPf4ZKv/sgxLfER/RxJcJ16iFwweXxfWmpuTxwuZTvOY8HLpcPLkWBy+WDwxNAIJJAKFNAJBsCcYwCwsh4UHQUqIgYcAUieD1uuLoNlLPbAI/TDi4lBF8kofh0JAQSGTgcDnpcDsbeqQFj6YDH7QSHy2c4PAocLhcuc7vPJag/BUeX5lpg47uCQSBgMRBr4ABg4fF4xvT0dN3YsWNNkyZNss+fP98+fvx4B0g8AhERgQYiolvdifB6vTytVitUq9Wi1tZWqqWlhd/Q0CA8efJkxJkzZ+Qul6tvfEQgZkKI0NkbCIIIsX9fEX6YfCtUGDihwnT0zEBOw7cosDZDZxgwcPrBQOsHAyZofwv88QlCodCamZnpKigo8EydOrVn4sSJruzsbKdAICBTIImICDQQEf04QML/4NntdkFFRYW4tLRUUF5eLjpx4oTEaDQm+F0JiR8KAIAbBA8iP2Qk9QGHwYSHwKyRSP95RPWBBpO/8+4O6uivBxaCgaHNfzxHEIiYABhpmtZnZmZa09LSnOnp6T25ubmegoICJiMjg53NEJQdtPcGE0ggIiLQQET0I4YJFiSUSqWwurpa1NTUJFAqlby2tjauXq9HZ2cnTCYTz2KxCMxms9ThcCSjd8aGIAgsvq/4QXCSCCATvtwVkf7t3fDFDDT4nYBAjID7Go/fA8AFwMThcPSJiYkt48ePN8+YMcM1adIkT1xcnFssFjujo6MdcXFxwY4BAQMiIgINREREA4BEuM8rBwDldrslBoNBolQq6QsXLvAaGho4QqGQM2LECKSlpUEul0MsFoPD4cDlckGj0aCurg6tra3o6uqC1WqF0+mEy+WCy+WC3W6H1WrlWiwWjtls5plMJqnJZBpitVrzAUzygwP8wHCaz+dXJCcntyYnJ5sTExM9MTEx3oiIiB6xWAyapiESiSAWiyEUCiESiSASiUDTtFcqlXqjo6M9cXFxNrlcbuHz+Ra/uxAMBmRYgYiIQAMREdEgQgU36DEYn+fg9lz4YipiXS5XgV6vn2cymbJcLhcEAkGdXC4/EBcXV87lco3oDUREcIc/0CUEOQ6BBwEEIqL/AP0/zLm1hc4gC0kAAAAASUVORK5CYII=;strokeColor=#000000;" parent="1" vertex="1">
          <mxGeometry x="760" y="-150" width="210" height="210" as="geometry" />
        </mxCell>
        <mxCell id="4rB04aQ20s9kYNR3CybH-36" value="" style="rounded=0;whiteSpace=wrap;html=1;" parent="1" vertex="1">
          <mxGeometry x="310" y="630" width="100" height="290" as="geometry" />
        </mxCell>
        <mxCell id="4rB04aQ20s9kYNR3CybH-37" style="edgeStyle=orthogonalEdgeStyle;rounded=0;orthogonalLoop=1;jettySize=auto;html=1;exitX=1;exitY=0.5;exitDx=0;exitDy=0;" parent="1" source="4rB04aQ20s9kYNR3CybH-39" target="4rB04aQ20s9kYNR3CybH-42" edge="1">
          <mxGeometry relative="1" as="geometry" />
        </mxCell>
        <mxCell id="4rB04aQ20s9kYNR3CybH-38" style="edgeStyle=orthogonalEdgeStyle;rounded=0;orthogonalLoop=1;jettySize=auto;html=1;exitX=0;exitY=0.75;exitDx=0;exitDy=0;entryX=1;entryY=0.75;entryDx=0;entryDy=0;" parent="1" source="4rB04aQ20s9kYNR3CybH-39" target="4rB04aQ20s9kYNR3CybH-44" edge="1">
          <mxGeometry relative="1" as="geometry" />
        </mxCell>
        <mxCell id="4rB04aQ20s9kYNR3CybH-39" value="" style="shape=image;verticalLabelPosition=bottom;verticalAlign=top;imageAspect=0;image=https://cdn4.iconfinder.com/data/icons/logos-and-brands/512/91_Discord_logo_logos-512.png" parent="1" vertex="1">
          <mxGeometry x="160" y="640" width="80" height="80" as="geometry" />
        </mxCell>
        <mxCell id="4rB04aQ20s9kYNR3CybH-40" style="edgeStyle=orthogonalEdgeStyle;rounded=0;orthogonalLoop=1;jettySize=auto;html=1;exitX=0;exitY=0.75;exitDx=0;exitDy=0;entryX=1;entryY=0.75;entryDx=0;entryDy=0;" parent="1" source="4rB04aQ20s9kYNR3CybH-42" target="4rB04aQ20s9kYNR3CybH-39" edge="1">
          <mxGeometry relative="1" as="geometry" />
        </mxCell>
        <mxCell id="4rB04aQ20s9kYNR3CybH-41" style="edgeStyle=orthogonalEdgeStyle;rounded=0;orthogonalLoop=1;jettySize=auto;html=1;exitX=0.5;exitY=1;exitDx=0;exitDy=0;entryX=0.5;entryY=0;entryDx=0;entryDy=0;" parent="1" source="4rB04aQ20s9kYNR3CybH-42" target="4rB04aQ20s9kYNR3CybH-50" edge="1">
          <mxGeometry relative="1" as="geometry" />
        </mxCell>
        <mxCell id="4rB04aQ20s9kYNR3CybH-42" value="" style="shape=image;verticalLabelPosition=bottom;verticalAlign=top;imageAspect=0;image=https://discord.js.org/static/logo-square.png" parent="1" vertex="1">
          <mxGeometry x="320" y="640" width="80" height="80" as="geometry" />
        </mxCell>
        <mxCell id="4rB04aQ20s9kYNR3CybH-43" style="edgeStyle=orthogonalEdgeStyle;rounded=0;orthogonalLoop=1;jettySize=auto;html=1;exitX=1;exitY=0.5;exitDx=0;exitDy=0;entryX=0;entryY=0.5;entryDx=0;entryDy=0;" parent="1" source="4rB04aQ20s9kYNR3CybH-44" target="4rB04aQ20s9kYNR3CybH-39" edge="1">
          <mxGeometry relative="1" as="geometry" />
        </mxCell>
        <mxCell id="4rB04aQ20s9kYNR3CybH-44" value="" style="shape=image;verticalLabelPosition=bottom;verticalAlign=top;imageAspect=0;image=https://cdn3.iconfinder.com/data/icons/popular-services-brands-vol-2/512/discord-512.png" parent="1" vertex="1">
          <mxGeometry x="20" y="640" width="80" height="80" as="geometry" />
        </mxCell>
        <mxCell id="4rB04aQ20s9kYNR3CybH-45" value="" style="endArrow=none;dashed=1;html=1;dashPattern=1 3;strokeWidth=2;" parent="1" edge="1">
          <mxGeometry width="50" height="50" relative="1" as="geometry">
            <mxPoint x="280" y="880" as="sourcePoint" />
            <mxPoint x="280" y="600" as="targetPoint" />
          </mxGeometry>
        </mxCell>
        <mxCell id="4rB04aQ20s9kYNR3CybH-46" value="" style="endArrow=none;dashed=1;html=1;dashPattern=1 3;strokeWidth=2;" parent="1" edge="1">
          <mxGeometry width="50" height="50" relative="1" as="geometry">
            <mxPoint x="120" y="880" as="sourcePoint" />
            <mxPoint x="120" y="600" as="targetPoint" />
          </mxGeometry>
        </mxCell>
        <mxCell id="4rB04aQ20s9kYNR3CybH-47" value="Discord User" style="text;html=1;strokeColor=none;fillColor=none;align=center;verticalAlign=middle;whiteSpace=wrap;rounded=0;" parent="1" vertex="1">
          <mxGeometry x="20" y="610" width="80" height="20" as="geometry" />
        </mxCell>
        <mxCell id="4rB04aQ20s9kYNR3CybH-48" value="&lt;div&gt;Discord Platform&lt;/div&gt;" style="text;html=1;strokeColor=none;fillColor=none;align=center;verticalAlign=middle;whiteSpace=wrap;rounded=0;" parent="1" vertex="1">
          <mxGeometry x="180" y="610" width="40" height="20" as="geometry" />
        </mxCell>
        <mxCell id="4rB04aQ20s9kYNR3CybH-49" value="&lt;div&gt;Discord.js as a event broker&lt;/div&gt;" style="text;html=1;strokeColor=none;fillColor=none;align=center;verticalAlign=middle;whiteSpace=wrap;rounded=0;" parent="1" vertex="1">
          <mxGeometry x="310" y="600" width="100" height="30" as="geometry" />
        </mxCell>
        <mxCell id="4rB04aQ20s9kYNR3CybH-50" value="&lt;div&gt;any&lt;/div&gt;&lt;div&gt;event&lt;/div&gt;" style="ellipse;whiteSpace=wrap;html=1;aspect=fixed;" parent="1" vertex="1">
          <mxGeometry x="320" y="730" width="80" height="80" as="geometry" />
        </mxCell>
        <mxCell id="4rB04aQ20s9kYNR3CybH-91" value="&lt;p style=&quot;margin: 0px ; margin-top: 4px ; text-align: center&quot;&gt;&lt;b&gt;Ping&lt;/b&gt;&lt;/p&gt;&lt;hr size=&quot;1&quot;&gt;&lt;div&gt;&amp;nbsp;RO name:string&lt;/div&gt;&lt;div&gt;&amp;nbsp;RO description:string&lt;/div&gt;&lt;div&gt;- _observable:CommandHandlerObservable&lt;br&gt;&lt;/div&gt;- enable:boolean&lt;br&gt;&lt;hr size=&quot;1&quot;&gt;&lt;div&gt;+ notify(command:string, message:Message ...args:string[])&lt;/div&gt;&lt;div&gt;+ config(command:string, message:Message, options:Object)&lt;/div&gt;&lt;div&gt;+ set observable(observable:CommandHandlerObservable)&lt;/div&gt;&lt;div&gt;- exe():void&lt;/div&gt;&lt;div&gt;&lt;br&gt;&lt;/div&gt;" style="verticalAlign=top;align=left;overflow=fill;fontSize=12;fontFamily=Helvetica;html=1;glass=0;strokeColor=#000000;" parent="1" vertex="1">
          <mxGeometry x="1840" y="760" width="360" height="170" as="geometry" />
        </mxCell>
        <mxCell id="4rB04aQ20s9kYNR3CybH-92" value="" style="endArrow=block;dashed=1;endFill=0;endSize=12;html=1;entryX=0.5;entryY=1;entryDx=0;entryDy=0;exitX=0.5;exitY=0;exitDx=0;exitDy=0;" parent="1" source="4rB04aQ20s9kYNR3CybH-91" target="4rB04aQ20s9kYNR3CybH-90" edge="1">
          <mxGeometry width="160" relative="1" as="geometry">
            <mxPoint x="1570" y="1310" as="sourcePoint" />
            <mxPoint x="1730" y="1310" as="targetPoint" />
          </mxGeometry>
        </mxCell>
        <mxCell id="4rB04aQ20s9kYNR3CybH-96" value="onmesage" style="ellipse;whiteSpace=wrap;html=1;aspect=fixed;" parent="1" vertex="1">
          <mxGeometry x="320" y="820" width="80" height="80" as="geometry" />
        </mxCell>
        <mxCell id="4rB04aQ20s9kYNR3CybH-105" style="edgeStyle=orthogonalEdgeStyle;rounded=0;orthogonalLoop=1;jettySize=auto;html=1;exitX=0;exitY=0.75;exitDx=0;exitDy=0;entryX=1;entryY=0.5;entryDx=0;entryDy=0;" parent="1" source="4rB04aQ20s9kYNR3CybH-98" target="FuaRYOpQIYqmy_VIn2jc-28" edge="1">
          <mxGeometry relative="1" as="geometry">
            <Array as="points">
              <mxPoint x="240" y="-202" />
              <mxPoint x="240" y="-50" />
            </Array>
          </mxGeometry>
        </mxCell>
        <mxCell id="4rB04aQ20s9kYNR3CybH-77" value="&lt;p style=&quot;margin: 0px ; margin-top: 4px ; text-align: center&quot;&gt;&lt;i&gt;&amp;lt;&amp;lt;Interface&amp;gt;&amp;gt;&lt;/i&gt;&lt;br&gt;&lt;b&gt;Observable&lt;/b&gt;&lt;/p&gt;&lt;hr size=&quot;1&quot;&gt;&lt;p style=&quot;margin: 0px ; margin-left: 4px&quot;&gt;RO observers:Set&amp;lt;TObserver&amp;gt;&lt;br&gt;&lt;/p&gt;&lt;hr size=&quot;1&quot;&gt;+ add_observer(observer:TObserver):this&lt;br&gt;+ remove_observer(Observer:TObserver):this" style="verticalAlign=top;align=left;overflow=fill;fontSize=12;fontFamily=Helvetica;html=1;glass=0;strokeColor=#000000;" parent="1" vertex="1">
          <mxGeometry x="470" y="640" width="271" height="140" as="geometry" />
        </mxCell>
        <mxCell id="4rB04aQ20s9kYNR3CybH-82" value="&lt;p style=&quot;margin: 0px ; margin-top: 4px ; text-align: center&quot;&gt;&lt;i&gt;&amp;lt;&amp;lt;abstract&amp;gt;&amp;gt;&lt;/i&gt;&lt;br&gt;&lt;b&gt;OnCommandObservable&lt;br&gt;&lt;/b&gt;&lt;/p&gt;&lt;hr size=&quot;1&quot;&gt;&lt;p style=&quot;margin: 0px ; margin-left: 4px&quot;&gt;RO observers:Set&amp;lt;OnCommandObserver&amp;gt;&lt;br&gt;&lt;/p&gt;&lt;hr size=&quot;1&quot;&gt;# notify_all(command:string, ...args:string[]):void&lt;br&gt;+ add_observer(observer:OnCommandObserver):this&lt;br&gt;&lt;div&gt;+ remove_observer(Observer:OnCommandObserver):this&lt;br&gt;&lt;/div&gt;&lt;div&gt;+ &lt;i&gt;handle(command:string, ...args:string[]):void&lt;br&gt;&lt;br&gt;&lt;/i&gt;&lt;/div&gt;" style="verticalAlign=top;align=left;overflow=fill;fontSize=12;fontFamily=Helvetica;html=1;glass=0;strokeColor=#000000;" parent="1" vertex="1">
          <mxGeometry x="780" y="450" width="330" height="140" as="geometry" />
        </mxCell>
        <mxCell id="4rB04aQ20s9kYNR3CybH-86" value="" style="endArrow=block;dashed=1;endFill=0;endSize=12;html=1;entryX=1;entryY=0.25;entryDx=0;entryDy=0;exitX=0;exitY=0.5;exitDx=0;exitDy=0;" parent="1" source="4rB04aQ20s9kYNR3CybH-82" target="4rB04aQ20s9kYNR3CybH-77" edge="1">
          <mxGeometry x="280" y="350" width="160" as="geometry">
            <mxPoint x="720" y="870" as="sourcePoint" />
            <mxPoint x="880" y="870" as="targetPoint" />
          </mxGeometry>
        </mxCell>
        <mxCell id="4rB04aQ20s9kYNR3CybH-81" value="&lt;p style=&quot;margin: 0px ; margin-top: 4px ; text-align: center&quot;&gt;&lt;i&gt;&amp;lt;&amp;lt;abstract&amp;gt;&amp;gt;&lt;/i&gt;&lt;br&gt;&lt;b&gt;OnMessageObservable&lt;/b&gt;&lt;/p&gt;&lt;hr size=&quot;1&quot;&gt;&lt;p style=&quot;margin: 0px ; margin-left: 4px&quot;&gt;RO observers:Set&amp;lt;OnMessageObserver&amp;gt;&lt;br&gt;&lt;/p&gt;&lt;hr size=&quot;1&quot;&gt;&lt;div&gt;# notify_all(message:Message):void&lt;/div&gt;&lt;div&gt;+ add_observer(observer:OnMessageObserver):this&lt;/div&gt;&lt;div&gt;+ remove_observer(Observer:OnMessageObserver):this&lt;/div&gt;&lt;div&gt;+ &lt;i&gt;handle(message:Message):void&lt;/i&gt;&lt;/div&gt;" style="verticalAlign=top;align=left;overflow=fill;fontSize=12;fontFamily=Helvetica;html=1;glass=0;strokeColor=#000000;" parent="1" vertex="1">
          <mxGeometry x="810" y="680" width="310" height="140" as="geometry" />
        </mxCell>
        <mxCell id="4rB04aQ20s9kYNR3CybH-85" value="" style="endArrow=block;dashed=1;endFill=0;endSize=12;html=1;entryX=1;entryY=0.5;entryDx=0;entryDy=0;exitX=0;exitY=0.25;exitDx=0;exitDy=0;" parent="1" source="4rB04aQ20s9kYNR3CybH-81" target="4rB04aQ20s9kYNR3CybH-77" edge="1">
          <mxGeometry x="280" y="350" width="160" as="geometry">
            <mxPoint x="660" y="880" as="sourcePoint" />
            <mxPoint x="820" y="880" as="targetPoint" />
          </mxGeometry>
        </mxCell>
        <mxCell id="4rB04aQ20s9kYNR3CybH-80" value="&lt;p style=&quot;margin: 0px ; margin-top: 4px ; text-align: center&quot;&gt;&lt;i&gt;&amp;lt;&amp;lt;abstract&amp;gt;&amp;gt;&lt;/i&gt;&lt;br&gt;&lt;b&gt;OnReadyObservable&lt;/b&gt;&lt;/p&gt;&lt;hr size=&quot;1&quot;&gt;&lt;p style=&quot;margin: 0px ; margin-left: 4px&quot;&gt;RO observers:Set&amp;lt;OnReadyObserver&amp;gt;&lt;br&gt;&lt;/p&gt;&lt;hr size=&quot;1&quot;&gt;# notify_all():void&lt;div&gt;+ add_observer(observer:OnReadyObserver):this&lt;/div&gt;&lt;div&gt;+ remove_observer(Observer:OnReadyObserver):this&lt;/div&gt;&lt;div&gt;+ &lt;i&gt;handle():void&lt;/i&gt;&lt;/div&gt;" style="verticalAlign=top;align=left;overflow=fill;fontSize=12;fontFamily=Helvetica;html=1;glass=0;strokeColor=#000000;" parent="1" vertex="1">
          <mxGeometry x="790" y="1050" width="292" height="140" as="geometry" />
        </mxCell>
        <mxCell id="4rB04aQ20s9kYNR3CybH-84" value="" style="endArrow=block;dashed=1;endFill=0;endSize=12;html=1;entryX=1;entryY=0.75;entryDx=0;entryDy=0;exitX=0.25;exitY=0;exitDx=0;exitDy=0;" parent="1" source="4rB04aQ20s9kYNR3CybH-80" target="4rB04aQ20s9kYNR3CybH-77" edge="1">
          <mxGeometry x="280" y="350" width="160" as="geometry">
            <mxPoint x="460" y="930" as="sourcePoint" />
            <mxPoint x="620" y="930" as="targetPoint" />
          </mxGeometry>
        </mxCell>
        <mxCell id="4rB04aQ20s9kYNR3CybH-78" value="&lt;p style=&quot;margin: 0px ; margin-top: 4px ; text-align: center&quot;&gt;&lt;b&gt;OnReady&lt;/b&gt;&lt;/p&gt;&lt;hr size=&quot;1&quot;&gt;&lt;p style=&quot;margin: 0px ; margin-left: 4px&quot;&gt;&lt;br&gt;&lt;/p&gt;&lt;hr size=&quot;1&quot;&gt;&lt;p style=&quot;margin: 0px ; margin-left: 4px&quot;&gt;+ handle():void&lt;br&gt;&lt;/p&gt;" style="verticalAlign=top;align=left;overflow=fill;fontSize=12;fontFamily=Helvetica;html=1;glass=0;strokeColor=#000000;" parent="1" vertex="1">
          <mxGeometry x="1190" y="970" width="160" height="90" as="geometry" />
        </mxCell>
        <mxCell id="4rB04aQ20s9kYNR3CybH-87" value="Extends" style="endArrow=block;endSize=16;endFill=0;html=1;exitX=0;exitY=0.5;exitDx=0;exitDy=0;" parent="1" source="4rB04aQ20s9kYNR3CybH-78" target="4rB04aQ20s9kYNR3CybH-80" edge="1">
          <mxGeometry x="280" y="350" width="160" as="geometry">
            <mxPoint x="250" y="1210" as="sourcePoint" />
            <mxPoint x="410" y="1210" as="targetPoint" />
          </mxGeometry>
        </mxCell>
        <mxCell id="4rB04aQ20s9kYNR3CybH-76" value="&lt;p style=&quot;margin: 0px ; margin-top: 4px ; text-align: center&quot;&gt;&lt;b&gt;OnMessage&lt;/b&gt;&lt;/p&gt;&lt;hr size=&quot;1&quot;&gt;&lt;p style=&quot;margin: 0px ; margin-left: 4px&quot;&gt;- bot:Bot&lt;br&gt;&lt;/p&gt;&lt;hr size=&quot;1&quot;&gt;&lt;p style=&quot;margin: 0px ; margin-left: 4px&quot;&gt;+ handle(message:Message):void&lt;/p&gt;&lt;p style=&quot;margin: 0px ; margin-left: 4px&quot;&gt;- notify_command(command:string, ...args:string[])&lt;br&gt;&lt;/p&gt;" style="verticalAlign=top;align=left;overflow=fill;fontSize=12;fontFamily=Helvetica;html=1;glass=0;strokeColor=#000000;" parent="1" vertex="1">
          <mxGeometry x="1220" y="770" width="280" height="150" as="geometry" />
        </mxCell>
        <mxCell id="4rB04aQ20s9kYNR3CybH-88" value="Extends" style="endArrow=block;endSize=16;endFill=0;html=1;entryX=1;entryY=0.5;entryDx=0;entryDy=0;exitX=0;exitY=0.25;exitDx=0;exitDy=0;" parent="1" source="4rB04aQ20s9kYNR3CybH-76" target="4rB04aQ20s9kYNR3CybH-81" edge="1">
          <mxGeometry x="280" y="350" width="160" as="geometry">
            <mxPoint x="540" y="1230" as="sourcePoint" />
            <mxPoint x="700" y="1230" as="targetPoint" />
          </mxGeometry>
        </mxCell>
        <mxCell id="4rB04aQ20s9kYNR3CybH-79" value="&lt;p style=&quot;margin: 0px ; margin-top: 4px ; text-align: center&quot;&gt;&lt;b&gt;OnCommand&lt;/b&gt;&lt;/p&gt;&lt;hr size=&quot;1&quot;&gt;&lt;p style=&quot;margin: 0px ; margin-left: 4px&quot;&gt;&lt;br&gt;&lt;/p&gt;&lt;hr size=&quot;1&quot;&gt;&lt;p style=&quot;margin: 0px ; margin-left: 4px&quot;&gt;+ public handle(command:string, ...args:string[])&lt;br&gt;&lt;/p&gt;" style="verticalAlign=top;align=left;overflow=fill;fontSize=12;fontFamily=Helvetica;html=1;glass=0;strokeColor=#000000;" parent="1" vertex="1">
          <mxGeometry x="1170" y="475" width="270" height="90" as="geometry" />
        </mxCell>
        <mxCell id="4rB04aQ20s9kYNR3CybH-89" value="Extends" style="endArrow=block;endSize=16;endFill=0;html=1;entryX=1;entryY=0.5;entryDx=0;entryDy=0;exitX=0;exitY=0.5;exitDx=0;exitDy=0;" parent="1" source="4rB04aQ20s9kYNR3CybH-79" target="4rB04aQ20s9kYNR3CybH-82" edge="1">
          <mxGeometry x="280" y="350" width="160" as="geometry">
            <mxPoint x="827" y="1230" as="sourcePoint" />
            <mxPoint x="987" y="1230" as="targetPoint" />
          </mxGeometry>
        </mxCell>
        <mxCell id="4rB04aQ20s9kYNR3CybH-90" value="&lt;p style=&quot;margin: 0px ; margin-top: 4px ; text-align: center&quot;&gt;&lt;i&gt;&amp;lt;&amp;lt;Interface&amp;gt;&amp;gt;&lt;/i&gt;&lt;br&gt;&lt;b&gt;CommandHandlerObserver&lt;/b&gt;&lt;/p&gt;&lt;hr size=&quot;1&quot;&gt;&lt;p style=&quot;margin: 0px ; margin-left: 4px&quot;&gt;RO name:string&lt;/p&gt;&lt;p style=&quot;margin: 0px ; margin-left: 4px&quot;&gt;RO description:string&lt;/p&gt;&lt;hr size=&quot;1&quot;&gt;&lt;div&gt;+ notify(command:string, message:Message ...args:string[])&lt;/div&gt;&lt;div&gt;+ config(command:string, message:Message, options:Object)&lt;/div&gt;&lt;div&gt;+ set observable(observable:CommandHandlerObservable)&lt;br&gt;&lt;/div&gt;&lt;div&gt;&lt;br&gt;&lt;/div&gt;" style="verticalAlign=top;align=left;overflow=fill;fontSize=12;fontFamily=Helvetica;html=1;glass=0;strokeColor=#000000;" parent="1" vertex="1">
          <mxGeometry x="1840" y="520" width="360" height="160" as="geometry" />
        </mxCell>
        <mxCell id="4rB04aQ20s9kYNR3CybH-113" value="&lt;p style=&quot;margin: 0px ; margin-top: 4px ; text-align: center&quot;&gt;Ready&lt;/p&gt;&lt;hr size=&quot;1&quot;&gt;&lt;br&gt;&lt;hr size=&quot;1&quot;&gt;&lt;div&gt;+ notify()&lt;/div&gt;" style="verticalAlign=top;align=left;overflow=fill;fontSize=12;fontFamily=Helvetica;html=1;glass=0;strokeColor=#000000;" parent="1" vertex="1">
          <mxGeometry x="1770" y="970" width="230" height="90" as="geometry" />
        </mxCell>
        <mxCell id="4rB04aQ20s9kYNR3CybH-114" value="" style="endArrow=block;dashed=1;endFill=0;endSize=12;html=1;entryX=0.5;entryY=0;entryDx=0;entryDy=0;exitX=0.5;exitY=1;exitDx=0;exitDy=0;" parent="1" source="4rB04aQ20s9kYNR3CybH-113" target="4rB04aQ20s9kYNR3CybH-115" edge="1">
          <mxGeometry width="160" relative="1" as="geometry">
            <mxPoint x="1530" y="1750" as="sourcePoint" />
            <mxPoint x="1690" y="1750" as="targetPoint" />
          </mxGeometry>
        </mxCell>
        <mxCell id="4rB04aQ20s9kYNR3CybH-115" value="&lt;p style=&quot;margin: 0px ; margin-top: 4px ; text-align: center&quot;&gt;&lt;i&gt;&amp;lt;&amp;lt;Interface&amp;gt;&amp;gt;&lt;/i&gt;&lt;br&gt;&lt;b&gt;OnReadyObserver&lt;/b&gt;&lt;/p&gt;&lt;hr size=&quot;1&quot;&gt;&lt;p style=&quot;margin: 0px ; margin-left: 4px&quot;&gt;&lt;br&gt;&lt;/p&gt;&lt;hr size=&quot;1&quot;&gt;+ notify()" style="verticalAlign=top;align=left;overflow=fill;fontSize=12;fontFamily=Helvetica;html=1;glass=0;strokeColor=#000000;" parent="1" vertex="1">
          <mxGeometry x="1775" y="1130" width="220" height="140" as="geometry" />
        </mxCell>
        <mxCell id="VdjnM8DqXwYymBI1JdbW-1" value="&lt;div&gt;handle()&lt;/div&gt;" style="html=1;verticalAlign=bottom;endArrow=block;exitX=1;exitY=0.5;exitDx=0;exitDy=0;entryX=0;entryY=0.5;entryDx=0;entryDy=0;" edge="1" parent="1" source="4rB04aQ20s9kYNR3CybH-96" target="4rB04aQ20s9kYNR3CybH-76">
          <mxGeometry width="80" relative="1" as="geometry">
            <mxPoint x="440" y="860" as="sourcePoint" />
            <mxPoint x="520" y="860" as="targetPoint" />
          </mxGeometry>
        </mxCell>
        <mxCell id="VdjnM8DqXwYymBI1JdbW-2" value="handle()" style="html=1;verticalAlign=bottom;endArrow=block;exitX=0.75;exitY=0;exitDx=0;exitDy=0;entryX=0.75;entryY=1;entryDx=0;entryDy=0;" edge="1" parent="1" source="4rB04aQ20s9kYNR3CybH-76" target="4rB04aQ20s9kYNR3CybH-79">
          <mxGeometry width="80" relative="1" as="geometry">
            <mxPoint x="1500" y="850" as="sourcePoint" />
            <mxPoint x="1720" y="830" as="targetPoint" />
          </mxGeometry>
        </mxCell>
        <mxCell id="VdjnM8DqXwYymBI1JdbW-3" value="&lt;div&gt;notify&lt;/div&gt;" style="html=1;verticalAlign=bottom;endArrow=block;exitX=1;exitY=0.75;exitDx=0;exitDy=0;" edge="1" parent="1" source="4rB04aQ20s9kYNR3CybH-79">
          <mxGeometry width="80" relative="1" as="geometry">
            <mxPoint x="1440" y="520" as="sourcePoint" />
            <mxPoint x="1600" y="670" as="targetPoint" />
          </mxGeometry>
        </mxCell>
        <mxCell id="VdjnM8DqXwYymBI1JdbW-6" value="OnMessage" style="shape=umlLifeline;perimeter=lifelinePerimeter;whiteSpace=wrap;html=1;container=1;collapsible=0;recursiveResize=0;outlineConnect=0;" vertex="1" parent="1">
          <mxGeometry x="550" y="1220" width="100" height="560" as="geometry" />
        </mxCell>
        <mxCell id="VdjnM8DqXwYymBI1JdbW-11" value="" style="html=1;points=[];perimeter=orthogonalPerimeter;" vertex="1" parent="VdjnM8DqXwYymBI1JdbW-6">
          <mxGeometry x="45" y="70" width="10" height="470" as="geometry" />
        </mxCell>
        <mxCell id="VdjnM8DqXwYymBI1JdbW-72" value="" style="html=1;points=[];perimeter=orthogonalPerimeter;" vertex="1" parent="VdjnM8DqXwYymBI1JdbW-6">
          <mxGeometry x="51" y="430" width="10" height="30" as="geometry" />
        </mxCell>
        <mxCell id="VdjnM8DqXwYymBI1JdbW-73" value="notify_command(command_parsed)" style="edgeStyle=orthogonalEdgeStyle;html=1;align=left;spacingLeft=2;endArrow=block;rounded=0;entryX=1;entryY=0;dashed=1;" edge="1" target="VdjnM8DqXwYymBI1JdbW-72" parent="VdjnM8DqXwYymBI1JdbW-6">
          <mxGeometry relative="1" as="geometry">
            <mxPoint x="56" y="410" as="sourcePoint" />
            <Array as="points">
              <mxPoint x="81" y="410" />
            </Array>
          </mxGeometry>
        </mxCell>
        <mxCell id="VdjnM8DqXwYymBI1JdbW-79" value="notify(message)" style="html=1;verticalAlign=bottom;endArrow=block;dashed=1;entryX=0;entryY=0.5;entryDx=0;entryDy=0;" edge="1" parent="VdjnM8DqXwYymBI1JdbW-6" target="VdjnM8DqXwYymBI1JdbW-80">
          <mxGeometry width="80" relative="1" as="geometry">
            <mxPoint x="50" y="520" as="sourcePoint" />
            <mxPoint x="160" y="520" as="targetPoint" />
          </mxGeometry>
        </mxCell>
        <mxCell id="VdjnM8DqXwYymBI1JdbW-7" value="CommandParser" style="shape=umlLifeline;perimeter=lifelinePerimeter;whiteSpace=wrap;html=1;container=1;collapsible=0;recursiveResize=0;outlineConnect=0;" vertex="1" parent="1">
          <mxGeometry x="920" y="1220" width="100" height="510" as="geometry" />
        </mxCell>
        <mxCell id="VdjnM8DqXwYymBI1JdbW-12" value="" style="html=1;points=[];perimeter=orthogonalPerimeter;" vertex="1" parent="VdjnM8DqXwYymBI1JdbW-7">
          <mxGeometry x="45" y="170" width="10" height="230" as="geometry" />
        </mxCell>
        <mxCell id="VdjnM8DqXwYymBI1JdbW-26" value="" style="html=1;points=[];perimeter=orthogonalPerimeter;" vertex="1" parent="VdjnM8DqXwYymBI1JdbW-7">
          <mxGeometry x="50" y="340" width="10" height="20" as="geometry" />
        </mxCell>
        <mxCell id="VdjnM8DqXwYymBI1JdbW-27" value="get_parameters(content)" style="edgeStyle=orthogonalEdgeStyle;html=1;align=left;spacingLeft=2;endArrow=block;rounded=0;entryX=1;entryY=0;" edge="1" parent="VdjnM8DqXwYymBI1JdbW-7" target="VdjnM8DqXwYymBI1JdbW-26">
          <mxGeometry relative="1" as="geometry">
            <mxPoint x="55" y="320" as="sourcePoint" />
            <Array as="points">
              <mxPoint x="80" y="320" />
            </Array>
          </mxGeometry>
        </mxCell>
        <mxCell id="VdjnM8DqXwYymBI1JdbW-28" value="return parameters:string[]" style="edgeStyle=orthogonalEdgeStyle;html=1;align=left;spacingLeft=2;endArrow=open;rounded=0;entryX=0.5;entryY=0.375;entryDx=0;entryDy=0;entryPerimeter=0;dashed=1;endFill=0;" edge="1" parent="VdjnM8DqXwYymBI1JdbW-7">
          <mxGeometry relative="1" as="geometry">
            <mxPoint x="60" y="350" as="sourcePoint" />
            <Array as="points">
              <mxPoint x="80" y="350" />
              <mxPoint x="80" y="370" />
            </Array>
            <mxPoint x="50" y="370" as="targetPoint" />
          </mxGeometry>
        </mxCell>
        <mxCell id="VdjnM8DqXwYymBI1JdbW-23" value="" style="html=1;points=[];perimeter=orthogonalPerimeter;" vertex="1" parent="VdjnM8DqXwYymBI1JdbW-7">
          <mxGeometry x="50" y="270" width="10" height="20" as="geometry" />
        </mxCell>
        <mxCell id="VdjnM8DqXwYymBI1JdbW-24" value="get_command(content)" style="edgeStyle=orthogonalEdgeStyle;html=1;align=left;spacingLeft=2;endArrow=block;rounded=0;entryX=1;entryY=0;" edge="1" parent="VdjnM8DqXwYymBI1JdbW-7" target="VdjnM8DqXwYymBI1JdbW-23" source="VdjnM8DqXwYymBI1JdbW-12">
          <mxGeometry relative="1" as="geometry">
            <mxPoint x="55" y="250" as="sourcePoint" />
            <Array as="points">
              <mxPoint x="80" y="250" />
              <mxPoint x="80" y="270" />
            </Array>
          </mxGeometry>
        </mxCell>
        <mxCell id="VdjnM8DqXwYymBI1JdbW-25" value="return command:string" style="edgeStyle=orthogonalEdgeStyle;html=1;align=left;spacingLeft=2;endArrow=open;rounded=0;dashed=1;endFill=0;" edge="1" parent="VdjnM8DqXwYymBI1JdbW-7" source="VdjnM8DqXwYymBI1JdbW-23" target="VdjnM8DqXwYymBI1JdbW-12">
          <mxGeometry relative="1" as="geometry">
            <mxPoint x="60" y="280" as="sourcePoint" />
            <Array as="points">
              <mxPoint x="80" y="280" />
              <mxPoint x="80" y="300" />
            </Array>
            <mxPoint x="50" y="300" as="targetPoint" />
          </mxGeometry>
        </mxCell>
        <mxCell id="VdjnM8DqXwYymBI1JdbW-15" value="" style="html=1;points=[];perimeter=orthogonalPerimeter;" vertex="1" parent="VdjnM8DqXwYymBI1JdbW-7">
          <mxGeometry x="50" y="200" width="10" height="20" as="geometry" />
        </mxCell>
        <mxCell id="VdjnM8DqXwYymBI1JdbW-16" value="remove_prefix(content)" style="edgeStyle=orthogonalEdgeStyle;html=1;align=left;spacingLeft=2;endArrow=block;rounded=0;entryX=1;entryY=0;" edge="1" target="VdjnM8DqXwYymBI1JdbW-15" parent="VdjnM8DqXwYymBI1JdbW-7" source="VdjnM8DqXwYymBI1JdbW-12">
          <mxGeometry relative="1" as="geometry">
            <mxPoint x="55" y="180" as="sourcePoint" />
            <Array as="points">
              <mxPoint x="80" y="180" />
              <mxPoint x="80" y="200" />
            </Array>
          </mxGeometry>
        </mxCell>
        <mxCell id="VdjnM8DqXwYymBI1JdbW-18" value="return content" style="edgeStyle=orthogonalEdgeStyle;html=1;align=left;spacingLeft=2;endArrow=open;rounded=0;dashed=1;endFill=0;" edge="1" target="VdjnM8DqXwYymBI1JdbW-12" parent="VdjnM8DqXwYymBI1JdbW-7" source="VdjnM8DqXwYymBI1JdbW-15">
          <mxGeometry relative="1" as="geometry">
            <mxPoint x="60" y="210" as="sourcePoint" />
            <Array as="points">
              <mxPoint x="80" y="210" />
              <mxPoint x="80" y="230" />
            </Array>
            <mxPoint x="50" y="230" as="targetPoint" />
          </mxGeometry>
        </mxCell>
        <mxCell id="VdjnM8DqXwYymBI1JdbW-8" value="Bot" style="shape=umlLifeline;perimeter=lifelinePerimeter;whiteSpace=wrap;html=1;container=1;collapsible=0;recursiveResize=0;outlineConnect=0;" vertex="1" parent="1">
          <mxGeometry x="741" y="1220" width="100" height="220" as="geometry" />
        </mxCell>
        <mxCell id="VdjnM8DqXwYymBI1JdbW-60" value="" style="html=1;points=[];perimeter=orthogonalPerimeter;" vertex="1" parent="VdjnM8DqXwYymBI1JdbW-8">
          <mxGeometry x="45" y="80" width="10" height="30" as="geometry" />
        </mxCell>
        <mxCell id="VdjnM8DqXwYymBI1JdbW-10" value="&lt;div&gt;handle(message:Message)&lt;/div&gt;" style="html=1;verticalAlign=bottom;startArrow=circle;startFill=1;endArrow=open;startSize=6;endSize=8;entryX=-0.091;entryY=0;entryDx=0;entryDy=0;entryPerimeter=0;" edge="1" parent="1" target="VdjnM8DqXwYymBI1JdbW-11">
          <mxGeometry width="80" relative="1" as="geometry">
            <mxPoint x="400" y="1290" as="sourcePoint" />
            <mxPoint x="580" y="1250" as="targetPoint" />
          </mxGeometry>
        </mxCell>
        <mxCell id="VdjnM8DqXwYymBI1JdbW-43" value="parse(prefix:string, content:string)" style="html=1;verticalAlign=bottom;endArrow=block;dashed=1;entryX=0.005;entryY=-0.002;entryDx=0;entryDy=0;entryPerimeter=0;" edge="1" parent="1" source="VdjnM8DqXwYymBI1JdbW-11" target="VdjnM8DqXwYymBI1JdbW-12">
          <mxGeometry width="80" relative="1" as="geometry">
            <mxPoint x="620" y="1390" as="sourcePoint" />
            <mxPoint x="680" y="1330" as="targetPoint" />
          </mxGeometry>
        </mxCell>
        <mxCell id="VdjnM8DqXwYymBI1JdbW-61" value="prefix" style="html=1;verticalAlign=bottom;endArrow=block;entryX=0;entryY=0;dashed=1;" edge="1" target="VdjnM8DqXwYymBI1JdbW-60" parent="1">
          <mxGeometry relative="1" as="geometry">
            <mxPoint x="599.3235294117649" y="1300" as="sourcePoint" />
          </mxGeometry>
        </mxCell>
        <mxCell id="VdjnM8DqXwYymBI1JdbW-62" value="return prefix:string" style="html=1;verticalAlign=bottom;endArrow=open;dashed=1;endSize=8;exitX=0;exitY=0.95;" edge="1" source="VdjnM8DqXwYymBI1JdbW-60" parent="1">
          <mxGeometry relative="1" as="geometry">
            <mxPoint x="599.3235294117649" y="1328.5" as="targetPoint" />
          </mxGeometry>
        </mxCell>
        <mxCell id="VdjnM8DqXwYymBI1JdbW-63" value="return command_parsed:{command:string, args:string[]}" style="html=1;verticalAlign=bottom;endArrow=open;dashed=1;endSize=8;" edge="1" parent="1" target="VdjnM8DqXwYymBI1JdbW-6">
          <mxGeometry relative="1" as="geometry">
            <mxPoint x="970" y="1610" as="sourcePoint" />
            <mxPoint x="620" y="1610" as="targetPoint" />
          </mxGeometry>
        </mxCell>
        <mxCell id="VdjnM8DqXwYymBI1JdbW-64" value="&lt;div&gt;OnCommand&lt;/div&gt;" style="shape=umlLifeline;perimeter=lifelinePerimeter;whiteSpace=wrap;html=1;container=1;collapsible=0;recursiveResize=0;outlineConnect=0;" vertex="1" parent="1">
          <mxGeometry x="1150" y="1220" width="100" height="510" as="geometry" />
        </mxCell>
        <mxCell id="VdjnM8DqXwYymBI1JdbW-65" value="" style="html=1;points=[];perimeter=orthogonalPerimeter;" vertex="1" parent="VdjnM8DqXwYymBI1JdbW-64">
          <mxGeometry x="45" y="450" width="10" height="20" as="geometry" />
        </mxCell>
        <mxCell id="VdjnM8DqXwYymBI1JdbW-74" value="handle(command, ...args)" style="html=1;verticalAlign=bottom;endArrow=block;dashed=1;" edge="1" parent="1" source="VdjnM8DqXwYymBI1JdbW-72" target="VdjnM8DqXwYymBI1JdbW-65">
          <mxGeometry width="80" relative="1" as="geometry">
            <mxPoint x="620" y="1670" as="sourcePoint" />
            <mxPoint x="700" y="1670" as="targetPoint" />
          </mxGeometry>
        </mxCell>
        <mxCell id="VdjnM8DqXwYymBI1JdbW-77" value="notify(command, ...args)" style="html=1;verticalAlign=bottom;endArrow=block;dashed=1;entryX=0;entryY=0.5;entryDx=0;entryDy=0;" edge="1" parent="1" target="VdjnM8DqXwYymBI1JdbW-78">
          <mxGeometry width="80" relative="1" as="geometry">
            <mxPoint x="1205" y="1680" as="sourcePoint" />
            <mxPoint x="1460" y="1680" as="targetPoint" />
          </mxGeometry>
        </mxCell>
        <mxCell id="VdjnM8DqXwYymBI1JdbW-78" value="" style="ellipse;fillColor=#000000;strokeColor=none;" vertex="1" parent="1">
          <mxGeometry x="1370" y="1670" width="20" height="20" as="geometry" />
        </mxCell>
        <mxCell id="VdjnM8DqXwYymBI1JdbW-80" value="" style="ellipse;fillColor=#000000;strokeColor=none;" vertex="1" parent="1">
          <mxGeometry x="720.5" y="1730" width="19" height="20" as="geometry" />
        </mxCell>
      </root>
    </mxGraphModel>
  </diagram>
</mxfile>
